<svg xmlns="http://www.w3.org/2000/svg" xmlns:xlink="http://www.w3.org/1999/xlink" width="333" zoomAndPan="magnify" viewBox="0 0 249.75 96.749999" height="129" preserveAspectRatio="xMidYMid meet" version="1.0"><defs><clipPath id="b53af58222"><path d="M 108 4.042969 L 141 4.042969 L 141 27 L 108 27 Z M 108 4.042969 " clip-rule="nonzero"/></clipPath></defs><g clip-path="url(#b53af58222)"><path fill="#233f84" d="M 140.765625 16.804688 C 138.570312 9.652344 132.226562 3.757812 124.257812 4.042969 C 116.371094 4.328125 110.351562 9.691406 108.484375 16.804688 C 108.484375 16.804688 119.542969 14.609375 123.894531 26.113281 L 123.894531 7.863281 C 123.894531 7.863281 132.308594 4.894531 140.765625 16.804688 " fill-opacity="1" fill-rule="nonzero"/></g><path fill="#44b1ab" d="M 123.203125 32.046875 C 120.964844 24.894531 114.664062 19 106.695312 19.285156 C 98.804688 19.566406 92.789062 24.933594 90.917969 32.046875 C 90.917969 32.046875 101.9375 29.851562 106.328125 41.355469 L 106.328125 23.105469 C 106.289062 23.105469 114.703125 20.136719 123.203125 32.046875 " fill-opacity="1" fill-rule="nonzero"/><path fill="#44b1ab" d="M 158.371094 32.046875 C 156.175781 24.894531 149.832031 19 141.824219 19.285156 C 133.933594 19.566406 127.917969 24.933594 126.046875 32.046875 C 126.046875 32.046875 137.105469 29.851562 141.457031 41.355469 L 141.457031 23.105469 C 141.496094 23.105469 149.914062 20.136719 158.371094 32.046875 " fill-opacity="1" fill-rule="nonzero"/><path fill="#233f84" d="M 177.238281 47.855469 C 175 40.703125 168.699219 34.808594 160.6875 35.09375 C 152.800781 35.378906 146.785156 40.746094 144.914062 47.855469 C 144.914062 47.855469 155.929688 45.664062 160.324219 57.164062 L 160.324219 38.875 C 160.363281 38.875 168.78125 35.90625 177.238281 47.855469 " fill-opacity="1" fill-rule="nonzero"/><path fill="#233f84" d="M 140.765625 47.855469 C 138.53125 40.703125 132.226562 34.808594 124.21875 35.09375 C 116.332031 35.378906 110.3125 40.746094 108.441406 47.855469 C 108.441406 47.855469 119.460938 45.664062 123.851562 57.164062 L 123.851562 38.875 C 123.894531 38.875 132.308594 35.90625 140.765625 47.855469 " fill-opacity="1" fill-rule="nonzero"/><path fill="#233f84" d="M 104.296875 47.855469 C 102.058594 40.703125 95.757812 34.808594 87.789062 35.09375 C 79.898438 35.378906 73.882812 40.746094 72.011719 47.855469 C 72.011719 47.855469 83.03125 45.664062 87.421875 57.164062 L 87.421875 38.875 C 87.421875 38.875 95.839844 35.90625 104.296875 47.855469 " fill-opacity="1" fill-rule="nonzero"/><path fill="#233f84" d="M 92.789062 76.347656 L 93.644531 77.121094 L 94.332031 76.226562 L 93.5625 75.414062 Z M 92.789062 76.347656 " fill-opacity="1" fill-rule="nonzero"/><path fill="#233f84" d="M 91.242188 76.511719 L 92.097656 77.285156 L 92.789062 76.390625 L 92.015625 75.617188 Z M 91.242188 76.511719 " fill-opacity="1" fill-rule="nonzero"/><path fill="#233f84" d="M 99.007812 70.375 C 98.480469 70.375 98.074219 70.089844 97.832031 69.765625 C 97.503906 69.359375 97.425781 68.992188 97.425781 68.953125 C 97.425781 68.667969 98.480469 68.546875 98.523438 68.546875 C 99.210938 68.546875 99.945312 68.992188 100.269531 69.035156 C 100.269531 68.75 99.863281 68.261719 99.621094 68.097656 C 98.886719 67.449219 98.523438 67.324219 97.992188 67.285156 C 97.140625 67.285156 96.164062 68.421875 96.121094 69.316406 C 96.121094 69.847656 96.246094 70.007812 96.285156 70.171875 L 94.699219 70.171875 C 94.253906 70.171875 93.644531 70.171875 93.5625 70.171875 C 92.421875 70.414062 92.097656 70.578125 91.691406 70.984375 C 91.164062 71.554688 90.917969 72.203125 90.917969 72.449219 C 90.917969 73.261719 92.058594 73.097656 92.421875 73.339844 C 92.21875 73.503906 91.324219 73.789062 90.753906 73.789062 C 89.902344 73.789062 89.046875 73.136719 89.046875 72.246094 C 89.046875 71.429688 89.65625 70.699219 89.65625 70.457031 C 89.65625 70.292969 89.578125 70.171875 89.496094 70.171875 C 89.414062 70.171875 89.375 70.171875 88.96875 70.863281 C 87.910156 72.324219 87.707031 75.332031 90.269531 75.292969 C 90.878906 75.292969 92.058594 75.128906 93.15625 74.195312 C 93.765625 73.707031 94.007812 73.097656 94.007812 72.855469 C 94.007812 72 93.277344 71.960938 92.585938 71.796875 L 100.105469 71.796875 L 100.878906 70.128906 L 100.757812 70.050781 C 100.472656 70.089844 100.1875 70.375 99.007812 70.375 Z M 99.007812 70.375 " fill-opacity="1" fill-rule="nonzero"/><path fill="#233f84" d="M 113.078125 66.511719 L 112.222656 65.699219 L 111.410156 66.675781 L 112.304688 67.488281 Z M 113.078125 66.511719 " fill-opacity="1" fill-rule="nonzero"/><path fill="#233f84" d="M 111.449219 66.714844 L 110.597656 65.863281 L 109.824219 66.839844 L 110.679688 67.652344 Z M 111.449219 66.714844 " fill-opacity="1" fill-rule="nonzero"/><path fill="#233f84" d="M 114.988281 73.871094 L 115.964844 74.765625 L 116.816406 73.707031 L 115.882812 72.773438 Z M 114.988281 73.871094 " fill-opacity="1" fill-rule="nonzero"/><path fill="#233f84" d="M 120.273438 69.847656 C 119.175781 69.847656 117.957031 69.238281 117.226562 68.75 C 116.777344 68.421875 116.167969 67.773438 115.515625 67.773438 C 114.664062 67.773438 114.09375 69.316406 114.09375 69.441406 L 114.09375 69.601562 C 114.746094 69.035156 116.125 70.007812 116.492188 70.210938 C 115.640625 70.210938 113.363281 70.210938 112.550781 70.210938 C 112.550781 70.171875 112.019531 69.886719 112.019531 69.316406 C 112.019531 69.113281 112.101562 68.992188 112.101562 68.910156 L 112.019531 68.75 C 111.53125 68.75 111.289062 70.171875 111.246094 70.210938 C 110.433594 70.210938 109.175781 70.210938 108.359375 70.210938 C 108.359375 70.089844 108.15625 69.96875 107.953125 69.359375 C 107.875 69.113281 107.710938 68.421875 107.101562 68.421875 C 106.9375 68.421875 106.367188 68.503906 106.042969 69.074219 C 105.71875 69.601562 105.636719 70.128906 105.351562 70.210938 C 104.78125 70.210938 103.96875 70.210938 103.402344 70.210938 C 103.074219 70.210938 102.953125 69.96875 102.953125 69.5625 C 102.953125 68.015625 102.789062 66.390625 102.75 66.230469 C 102.710938 65.984375 102.75 65.414062 102.585938 65.414062 C 102.507812 65.414062 102.507812 65.457031 102.101562 66.105469 C 102.019531 66.230469 101.613281 66.796875 101.613281 66.839844 C 101.613281 66.878906 101.855469 67.570312 101.894531 67.773438 C 102.058594 68.707031 102.140625 70.375 102.140625 70.375 C 102.140625 71.511719 102.222656 71.835938 102.464844 71.835938 L 104.863281 71.835938 C 105.472656 71.835938 105.3125 71.308594 105.597656 70.984375 C 105.71875 71.757812 105.269531 71.390625 106.734375 72.324219 C 107.304688 72.691406 107.464844 72.894531 107.546875 72.894531 C 107.75 72.894531 107.792969 71.917969 107.953125 71.878906 C 108.078125 71.835938 109.011719 71.835938 109.582031 71.835938 L 110.761719 71.835938 C 111.449219 71.835938 111.328125 70.945312 111.574219 70.78125 C 111.777344 72.082031 112.222656 71.835938 113.363281 71.835938 L 116.535156 71.878906 C 116.859375 71.878906 117.835938 71.1875 118.484375 71.1875 L 119.011719 71.1875 L 119.625 71.308594 L 120.476562 69.804688 C 120.273438 69.847656 120.273438 69.847656 120.273438 69.847656 Z M 106.042969 70.171875 C 106.207031 70.007812 106.53125 69.804688 106.773438 69.804688 C 106.980469 69.804688 107.425781 70.171875 107.425781 70.660156 C 107.425781 70.660156 106.53125 70.457031 106.042969 70.171875 Z M 106.042969 70.171875 " fill-opacity="1" fill-rule="nonzero"/><path fill="#233f84" d="M 122.511719 74.074219 C 121.738281 74.113281 121.492188 73.828125 121.414062 73.667969 L 121.617188 73.585938 C 121.898438 73.542969 122.105469 73.871094 122.144531 73.871094 L 122.671875 73.136719 C 122.671875 72.933594 122.347656 72.855469 122.183594 72.855469 C 121.695312 72.8125 121.492188 73.136719 121.25 73.421875 C 121.085938 73.625 120.925781 73.828125 120.964844 74.03125 C 121.007812 74.4375 121.332031 74.519531 121.535156 74.640625 C 121.371094 75.046875 121.210938 75.25 121.25 75.375 C 121.371094 75.25 121.453125 75.128906 121.574219 75.046875 C 122.023438 74.722656 122.46875 74.722656 122.714844 74.683594 C 122.753906 74.601562 122.957031 74.398438 122.957031 74.074219 C 122.957031 73.910156 122.917969 74.074219 122.511719 74.074219 Z M 122.511719 74.074219 " fill-opacity="1" fill-rule="nonzero"/><path fill="#233f84" d="M 125.84375 65.292969 C 125.804688 65.292969 125.761719 65.292969 125.558594 65.742188 C 125.558594 65.742188 125.152344 66.511719 125.113281 66.675781 C 125.070312 66.878906 125.355469 67.609375 124.625 68.464844 C 123.972656 67.449219 122.144531 66.230469 121.453125 65.902344 C 121.332031 65.902344 121.289062 66.230469 121.289062 66.308594 C 121.25 66.472656 121.085938 66.917969 121.128906 67.367188 C 121.128906 67.652344 121.210938 67.609375 121.738281 68.21875 C 121.980469 68.503906 122.265625 68.789062 122.265625 68.789062 C 122.386719 68.789062 122.347656 68.667969 122.46875 68.21875 L 123.972656 69.316406 C 123.769531 69.644531 122.347656 70.171875 122.183594 70.253906 C 121.980469 70.375 122.023438 70.007812 121.898438 69.886719 C 121.777344 70.007812 121.777344 70.742188 121.777344 70.742188 C 121.777344 71.757812 122.023438 71.917969 122.0625 71.917969 C 122.265625 71.960938 125.722656 71.917969 125.722656 71.917969 L 125.804688 71.757812 C 125.804688 71.066406 125.886719 70.78125 125.886719 70.375 C 125.886719 69.765625 125.113281 69.074219 125.113281 68.992188 C 125.113281 68.953125 125.070312 69.074219 125.273438 68.707031 C 125.476562 68.300781 125.519531 68.21875 125.601562 68.058594 C 125.722656 68.140625 125.804688 68.261719 125.925781 68.261719 C 126.007812 68.261719 126.007812 68.21875 126.25 67.691406 L 126.617188 66.839844 C 126.617188 66.675781 126.332031 66.472656 126.128906 66.027344 C 125.925781 65.578125 125.964844 65.292969 125.84375 65.292969 Z M 123.609375 70.210938 L 124.460938 69.601562 C 124.503906 69.601562 124.910156 69.96875 124.992188 70.210938 Z M 123.609375 70.210938 " fill-opacity="1" fill-rule="nonzero"/><path fill="#233f84" d="M 128.648438 65.945312 C 128.648438 65.78125 128.730469 65.457031 128.570312 65.457031 C 128.40625 65.457031 128.203125 65.984375 128.160156 66.066406 C 127.835938 66.714844 127.753906 66.960938 127.753906 67.082031 C 127.796875 67.8125 127.753906 67.9375 127.753906 68.21875 C 127.835938 69.519531 127.714844 71.796875 127.835938 72.082031 C 128.160156 71.714844 128.730469 71.023438 128.730469 70.78125 C 128.773438 70.089844 128.691406 67.121094 128.648438 65.945312 Z M 128.648438 65.945312 " fill-opacity="1" fill-rule="nonzero"/><path fill="#233f84" d="M 137.960938 68.871094 C 137.878906 68.546875 137.636719 68.097656 137.472656 67.9375 L 136.617188 69.359375 C 136.742188 69.480469 137.308594 70.742188 137.308594 71.105469 C 137.230469 71.632812 136.902344 71.675781 135.886719 71.675781 C 134.75 71.675781 134.300781 70.984375 134.300781 70.332031 C 134.300781 69.601562 134.75 68.75 134.75 68.667969 C 134.75 68.546875 134.707031 68.503906 134.625 68.503906 C 134.34375 68.503906 134.058594 69.15625 134.015625 69.277344 C 133.367188 70.414062 133.367188 71.429688 133.367188 71.429688 C 133.367188 72.652344 134.097656 73.625 135.519531 73.625 C 137.433594 73.625 138.246094 71.960938 138.164062 70.253906 C 138.164062 70.292969 138.082031 69.277344 137.960938 68.871094 Z M 137.960938 68.871094 " fill-opacity="1" fill-rule="nonzero"/><path fill="#233f84" d="M 137.675781 65.742188 L 136.742188 64.804688 L 135.847656 65.863281 L 136.820312 66.796875 Z M 137.675781 65.742188 " fill-opacity="1" fill-rule="nonzero"/><path fill="#233f84" d="M 151.582031 66.269531 L 150.644531 65.335938 L 149.75 66.433594 L 150.726562 67.324219 Z M 151.582031 66.269531 " fill-opacity="1" fill-rule="nonzero"/><path fill="#233f84" d="M 156.746094 66.308594 C 156.582031 66.027344 156.582031 65.945312 156.582031 65.742188 C 156.582031 65.660156 156.621094 65.539062 156.5 65.335938 C 156.5 65.335938 155.605469 66.433594 155.566406 67.042969 C 155.605469 67.367188 155.808594 67.609375 155.890625 68.21875 C 156.011719 69.15625 156.054688 69.765625 156.136719 70.007812 L 156.136719 70.171875 L 154.425781 70.171875 L 154.550781 69.847656 C 154.550781 69.195312 153.898438 67.9375 152.882812 68.015625 C 152.273438 68.097656 150.523438 69.277344 150.28125 69.480469 C 149.628906 69.925781 149.222656 70.089844 149.222656 70.089844 C 149.058594 70.128906 148.980469 70.171875 148.9375 70.171875 C 148.9375 70.171875 148.898438 70.171875 148.898438 70.171875 C 148.613281 70.089844 148.53125 70.210938 148.53125 69.644531 C 148.53125 69.15625 148.652344 68.910156 148.652344 68.910156 L 148.53125 68.75 C 148.328125 68.75 147.882812 69.398438 147.921875 70.171875 C 147.597656 70.171875 147.394531 70.171875 147.191406 70.171875 L 145.605469 70.171875 C 145.605469 70.050781 145.402344 69.925781 145.199219 69.316406 C 145.117188 69.074219 144.953125 68.382812 144.34375 68.382812 C 144.179688 68.382812 143.613281 68.464844 143.285156 69.035156 C 142.960938 69.5625 142.878906 70.089844 142.59375 70.171875 C 142.027344 70.171875 141.214844 70.171875 140.644531 70.171875 C 140.320312 70.171875 140.195312 69.925781 140.195312 69.519531 C 140.195312 67.976562 140.035156 66.351562 139.992188 66.1875 C 139.992188 65.945312 139.992188 65.375 139.832031 65.375 C 139.75 65.375 139.75 65.414062 139.34375 66.066406 C 139.261719 66.1875 138.855469 66.757812 138.855469 66.796875 C 138.855469 66.839844 139.097656 67.53125 139.140625 67.734375 C 139.300781 68.667969 139.382812 70.332031 139.382812 70.332031 C 139.382812 71.472656 139.464844 71.796875 139.667969 71.796875 L 142.066406 71.796875 C 142.675781 71.796875 142.515625 71.269531 142.800781 70.945312 C 142.921875 71.714844 142.472656 71.351562 143.9375 72.285156 C 144.507812 72.652344 144.667969 72.855469 144.75 72.855469 C 144.953125 72.855469 144.996094 71.878906 145.15625 71.835938 C 145.277344 71.796875 146.214844 71.796875 146.785156 71.796875 C 146.785156 71.796875 146.90625 71.796875 147.109375 71.796875 C 147.148438 71.796875 147.191406 71.796875 147.191406 71.796875 C 147.269531 71.796875 147.351562 71.796875 147.433594 71.757812 C 147.71875 71.714844 147.839844 71.472656 147.921875 71.269531 C 148.042969 71.511719 148.367188 71.675781 148.734375 71.757812 C 148.777344 71.757812 148.855469 71.757812 148.9375 71.796875 C 149.183594 71.835938 149.386719 71.835938 149.507812 71.835938 C 151.050781 71.878906 154.222656 71.835938 155.28125 71.835938 L 156.257812 71.835938 C 156.664062 71.835938 156.785156 71.632812 156.90625 71.351562 C 157.070312 70.945312 157.070312 70.578125 157.03125 70.128906 C 156.949219 69.359375 156.785156 68.097656 156.785156 68.097656 L 156.988281 68.015625 C 157.152344 67.8125 157.355469 67.40625 157.394531 67.121094 C 157.4375 66.636719 157.03125 66.757812 156.746094 66.308594 Z M 143.285156 70.171875 C 143.449219 70.007812 143.773438 69.804688 144.019531 69.804688 C 144.222656 69.804688 144.667969 70.171875 144.667969 70.660156 C 144.667969 70.660156 143.773438 70.457031 143.285156 70.171875 Z M 150.441406 70.210938 L 150.484375 70.171875 C 150.484375 70.171875 151.703125 69.480469 152.070312 69.480469 C 152.394531 69.480469 153.003906 69.847656 153.167969 70.210938 Z M 150.441406 70.210938 " fill-opacity="1" fill-rule="nonzero"/><path fill="#233f84" d="M 159.226562 67.042969 C 159.226562 66.59375 159.183594 66.351562 159.183594 65.902344 C 159.183594 65.742188 159.265625 65.414062 159.101562 65.414062 C 158.941406 65.414062 158.738281 65.945312 158.695312 66.027344 C 158.371094 66.675781 158.289062 66.917969 158.289062 67.042969 C 158.332031 67.773438 158.289062 67.894531 158.332031 68.179688 C 158.410156 69.480469 158.289062 71.757812 158.410156 72.039062 C 158.738281 71.675781 159.304688 70.984375 159.304688 70.742188 C 159.304688 70.496094 159.265625 68.058594 159.226562 67.042969 Z M 159.226562 67.042969 " fill-opacity="1" fill-rule="nonzero"/><path fill="#233f84" d="M 101.164062 86.957031 C 101.125 86.957031 101 86.957031 100.921875 86.957031 C 99.210938 87.527344 97.21875 88.257812 95.269531 88.175781 C 92.953125 88.136719 90.1875 87.730469 88.761719 85.820312 C 87.503906 84.03125 88.398438 81.671875 90.308594 80.738281 C 93.113281 79.234375 97.015625 79.480469 99.984375 80.332031 C 100.269531 80.414062 100.433594 80.453125 100.472656 80.453125 L 100.675781 80.375 L 100.796875 80.25 L 101.125 80.453125 L 99.417969 82.40625 L 99.210938 82.285156 L 99.210938 82.203125 L 99.171875 82.082031 C 99.132812 81.957031 99.007812 81.835938 98.726562 81.714844 C 96.691406 80.902344 93.96875 80.699219 92.058594 81.796875 C 90.226562 82.8125 90.226562 85.046875 92.058594 86.0625 C 93.847656 87.078125 96.285156 86.957031 98.195312 86.386719 C 98.726562 86.183594 99.578125 86.023438 99.699219 85.535156 L 99.621094 85.332031 L 99.945312 85.210938 L 101.410156 86.917969 L 101.164062 86.957031 " fill-opacity="1" fill-rule="nonzero"/><path fill="#233f84" d="M 108.726562 87.8125 C 109.011719 87.8125 109.132812 87.730469 109.132812 87.527344 L 109.132812 80.25 C 109.132812 80.046875 109.011719 79.964844 108.726562 79.964844 L 108.726562 79.683594 L 112.507812 79.683594 L 112.507812 79.964844 C 112.140625 80.046875 112.386719 80.332031 112.753906 80.578125 L 119.09375 85.332031 L 119.09375 80.25 C 119.09375 80.046875 118.890625 79.964844 118.527344 79.964844 L 118.527344 79.683594 L 121.859375 79.683594 L 121.859375 79.964844 C 121.574219 79.964844 121.453125 80.046875 121.453125 80.25 L 121.453125 87.527344 C 121.453125 87.730469 121.617188 87.8125 121.859375 87.8125 L 121.859375 88.097656 L 118.28125 88.097656 L 118.28125 87.8125 C 118.769531 87.769531 118.605469 87.566406 118.199219 87.28125 L 111.492188 82.203125 L 111.492188 87.527344 C 111.492188 87.730469 111.65625 87.8125 112.019531 87.8125 L 112.019531 88.097656 L 108.769531 88.097656 L 108.769531 87.8125 " fill-opacity="1" fill-rule="nonzero"/><path fill="#233f84" d="M 130.4375 85.453125 L 130.640625 85.535156 L 130.722656 85.777344 C 130.84375 85.902344 131.046875 86.023438 131.332031 86.144531 C 131.617188 86.265625 131.984375 86.386719 132.390625 86.46875 C 133.855469 86.835938 135.398438 86.917969 136.902344 86.59375 C 137.472656 86.429688 138.285156 86.265625 138.328125 85.65625 C 138.328125 85.414062 138.203125 85.210938 137.917969 85.128906 C 135.722656 84.398438 132.917969 85.046875 130.722656 84.152344 C 128.894531 83.460938 128.851562 81.308594 130.640625 80.414062 C 132.269531 79.519531 134.871094 79.4375 136.742188 79.722656 C 137.675781 79.886719 138.53125 80.046875 139.300781 80.25 C 139.707031 80.375 140.15625 80.453125 140.480469 80.292969 L 140.765625 80.414062 L 139.222656 82.40625 L 138.976562 82.324219 C 138.8125 81.632812 137.917969 81.46875 137.269531 81.265625 C 135.683594 80.902344 133.652344 80.699219 132.144531 81.46875 C 131.699219 81.753906 131.820312 82.285156 132.269531 82.488281 C 132.511719 82.609375 132.878906 82.691406 133.285156 82.769531 C 134.75 82.972656 136.496094 82.894531 138 83.136719 C 138.9375 83.300781 139.832031 83.542969 140.480469 84.234375 C 141.050781 84.882812 140.96875 86.183594 140.238281 86.753906 C 138.203125 88.460938 133.652344 88.257812 131.292969 87.730469 C 130.925781 87.609375 130.640625 87.527344 130.398438 87.445312 C 130.152344 87.363281 129.992188 87.324219 129.828125 87.324219 L 129.542969 87.445312 L 129.21875 87.324219 L 130.4375 85.453125 " fill-opacity="1" fill-rule="nonzero"/><path fill="#233f84" d="M 148.9375 85.453125 L 149.140625 85.535156 L 149.222656 85.777344 C 149.34375 85.902344 149.546875 86.023438 149.832031 86.144531 C 150.117188 86.265625 150.484375 86.386719 150.890625 86.46875 C 152.394531 86.835938 153.898438 86.917969 155.402344 86.59375 C 155.769531 86.511719 156.09375 86.386719 156.378906 86.226562 C 156.90625 85.980469 156.949219 85.332031 156.417969 85.089844 C 154.222656 84.355469 151.417969 85.007812 149.222656 84.113281 C 147.394531 83.421875 147.351562 81.265625 149.140625 80.375 C 150.769531 79.480469 153.371094 79.398438 155.242188 79.683594 C 156.175781 79.84375 157.03125 80.007812 157.800781 80.210938 C 158.207031 80.332031 158.65625 80.414062 158.980469 80.25 L 159.265625 80.375 L 157.761719 82.363281 L 157.558594 82.285156 C 157.515625 82.121094 157.476562 82 157.394531 81.917969 C 157.273438 81.796875 157.070312 81.671875 156.824219 81.550781 C 155.808594 81.105469 154.507812 80.902344 153.371094 80.902344 C 152.515625 80.902344 151.460938 80.984375 150.726562 81.429688 C 150.28125 81.714844 150.402344 82.242188 150.847656 82.445312 C 152.558594 83.097656 154.753906 82.730469 156.582031 83.097656 C 157.515625 83.257812 158.453125 83.503906 159.023438 84.195312 C 159.589844 84.84375 159.550781 86.144531 158.820312 86.714844 C 156.824219 88.421875 152.230469 88.21875 149.875 87.6875 C 149.261719 87.566406 148.898438 87.324219 148.410156 87.28125 L 148.125 87.40625 L 147.839844 87.28125 L 148.9375 85.453125 " fill-opacity="1" fill-rule="nonzero"/></svg>