<svg xmlns="http://www.w3.org/2000/svg" xmlns:xlink="http://www.w3.org/1999/xlink" width="333" zoomAndPan="magnify" viewBox="0 0 249.75 96.749999" height="129" preserveAspectRatio="xMidYMid meet" version="1.0"><defs><clipPath id="1acad2742e"><path d="M 0.195312 27 L 37 27 L 37 67 L 0.195312 67 Z M 0.195312 27 " clip-rule="nonzero"/></clipPath><clipPath id="c41511c38d"><path d="M 184 16.058594 L 249.097656 16.058594 L 249.097656 80.390625 L 184 80.390625 Z M 184 16.058594 " clip-rule="nonzero"/></clipPath></defs><g clip-path="url(#1acad2742e)"><path fill="#143861" d="M 22.910156 50.761719 L 13.792969 50.761719 L 18.636719 35.019531 Z M 9.519531 66.675781 L 12.367188 57.082031 L 24.046875 57.082031 L 26.898438 66.675781 L 36.582031 66.675781 L 26.328125 30.265625 C 25.757812 27.875 24.617188 27.105469 22.054688 27.105469 L 7.8125 27.105469 L 7.8125 30.378906 L 8.949219 30.378906 C 10.660156 30.378906 11.515625 30.921875 11.515625 32.230469 C 11.515625 33.054688 11.515625 33.597656 10.660156 35.5625 L 0.402344 66.675781 " fill-opacity="1" fill-rule="evenodd"/></g><path fill="#143861" d="M 48.832031 66.675781 L 48.832031 30.011719 C 48.832031 28.101562 47.691406 27.105469 45.699219 27.105469 L 36.867188 27.105469 L 36.867188 30.378906 L 37.4375 30.378906 C 39.144531 30.378906 40 31.09375 40 32.628906 L 40 66.675781 " fill-opacity="1" fill-rule="nonzero"/><path fill="#143861" d="M 64.785156 66.675781 L 64.785156 30.011719 C 64.785156 28.101562 63.644531 27.105469 61.652344 27.105469 L 52.820312 27.105469 L 52.820312 30.378906 L 53.390625 30.378906 C 55.097656 30.378906 55.953125 31.09375 55.953125 32.628906 L 55.953125 66.675781 " fill-opacity="1" fill-rule="nonzero"/><path fill="#143861" d="M 81.023438 30.609375 C 81.023438 27.988281 79.027344 26.453125 75.894531 26.453125 C 72.476562 26.453125 70.765625 27.988281 70.765625 30.609375 C 70.765625 33.285156 72.476562 34.847656 75.894531 34.847656 C 79.027344 34.847656 81.023438 33.285156 81.023438 30.609375 M 80.738281 66.675781 L 80.738281 39.972656 C 80.738281 38.125 79.597656 37.042969 77.886719 37.042969 L 69.058594 37.042969 L 69.058594 40.257812 L 69.628906 40.257812 C 71.335938 40.257812 71.90625 40.96875 71.90625 42.59375 L 71.90625 66.675781 " fill-opacity="1" fill-rule="evenodd"/><path fill="#143861" d="M 101.816406 52.300781 L 101.816406 58.21875 C 100.109375 59.929688 98.113281 60.894531 96.40625 60.894531 C 94.695312 60.894531 93.839844 60.070312 93.839844 57.851562 C 93.839844 55.402344 94.410156 54.460938 96.40625 53.695312 C 97.828125 53.097656 99.253906 52.726562 101.816406 52.300781 M 89.285156 45.210938 L 90.136719 44.871094 C 92.417969 43.957031 93.839844 43.617188 95.550781 43.304688 C 96.40625 43.191406 97.542969 43.078125 98.113281 43.078125 C 100.964844 43.078125 101.816406 44.015625 101.816406 46.632812 L 101.816406 47.375 C 97.828125 48.03125 96.691406 48.257812 94.410156 48.742188 C 93.273438 49.027344 92.132812 49.394531 90.992188 49.878906 C 87.289062 51.359375 85.578125 54.207031 85.578125 58.675781 C 85.578125 64.285156 87.859375 66.960938 92.988281 66.960938 C 94.980469 66.960938 96.976562 66.503906 98.398438 65.59375 C 99.824219 64.9375 100.394531 64.597656 102.101562 63.03125 L 102.101562 63.941406 C 102.101562 65.792969 102.957031 66.675781 104.667969 66.675781 L 113.210938 66.675781 L 113.210938 63.628906 L 112.925781 63.628906 C 111.21875 63.628906 110.363281 62.859375 110.363281 61.324219 L 110.363281 46.777344 C 110.363281 39.203125 107.800781 36.644531 100.394531 36.644531 C 97.828125 36.644531 95.550781 36.925781 93.273438 37.46875 C 90.992188 38.007812 89.851562 38.40625 87.289062 39.746094 " fill-opacity="1" fill-rule="evenodd"/><path fill="#143861" d="M 126.601562 66.675781 L 126.601562 46.578125 C 128.59375 44.726562 130.019531 44.015625 132.015625 44.015625 C 134.007812 44.015625 134.578125 44.871094 134.578125 47.886719 L 134.578125 66.675781 L 143.410156 66.675781 L 143.410156 46.464844 C 143.410156 42.308594 142.839844 40.515625 141.699219 38.949219 C 140.273438 37.410156 138.566406 36.699219 136 36.699219 C 132.582031 36.699219 130.019531 37.953125 126.03125 41.398438 L 126.03125 39.800781 C 126.03125 37.953125 125.175781 37.042969 123.46875 37.042969 L 114.921875 37.042969 L 114.921875 40.257812 L 115.207031 40.257812 C 116.914062 40.257812 117.769531 40.96875 117.769531 42.59375 L 117.769531 66.675781 " fill-opacity="1" fill-rule="evenodd"/><path fill="#143861" d="M 170.761719 61.007812 L 157.65625 61.007812 L 170.191406 43.128906 L 170.191406 37.039062 L 151.390625 37.039062 C 149.109375 37.039062 148.253906 37.949219 148.253906 40.140625 L 148.253906 45.519531 L 151.390625 45.519531 L 151.390625 44.921875 C 151.390625 43.300781 152.242188 42.644531 153.953125 42.644531 L 160.789062 42.644531 L 147.96875 60.523438 L 147.96875 66.671875 L 170.761719 66.671875 " fill-opacity="1" fill-rule="nonzero"/><g clip-path="url(#c41511c38d)"><path fill="#143861" d="M 221.183594 65.050781 L 221.183594 31.515625 C 221.183594 28.8125 220.042969 27.929688 217.480469 27.929688 L 209.785156 27.929688 L 209.785156 31.628906 L 210.640625 31.628906 C 212.066406 31.628906 212.636719 32.171875 212.636719 33.820312 L 212.636719 65.050781 Z M 225.738281 65.050781 L 234 65.050781 L 234 39.742188 C 234 37.179688 232.863281 36.15625 230.296875 36.15625 L 225.738281 36.15625 Z M 208.078125 65.050781 L 208.078125 36.15625 L 203.519531 36.15625 C 200.957031 36.15625 199.816406 37.179688 199.816406 39.742188 L 199.816406 65.050781 Z M 243.6875 48.195312 C 243.6875 63.882812 232.292969 75.324219 216.910156 75.324219 C 201.527344 75.324219 190.132812 63.882812 190.132812 48.195312 C 190.132812 32.511719 201.527344 21.070312 216.910156 21.070312 C 232.292969 21.070312 243.6875 32.511719 243.6875 48.195312 M 249.097656 48.195312 C 249.097656 29.835938 235.425781 16.058594 216.910156 16.058594 C 198.675781 16.058594 184.71875 29.835938 184.71875 48.195312 C 184.71875 66.613281 198.675781 80.390625 216.910156 80.390625 C 235.425781 80.390625 249.097656 66.613281 249.097656 48.195312 " fill-opacity="1" fill-rule="evenodd"/></g></svg>