<svg xmlns="http://www.w3.org/2000/svg" xmlns:xlink="http://www.w3.org/1999/xlink" width="333" zoomAndPan="magnify" viewBox="0 0 249.75 96.749999" height="129" preserveAspectRatio="xMidYMid meet" version="1.0"><path fill="#001f5f" d="M 63.757812 34.710938 L 63.757812 34.113281 L 70.320312 34.113281 C 71.511719 34.113281 72.757812 34.113281 73.898438 34.066406 C 75.09375 34.015625 76.285156 34.015625 77.476562 34.015625 C 78.621094 34.015625 79.816406 34.113281 81.058594 34.363281 C 82.300781 34.613281 83.441406 35.011719 84.488281 35.5625 C 85.53125 36.109375 86.378906 36.90625 87.074219 37.855469 C 87.769531 38.804688 88.113281 40 88.113281 41.449219 C 88.113281 42.59375 87.867188 43.589844 87.320312 44.4375 C 86.773438 45.285156 86.128906 45.9375 85.285156 46.484375 C 84.441406 47.03125 83.542969 47.429688 82.550781 47.679688 C 81.554688 47.929688 80.558594 48.128906 79.566406 48.226562 L 79.566406 48.429688 C 81.007812 48.675781 82.25 48.925781 83.34375 49.226562 C 84.441406 49.472656 85.433594 49.875 86.230469 50.421875 C 87.023438 50.921875 87.671875 51.671875 88.167969 52.617188 C 88.664062 53.566406 88.960938 54.8125 89.058594 56.359375 C 89.210938 58.203125 89.308594 59.648438 89.40625 60.746094 C 89.507812 61.84375 89.609375 62.691406 89.757812 63.289062 C 89.90625 63.886719 90.152344 64.289062 90.402344 64.488281 C 90.699219 64.683594 91.097656 64.785156 91.597656 64.785156 C 92.191406 64.785156 92.640625 64.636719 93.039062 64.289062 C 93.433594 63.941406 93.730469 63.640625 94.03125 63.339844 L 94.480469 63.738281 C 94.179688 64.039062 93.933594 64.289062 93.636719 64.535156 C 93.335938 64.785156 93.039062 64.984375 92.691406 65.1875 C 92.34375 65.386719 91.894531 65.484375 91.347656 65.582031 C 90.847656 65.683594 90.152344 65.734375 89.40625 65.734375 C 87.820312 65.734375 86.574219 65.484375 85.679688 64.984375 C 84.785156 64.488281 84.140625 63.839844 83.691406 63.089844 C 83.246094 62.339844 82.996094 61.496094 82.898438 60.644531 C 82.796875 59.75 82.746094 58.949219 82.699219 58.152344 C 82.648438 56.957031 82.550781 55.808594 82.449219 54.710938 C 82.351562 53.613281 82.101562 52.617188 81.753906 51.71875 C 81.355469 50.871094 80.808594 50.175781 80.0625 49.625 C 79.320312 49.125 78.273438 48.828125 76.882812 48.828125 L 74.050781 48.828125 L 74.050781 64.535156 L 78.027344 64.535156 L 78.027344 65.132812 L 63.757812 65.132812 L 63.757812 64.535156 L 67.738281 64.535156 L 67.738281 34.710938 Z M 75.839844 48.179688 C 77.128906 48.179688 78.175781 48.027344 78.917969 47.679688 C 79.667969 47.332031 80.210938 46.882812 80.609375 46.285156 C 81.007812 45.683594 81.207031 45.039062 81.304688 44.238281 C 81.40625 43.492188 81.457031 42.695312 81.457031 41.945312 C 81.457031 40.648438 81.355469 39.550781 81.207031 38.65625 C 81.058594 37.757812 80.761719 37.007812 80.359375 36.410156 C 79.964844 35.808594 79.417969 35.359375 78.671875 35.0625 C 77.976562 34.765625 77.082031 34.613281 75.9375 34.613281 C 75.640625 34.613281 75.292969 34.613281 74.992188 34.664062 C 74.695312 34.710938 74.347656 34.710938 74.050781 34.765625 L 74.050781 48.226562 L 75.839844 48.226562 Z M 75.839844 48.179688 " fill-opacity="1" fill-rule="nonzero"/><path fill="#001f5f" d="M 106.210938 34.113281 L 113.714844 55.808594 L 113.816406 55.808594 L 121.417969 34.113281 L 132.304688 34.113281 L 132.304688 34.710938 L 128.28125 34.710938 L 128.28125 64.488281 L 132.304688 64.488281 L 132.304688 65.132812 L 118.039062 65.132812 L 118.039062 64.488281 L 122.015625 64.488281 L 122.015625 34.710938 L 121.914062 34.710938 L 111.230469 65.132812 L 110.535156 65.132812 L 99.847656 34.710938 L 99.75 34.710938 L 99.75 64.488281 L 103.722656 64.488281 L 103.722656 65.132812 L 95.078125 65.132812 L 95.078125 64.488281 L 99.050781 64.488281 L 99.050781 34.710938 L 95.078125 34.710938 L 95.078125 34.113281 Z M 106.210938 34.113281 " fill-opacity="1" fill-rule="nonzero"/><path fill="#001f5f" d="M 136.332031 64.488281 L 149.253906 32.867188 L 150.449219 32.867188 L 164.121094 64.488281 L 167.847656 64.488281 L 167.847656 65.085938 L 153.28125 65.085938 L 153.28125 64.488281 L 157.308594 64.488281 L 152.238281 52.816406 L 141.800781 52.816406 L 136.976562 64.488281 L 140.855469 64.488281 L 140.855469 65.085938 L 132.703125 65.085938 L 132.703125 64.488281 Z M 142.046875 52.21875 L 152.039062 52.21875 L 146.921875 40.351562 Z M 142.046875 52.21875 " fill-opacity="1" fill-rule="nonzero"/><path fill="#001f5f" d="M 174.308594 32.816406 L 175.253906 32.816406 L 175.253906 65.085938 L 174.308594 65.085938 Z M 174.308594 32.816406 " fill-opacity="1" fill-rule="nonzero"/><path fill="#001f5f" d="M 186.4375 35.011719 C 186.4375 36.109375 185.789062 36.707031 185.09375 36.90625 L 186.585938 39.949219 L 185.839844 39.949219 L 184.449219 37.054688 L 182.558594 37.054688 L 182.558594 39.949219 L 181.914062 39.949219 L 181.914062 33.015625 L 184.300781 33.015625 C 185.742188 33.015625 186.4375 33.914062 186.4375 35.011719 M 184.199219 36.460938 C 185.246094 36.460938 185.789062 35.960938 185.789062 35.0625 C 185.789062 34.113281 185.195312 33.617188 184.199219 33.617188 L 182.558594 33.617188 L 182.558594 36.507812 L 184.199219 36.507812 Z M 184.199219 36.460938 " fill-opacity="1" fill-rule="nonzero"/><path fill="#001f5f" d="M 187.976562 35.910156 C 187.976562 34.015625 189.019531 32.816406 190.660156 32.816406 C 192.304688 32.816406 193.34375 34.015625 193.34375 35.910156 L 193.34375 37.007812 C 193.34375 38.902344 192.304688 40.050781 190.613281 40.050781 C 188.972656 40.050781 187.925781 38.902344 187.925781 37.007812 L 187.925781 35.910156 Z M 188.625 37.054688 C 188.625 38.65625 189.46875 39.5 190.660156 39.5 C 191.855469 39.5 192.699219 38.65625 192.699219 37.054688 L 192.699219 35.910156 C 192.699219 34.316406 191.855469 33.417969 190.660156 33.417969 C 189.46875 33.417969 188.625 34.316406 188.625 35.910156 Z M 188.625 37.054688 " fill-opacity="1" fill-rule="nonzero"/><path fill="#001f5f" d="M 196.480469 39.949219 L 196.480469 36.859375 L 194.140625 33.015625 L 194.886719 33.015625 L 196.773438 36.210938 L 196.824219 36.210938 L 198.710938 33.015625 L 199.460938 33.015625 L 197.125 36.859375 L 197.125 39.949219 Z M 196.480469 39.949219 " fill-opacity="1" fill-rule="nonzero"/><path fill="#001f5f" d="M 199.363281 39.949219 L 201.847656 33.015625 L 202.492188 33.015625 L 204.976562 39.949219 L 204.28125 39.949219 L 203.535156 37.757812 L 200.800781 37.757812 L 200.058594 39.949219 Z M 202.144531 33.816406 L 201 37.207031 L 203.335938 37.207031 Z M 202.144531 33.816406 " fill-opacity="1" fill-rule="nonzero"/><path fill="#001f5f" d="M 210.246094 39.949219 L 206.269531 39.949219 L 206.269531 33.015625 L 206.914062 33.015625 L 206.914062 39.351562 L 210.246094 39.351562 Z M 210.246094 39.949219 " fill-opacity="1" fill-rule="nonzero"/><path fill="#001f5f" d="M 215.613281 39.949219 L 211.585938 39.949219 L 211.585938 33.015625 L 215.613281 33.015625 L 215.613281 33.566406 L 212.234375 33.566406 L 212.234375 36.109375 L 215.414062 36.109375 L 215.414062 36.660156 L 212.234375 36.660156 L 212.234375 39.351562 L 215.613281 39.351562 Z M 215.613281 39.949219 " fill-opacity="1" fill-rule="nonzero"/><path fill="#001f5f" d="M 181.960938 52.46875 L 181.960938 45.488281 L 182.558594 45.488281 L 184.996094 51.222656 L 185.046875 51.222656 L 187.480469 45.488281 L 188.128906 45.488281 L 188.128906 52.46875 L 187.53125 52.46875 L 187.53125 46.933594 L 187.480469 46.933594 L 185.339844 51.917969 L 184.746094 51.917969 L 182.558594 46.933594 L 182.511719 46.933594 L 182.511719 52.46875 Z M 181.960938 52.46875 " fill-opacity="1" fill-rule="nonzero"/><path fill="#001f5f" d="M 189.46875 52.46875 L 191.953125 45.535156 L 192.601562 45.535156 L 195.085938 52.46875 L 194.390625 52.46875 L 193.644531 50.273438 L 190.863281 50.273438 L 190.113281 52.46875 Z M 192.203125 46.285156 L 191.058594 49.675781 L 193.394531 49.675781 Z M 192.203125 46.285156 " fill-opacity="1" fill-rule="nonzero"/><path fill="#001f5f" d="M 200.902344 47.53125 C 200.902344 48.628906 200.253906 49.226562 199.558594 49.425781 L 201.050781 52.46875 L 200.304688 52.46875 L 198.914062 49.574219 L 197.023438 49.574219 L 197.023438 52.46875 L 196.378906 52.46875 L 196.378906 45.488281 L 198.765625 45.488281 C 200.207031 45.488281 200.902344 46.433594 200.902344 47.53125 M 198.664062 48.976562 C 199.710938 48.976562 200.253906 48.429688 200.253906 47.578125 C 200.253906 46.632812 199.65625 46.132812 198.710938 46.132812 L 197.074219 46.132812 L 197.074219 49.023438 L 198.664062 49.023438 Z M 198.664062 48.976562 " fill-opacity="1" fill-rule="nonzero"/><path fill="#001f5f" d="M 202.441406 48.429688 C 202.441406 46.53125 203.484375 45.335938 205.125 45.335938 C 206.769531 45.335938 207.808594 46.53125 207.808594 48.429688 L 207.808594 49.574219 C 207.808594 51.46875 206.769531 52.617188 205.078125 52.617188 C 203.4375 52.617188 202.390625 51.46875 202.390625 49.574219 L 202.390625 48.429688 Z M 203.089844 49.574219 C 203.089844 51.171875 203.933594 52.019531 205.125 52.019531 C 206.320312 52.019531 207.164062 51.171875 207.164062 49.574219 L 207.164062 48.429688 C 207.164062 46.832031 206.320312 45.9375 205.125 45.9375 C 203.933594 45.9375 203.089844 46.832031 203.089844 48.429688 Z M 203.089844 49.574219 " fill-opacity="1" fill-rule="nonzero"/><path fill="#001f5f" d="M 209.945312 49.574219 C 209.945312 51.121094 210.695312 52.019531 211.984375 52.019531 C 213.128906 52.019531 213.824219 51.269531 213.824219 50.472656 L 214.46875 50.472656 C 214.46875 51.46875 213.675781 52.617188 211.984375 52.617188 C 210.292969 52.617188 209.351562 51.46875 209.351562 49.574219 L 209.351562 48.476562 C 209.351562 46.632812 210.292969 45.386719 211.984375 45.386719 C 213.625 45.386719 214.46875 46.582031 214.46875 47.632812 L 213.824219 47.632812 C 213.824219 46.882812 213.175781 45.984375 211.984375 45.984375 C 210.742188 45.984375 210 46.933594 210 48.476562 L 210 49.574219 Z M 209.945312 49.574219 " fill-opacity="1" fill-rule="nonzero"/><path fill="#001f5f" d="M 215.464844 52.46875 L 217.949219 45.535156 L 218.597656 45.535156 L 221.082031 52.46875 L 220.386719 52.46875 L 219.640625 50.273438 L 216.910156 50.273438 L 216.160156 52.46875 Z M 218.199219 46.285156 L 217.054688 49.675781 L 219.390625 49.675781 Z M 218.199219 46.285156 " fill-opacity="1" fill-rule="nonzero"/><path fill="#001f5f" d="M 222.425781 45.488281 L 223.070312 45.488281 L 223.070312 52.417969 L 222.425781 52.417969 Z M 222.425781 45.488281 " fill-opacity="1" fill-rule="nonzero"/><path fill="#001f5f" d="M 225.105469 52.46875 L 225.105469 45.488281 L 225.753906 45.488281 L 229.484375 51.320312 L 229.53125 51.320312 L 229.53125 45.488281 L 230.179688 45.488281 L 230.179688 52.46875 L 229.53125 52.46875 L 225.804688 46.632812 L 225.753906 46.632812 L 225.753906 52.46875 Z M 225.105469 52.46875 " fill-opacity="1" fill-rule="nonzero"/><path fill="#001f5f" d="M 236.242188 52.46875 L 232.21875 52.46875 L 232.21875 45.488281 L 236.242188 45.488281 L 236.242188 46.085938 L 232.863281 46.085938 L 232.863281 48.628906 L 236.09375 48.628906 L 236.09375 49.175781 L 232.863281 49.175781 L 232.863281 51.871094 L 236.242188 51.871094 Z M 236.242188 52.46875 " fill-opacity="1" fill-rule="nonzero"/><path fill="#001f5f" d="M 183.953125 58.003906 C 186.1875 58.003906 186.984375 59.449219 186.984375 61.496094 C 186.984375 63.492188 186.1875 64.9375 183.953125 64.9375 L 181.914062 64.9375 L 181.914062 58.003906 Z M 182.558594 64.386719 L 183.953125 64.386719 C 185.640625 64.386719 186.339844 63.289062 186.339844 61.496094 C 186.339844 59.75 185.640625 58.601562 183.953125 58.601562 L 182.558594 58.601562 Z M 182.558594 64.386719 " fill-opacity="1" fill-rule="nonzero"/><path fill="#001f5f" d="M 188.425781 60.546875 L 188.921875 58.003906 L 189.71875 58.003906 L 188.972656 60.546875 Z M 188.425781 60.546875 " fill-opacity="1" fill-rule="nonzero"/><path fill="#001f5f" d="M 189.867188 64.9375 L 192.351562 58.003906 L 192.996094 58.003906 L 195.480469 64.9375 L 194.785156 64.9375 L 194.039062 62.742188 L 191.304688 62.742188 L 190.5625 64.9375 Z M 192.652344 58.800781 L 191.457031 62.191406 L 193.84375 62.191406 Z M 192.652344 58.800781 " fill-opacity="1" fill-rule="nonzero"/><path fill="#001f5f" d="M 196.921875 63.140625 C 196.976562 63.789062 197.519531 64.535156 198.765625 64.535156 C 199.808594 64.535156 200.503906 63.988281 200.503906 63.191406 C 200.503906 62.492188 200.058594 62.144531 199.160156 61.890625 L 198.066406 61.59375 C 197.222656 61.34375 196.480469 60.847656 196.480469 59.800781 C 196.480469 58.550781 197.519531 57.851562 198.765625 57.851562 C 200.007812 57.851562 201.050781 58.503906 201.050781 59.75 L 200.402344 59.75 C 200.355469 59.097656 199.859375 58.453125 198.765625 58.453125 C 197.820312 58.453125 197.125 58.949219 197.125 59.75 C 197.125 60.347656 197.519531 60.746094 198.269531 60.945312 L 199.363281 61.246094 C 200.503906 61.542969 201.199219 61.992188 201.199219 63.089844 C 201.199219 64.386719 200.105469 65.085938 198.710938 65.085938 C 196.921875 65.085938 196.328125 63.988281 196.277344 63.089844 L 196.921875 63.089844 Z M 196.921875 63.140625 " fill-opacity="1" fill-rule="nonzero"/><path fill="#001f5f" d="M 202.988281 63.140625 C 203.039062 63.789062 203.585938 64.535156 204.828125 64.535156 C 205.871094 64.535156 206.566406 63.988281 206.566406 63.191406 C 206.566406 62.492188 206.121094 62.144531 205.226562 61.890625 L 204.132812 61.59375 C 203.289062 61.34375 202.539062 60.847656 202.539062 59.800781 C 202.539062 58.550781 203.585938 57.851562 204.828125 57.851562 C 206.070312 57.851562 207.117188 58.503906 207.117188 59.75 L 206.46875 59.75 C 206.417969 59.097656 205.921875 58.453125 204.828125 58.453125 C 203.886719 58.453125 203.1875 58.949219 203.1875 59.75 C 203.1875 60.347656 203.585938 60.746094 204.328125 60.945312 L 205.425781 61.246094 C 206.566406 61.542969 207.265625 61.992188 207.265625 63.089844 C 207.265625 64.386719 206.171875 65.085938 204.777344 65.085938 C 202.988281 65.085938 202.390625 63.988281 202.34375 63.089844 L 202.988281 63.089844 Z M 202.988281 63.140625 " fill-opacity="1" fill-rule="nonzero"/><path fill="#001f5f" d="M 209.402344 62.542969 C 209.402344 63.738281 210.097656 64.488281 211.292969 64.488281 C 212.484375 64.488281 213.175781 63.738281 213.175781 62.542969 L 213.175781 58.003906 L 213.824219 58.003906 L 213.824219 62.542969 C 213.824219 64.089844 212.832031 65.085938 211.292969 65.085938 C 209.75 65.085938 208.753906 64.039062 208.753906 62.492188 L 208.753906 57.953125 L 209.402344 57.953125 Z M 209.402344 62.542969 " fill-opacity="1" fill-rule="nonzero"/><path fill="#001f5f" d="M 220.335938 60.046875 C 220.335938 61.148438 219.691406 61.742188 218.992188 61.945312 L 220.488281 64.984375 L 219.691406 64.984375 L 218.296875 62.09375 L 216.410156 62.09375 L 216.410156 64.984375 L 215.761719 64.984375 L 215.761719 58.003906 L 218.148438 58.003906 C 219.640625 58.003906 220.335938 58.949219 220.335938 60.046875 M 218.101562 61.496094 C 219.140625 61.496094 219.691406 60.945312 219.691406 60.097656 C 219.691406 59.152344 219.09375 58.648438 218.101562 58.648438 L 216.460938 58.648438 L 216.460938 61.542969 L 218.101562 61.542969 Z M 218.101562 61.496094 " fill-opacity="1" fill-rule="nonzero"/><path fill="#001f5f" d="M 221.429688 64.9375 L 223.914062 58.003906 L 224.5625 58.003906 L 227.046875 64.9375 L 226.351562 64.9375 L 225.605469 62.742188 L 222.871094 62.742188 L 222.125 64.9375 Z M 224.164062 58.800781 L 223.019531 62.191406 L 225.355469 62.191406 Z M 224.164062 58.800781 " fill-opacity="1" fill-rule="nonzero"/><path fill="#001f5f" d="M 228.339844 64.9375 L 228.339844 58.003906 L 228.988281 58.003906 L 232.714844 63.839844 L 232.761719 63.839844 L 232.761719 58.003906 L 233.410156 58.003906 L 233.410156 64.9375 L 232.761719 64.9375 L 229.035156 59.152344 L 228.988281 59.152344 L 228.988281 64.9375 Z M 228.339844 64.9375 " fill-opacity="1" fill-rule="nonzero"/><path fill="#001f5f" d="M 235.796875 62.09375 C 235.796875 63.640625 236.539062 64.535156 237.835938 64.535156 C 238.976562 64.535156 239.671875 63.789062 239.671875 62.988281 L 240.320312 62.988281 C 240.320312 63.988281 239.523438 65.132812 237.835938 65.132812 C 236.144531 65.132812 235.199219 63.988281 235.199219 62.09375 L 235.199219 60.996094 C 235.199219 59.152344 236.144531 57.90625 237.835938 57.90625 C 239.476562 57.90625 240.320312 59.097656 240.320312 60.148438 L 239.671875 60.148438 C 239.671875 59.398438 239.027344 58.503906 237.835938 58.503906 C 236.589844 58.503906 235.84375 59.449219 235.84375 60.996094 L 235.84375 62.09375 Z M 235.796875 62.09375 " fill-opacity="1" fill-rule="nonzero"/><path fill="#001f5f" d="M 246.035156 64.9375 L 242.007812 64.9375 L 242.007812 58.003906 L 246.035156 58.003906 L 246.035156 58.601562 L 242.652344 58.601562 L 242.652344 61.09375 L 245.835938 61.09375 L 245.835938 61.695312 L 242.652344 61.695312 L 242.652344 64.386719 L 246.035156 64.386719 Z M 246.035156 64.9375 " fill-opacity="1" fill-rule="nonzero"/><path fill="#001f5f" d="M 30.554688 21.796875 C 15.941406 21.796875 4.113281 33.714844 4.113281 48.328125 C 4.113281 62.988281 15.992188 74.859375 30.554688 74.859375 C 45.171875 74.859375 57 62.941406 57 48.328125 C 57 33.714844 45.117188 21.796875 30.554688 21.796875 M 30.554688 71.019531 C 18.128906 71.019531 7.988281 60.847656 7.988281 48.378906 C 7.988281 35.910156 18.128906 25.734375 30.554688 25.734375 C 42.984375 25.734375 53.121094 35.910156 53.121094 48.378906 C 53.121094 60.847656 42.984375 71.019531 30.554688 71.019531 " fill-opacity="1" fill-rule="nonzero"/><path fill="#001f5f" d="M 30.40625 27.332031 C 18.875 27.332031 9.433594 36.757812 9.433594 48.378906 C 9.433594 59.996094 18.824219 69.425781 30.40625 69.425781 C 41.988281 69.425781 51.382812 59.996094 51.382812 48.378906 C 51.433594 36.757812 41.988281 27.332031 30.40625 27.332031 M 30.40625 69.074219 C 19.023438 69.074219 9.777344 59.800781 9.777344 48.378906 C 9.777344 36.957031 19.023438 27.683594 30.40625 27.683594 C 41.789062 27.683594 51.035156 36.957031 51.035156 48.378906 C 51.035156 59.75 41.789062 69.074219 30.40625 69.074219 " fill-opacity="1" fill-rule="nonzero"/><path fill="#99999a" d="M 22.105469 34.613281 C 24.441406 30.972656 28.863281 30.625 28.863281 30.625 C 24.789062 29.328125 20.511719 32.867188 20.511719 32.867188 Z M 22.105469 34.613281 " fill-opacity="1" fill-rule="nonzero"/><path fill="#99999a" d="M 19.371094 52.417969 L 18.574219 48.925781 C 16.042969 49.226562 13.40625 53.714844 13.40625 53.714844 C 12.3125 51.421875 13.355469 47.230469 13.355469 47.230469 C 12.261719 48.976562 11.617188 50.773438 11.222656 52.46875 C 11.664062 54.5625 12.460938 56.558594 13.507812 58.355469 C 14.253906 52.167969 17.730469 50.324219 17.730469 50.324219 C 13.011719 56.605469 17.035156 62.691406 17.035156 62.691406 C 15.894531 57.804688 19.371094 52.417969 19.371094 52.417969 " fill-opacity="1" fill-rule="nonzero"/><path fill="#99999a" d="M 14.203125 50.773438 C 14.203125 50.773438 17.832031 48.078125 18.875 48.078125 C 18.875 48.078125 16.339844 47.53125 14.996094 48.730469 C 14.996094 48.730469 14.847656 47.730469 16.289062 44.289062 C 16.339844 44.238281 13.703125 47.230469 14.203125 50.773438 " fill-opacity="1" fill-rule="nonzero"/><path fill="#99999a" d="M 17.683594 46.433594 C 17.683594 46.433594 17.980469 43.539062 19.867188 41.546875 C 19.867188 41.546875 16.988281 42.640625 15.992188 47.183594 C 15.992188 47.183594 18.722656 46.832031 19.320312 47.382812 C 19.320312 47.382812 18.722656 46.285156 17.683594 46.433594 " fill-opacity="1" fill-rule="nonzero"/><path fill="#99999a" d="M 18.675781 37.109375 C 12.113281 41.394531 13.855469 48.476562 13.855469 48.476562 C 14.453125 43.441406 19.667969 39.902344 19.667969 39.902344 L 20.015625 39.652344 C 20.015625 39.652344 24.09375 37.257812 24.09375 33.867188 C 24.09375 33.867188 22.898438 36.558594 19.96875 36.058594 C 17.132812 35.460938 13.507812 38.804688 13.507812 38.804688 C 13.507812 38.753906 13.507812 38.65625 13.507812 38.601562 C 12.3125 40.699219 11.46875 42.992188 11.121094 45.433594 C 13.804688 37.757812 18.675781 37.109375 18.675781 37.109375 " fill-opacity="1" fill-rule="nonzero"/><path fill="#99999a" d="M 41.144531 36.058594 C 38.210938 36.558594 37.019531 33.867188 37.019531 33.867188 C 37.019531 37.257812 41.09375 39.652344 41.09375 39.652344 L 41.441406 39.902344 C 41.441406 39.902344 46.660156 43.441406 47.257812 48.476562 C 47.257812 48.476562 48.996094 41.394531 42.4375 37.109375 C 42.4375 37.109375 47.308594 37.804688 50.042969 45.386719 C 49.640625 42.941406 48.847656 40.648438 47.65625 38.554688 C 47.65625 38.601562 47.65625 38.703125 47.65625 38.753906 C 47.605469 38.753906 43.925781 35.460938 41.144531 36.058594 " fill-opacity="1" fill-rule="nonzero"/><path fill="#99999a" d="M 20.316406 35.0625 C 20.316406 35.0625 18.425781 33.867188 16.839844 34.214844 C 16.289062 34.765625 15.742188 35.3125 15.246094 35.960938 C 16.191406 35.660156 19.472656 34.765625 20.316406 35.0625 " fill-opacity="1" fill-rule="nonzero"/><path fill="#99999a" d="M 19.371094 33.117188 C 19.371094 33.117188 19.769531 32.121094 22.15625 30.972656 C 22.15625 30.972656 21.359375 31.074219 20.417969 31.46875 C 19.769531 31.769531 18.972656 32.21875 18.328125 32.917969 C 18.226562 33.015625 18.128906 33.117188 18.03125 33.265625 C 18.03125 33.265625 20.070312 34.164062 21.609375 35.261719 C 21.609375 35.261719 20.511719 33.316406 19.371094 33.117188 " fill-opacity="1" fill-rule="nonzero"/><path fill="#99999a" d="M 39.902344 63.089844 C 40.25 58.949219 37.863281 56.359375 37.863281 56.359375 C 37.960938 58.054688 37.066406 59.449219 37.066406 59.449219 C 38.507812 62.242188 36.96875 64.585938 36.917969 64.683594 C 37.414062 63.589844 36.71875 61.792969 36.71875 61.792969 C 35.179688 64.785156 32.792969 64.785156 32.792969 64.785156 C 32.792969 64.785156 30.507812 67.578125 28.320312 64.785156 C 28.320312 64.785156 25.933594 64.738281 24.394531 61.695312 C 24.394531 61.695312 23.695312 63.492188 24.191406 64.585938 C 24.144531 64.488281 22.601562 62.144531 24.042969 59.351562 C 24.042969 59.351562 23.148438 58.003906 23.246094 56.257812 C 23.246094 56.257812 20.863281 58.902344 21.210938 62.988281 C 21.210938 62.988281 18.875 58.648438 20.316406 54.511719 C 20.316406 54.511719 17.683594 59.097656 19.472656 64.636719 C 20.265625 65.1875 21.160156 65.683594 22.054688 66.132812 C 21.957031 64.785156 22.105469 63.238281 22.703125 61.84375 C 22.703125 61.84375 22.304688 63.886719 23.695312 66.832031 C 24.292969 67.027344 24.890625 67.230469 25.484375 67.429688 C 25.386719 66.832031 25.335938 66.230469 25.4375 65.933594 C 25.585938 65.335938 26.628906 66.433594 27.375 67.828125 C 28.269531 67.980469 29.164062 68.078125 30.058594 68.078125 C 29.910156 67.828125 29.808594 67.578125 29.808594 67.28125 L 30.652344 67.679688 L 31.550781 67.28125 C 31.550781 67.578125 31.449219 67.828125 31.300781 68.078125 C 32.195312 68.027344 33.140625 67.980469 33.984375 67.828125 C 34.730469 66.433594 35.773438 65.335938 35.921875 65.933594 C 36.023438 66.230469 35.972656 66.832031 35.875 67.429688 C 36.472656 67.28125 37.066406 67.082031 37.664062 66.832031 C 39.003906 63.886719 38.65625 61.84375 38.65625 61.84375 C 39.253906 63.238281 39.351562 64.738281 39.304688 66.132812 C 40.199219 65.683594 41.042969 65.1875 41.886719 64.636719 C 43.628906 59.097656 41.042969 54.511719 41.042969 54.511719 C 42.234375 58.75 39.902344 63.089844 39.902344 63.089844 " fill-opacity="1" fill-rule="nonzero"/><path fill="#99999a" d="M 30.554688 61.695312 C 30.257812 62.691406 29.066406 63.539062 29.066406 63.539062 C 29.808594 63.789062 30.554688 65.535156 30.554688 65.535156 C 30.554688 65.535156 31.300781 63.789062 32.046875 63.539062 C 31.996094 63.539062 30.855469 62.691406 30.554688 61.695312 " fill-opacity="1" fill-rule="nonzero"/><path fill="#99999a" d="M 47.65625 53.714844 C 47.65625 53.714844 45.023438 49.226562 42.484375 48.976562 L 41.691406 52.46875 C 41.691406 52.46875 45.171875 57.804688 44.027344 62.742188 C 44.027344 62.742188 48.054688 56.65625 43.328125 50.371094 C 43.328125 50.371094 46.8125 52.21875 47.554688 58.402344 C 48.601562 56.605469 49.394531 54.609375 49.84375 52.519531 C 49.492188 50.820312 48.796875 49.023438 47.703125 47.28125 C 47.703125 47.230469 48.75 51.421875 47.65625 53.714844 " fill-opacity="1" fill-rule="nonzero"/><path fill="#99999a" d="M 45.816406 35.960938 C 45.320312 35.359375 44.773438 34.765625 44.226562 34.214844 C 42.636719 33.867188 40.746094 35.0625 40.746094 35.0625 C 41.640625 34.765625 44.871094 35.710938 45.816406 35.960938 " fill-opacity="1" fill-rule="nonzero"/><path fill="#99999a" d="M 11.070312 47.082031 C 10.773438 48.429688 11.070312 50.921875 11.070312 50.921875 C 11.519531 47.730469 13.554688 42.992188 13.554688 42.992188 C 11.816406 44.335938 11.070312 47.082031 11.070312 47.082031 " fill-opacity="1" fill-rule="nonzero"/><path fill="#99999a" d="M 49.941406 47.082031 C 49.941406 47.082031 49.195312 44.289062 47.457031 43.042969 C 47.457031 43.042969 49.492188 47.777344 49.941406 50.972656 C 49.941406 50.972656 50.238281 48.429688 49.941406 47.082031 " fill-opacity="1" fill-rule="nonzero"/><path fill="#99999a" d="M 44.574219 43.941406 C 46.015625 47.382812 45.867188 48.378906 45.867188 48.378906 C 44.523438 47.183594 41.988281 47.730469 41.988281 47.730469 C 43.03125 47.730469 46.660156 50.421875 46.660156 50.421875 C 47.15625 46.933594 44.574219 43.941406 44.574219 43.941406 " fill-opacity="1" fill-rule="nonzero"/><path fill="#99999a" d="M 44.871094 46.882812 C 43.878906 42.34375 40.996094 41.296875 40.996094 41.296875 C 42.832031 43.292969 43.132812 46.183594 43.132812 46.183594 C 42.136719 46.035156 41.492188 47.082031 41.492188 47.082031 C 42.136719 46.53125 44.871094 46.882812 44.871094 46.882812 " fill-opacity="1" fill-rule="nonzero"/><path fill="#99999a" d="M 30.554688 39.402344 C 30.554688 39.402344 33.738281 35.011719 30.554688 30.125 C 27.375 35.011719 30.554688 39.402344 30.554688 39.402344 " fill-opacity="1" fill-rule="nonzero"/><path fill="#99999a" d="M 38.957031 34.613281 L 40.546875 32.867188 C 40.546875 32.867188 36.269531 29.328125 32.195312 30.625 C 32.246094 30.625 36.671875 30.972656 38.957031 34.613281 " fill-opacity="1" fill-rule="nonzero"/><path fill="#99999a" d="M 41.738281 33.117188 C 40.597656 33.265625 39.453125 35.261719 39.453125 35.261719 C 40.996094 34.164062 43.03125 33.265625 43.03125 33.265625 C 42.933594 33.167969 42.832031 33.015625 42.734375 32.917969 C 42.085938 32.21875 41.34375 31.769531 40.648438 31.46875 C 39.703125 31.023438 38.90625 30.972656 38.90625 30.972656 C 41.34375 32.121094 41.738281 33.117188 41.738281 33.117188 " fill-opacity="1" fill-rule="nonzero"/><path fill="#99999a" d="M 23.996094 37.308594 C 26.378906 36.808594 28.714844 39.453125 28.714844 39.453125 C 27.324219 34.664062 28.714844 31.769531 28.714844 31.769531 C 24.742188 34.261719 23.996094 37.308594 23.996094 37.308594 " fill-opacity="1" fill-rule="nonzero"/><path fill="#99999a" d="M 37.019531 37.308594 C 37.019531 37.308594 36.269531 34.261719 32.296875 31.722656 C 32.296875 31.722656 33.6875 34.613281 32.296875 39.402344 C 32.296875 39.402344 34.582031 36.808594 37.019531 37.308594 " fill-opacity="1" fill-rule="nonzero"/><path fill="#99999a" d="M 33.488281 59.25 C 33.488281 59.300781 33.488281 59.351562 33.488281 59.398438 C 33.886719 59.449219 34.285156 59.5 34.679688 59.546875 C 34.382812 60.644531 33.636719 60.699219 30.902344 59.949219 C 30.855469 59 31.300781 58.203125 31.996094 57.554688 C 32.691406 56.90625 32.992188 56.65625 33.441406 56.257812 C 34.085938 55.710938 33.386719 55.609375 33.191406 55.609375 L 27.824219 55.609375 C 27.625 55.609375 26.925781 55.710938 27.574219 56.257812 C 28.019531 56.65625 28.367188 56.90625 29.015625 57.554688 C 29.710938 58.203125 30.15625 59 30.109375 59.949219 C 27.375 60.746094 26.628906 60.644531 26.332031 59.546875 C 26.726562 59.5 27.128906 59.449219 27.523438 59.398438 C 27.523438 59.351562 27.523438 59.300781 27.523438 59.25 C 26.828125 59.050781 26.183594 58.851562 25.386719 58.601562 C 25.484375 60.746094 26.28125 61.394531 28.167969 60.996094 C 29.015625 60.796875 29.863281 60.496094 30.507812 61.441406 C 31.152344 60.496094 31.996094 60.796875 32.84375 60.996094 C 34.730469 61.394531 35.527344 60.746094 35.625 58.601562 C 34.828125 58.851562 34.132812 59.050781 33.488281 59.25 M 30.707031 57.703125 C 30.652344 57.804688 30.554688 57.851562 30.507812 57.851562 C 30.40625 57.851562 30.359375 57.703125 30.359375 57.703125 C 30.359375 57.703125 30.007812 57.105469 29.015625 56.359375 C 28.863281 56.207031 29.015625 56.15625 29.015625 56.15625 L 31.945312 56.15625 C 31.945312 56.15625 32.296875 56.15625 31.996094 56.359375 C 31.699219 56.605469 31.003906 57.203125 30.707031 57.703125 " fill-opacity="1" fill-rule="nonzero"/><path fill="#99999a" d="M 22.253906 43.390625 C 22.75 42.84375 23.300781 42.34375 23.796875 41.746094 C 24.539062 40.796875 25.4375 40.25 26.628906 40.296875 C 26.976562 40.296875 27.273438 40.199219 27.722656 40.148438 C 27.175781 39.203125 26.480469 38.703125 25.585938 38.503906 C 23.894531 38.152344 22.652344 38.804688 21.558594 40.648438 C 20.761719 41.945312 19.917969 43.191406 19.125 44.4375 C 20.21875 44.488281 21.359375 44.4375 22.253906 43.390625 " fill-opacity="1" fill-rule="nonzero"/><path fill="#99999a" d="M 41.789062 44.4375 C 40.945312 43.089844 40.148438 41.695312 39.304688 40.351562 C 39.003906 39.902344 38.65625 39.453125 38.308594 39.050781 C 37.316406 37.855469 33.785156 38.253906 33.488281 40.199219 C 35.277344 39.699219 36.421875 40.597656 37.464844 41.898438 C 37.710938 42.191406 38.011719 42.445312 38.261719 42.792969 C 39.15625 43.988281 40.347656 44.488281 41.789062 44.4375 " fill-opacity="1" fill-rule="nonzero"/><path fill="#99999a" d="M 24.394531 56.007812 C 24.640625 57.054688 25.585938 57.851562 26.925781 57.90625 C 24.441406 56.605469 24.9375 54.511719 25.285156 52.367188 C 24.09375 52.867188 23.648438 52.21875 23.246094 51.371094 C 22.105469 49.125 22.054688 46.734375 22.253906 44.238281 C 22.105469 44.636719 21.957031 45.039062 21.859375 45.433594 C 21.261719 47.878906 21.804688 49.921875 22.75 52.167969 C 23.300781 53.363281 24.292969 53.316406 24.394531 56.007812 " fill-opacity="1" fill-rule="nonzero"/><path fill="#99999a" d="M 36.617188 56.007812 C 36.71875 53.316406 37.710938 53.363281 38.210938 52.167969 C 39.15625 49.921875 39.703125 47.878906 39.105469 45.433594 C 39.003906 45.039062 38.855469 44.636719 38.707031 44.238281 C 38.90625 46.734375 38.855469 49.125 37.710938 51.371094 C 37.316406 52.167969 36.820312 52.867188 35.675781 52.367188 C 36.074219 54.511719 36.519531 56.605469 34.035156 57.90625 C 35.425781 57.851562 36.371094 57.054688 36.617188 56.007812 " fill-opacity="1" fill-rule="nonzero"/><path fill="#99999a" d="M 27.574219 47.382812 C 27.625 47.332031 27.625 47.28125 27.375 47.082031 C 26.628906 46.582031 24.988281 45.488281 24.246094 45.039062 C 24.246094 45.039062 23.996094 44.886719 24.144531 45.039062 C 24.839844 45.785156 25.632812 46.882812 25.632812 46.882812 C 25.039062 46.882812 24.441406 46.882812 23.945312 46.882812 C 23.945312 46.882812 23.449219 46.832031 23.84375 47.128906 C 24.539062 47.679688 25.1875 48.730469 26.035156 48.675781 C 27.027344 48.628906 26.976562 49.472656 27.027344 50.222656 C 27.128906 51.320312 27.175781 52.417969 27.273438 53.515625 C 27.375 53.515625 27.476562 53.515625 27.625 53.515625 C 27.476562 51.769531 27.324219 50.023438 27.175781 48.28125 C 27.175781 47.980469 27.273438 47.777344 27.324219 47.53125 C 27.226562 47.480469 27.476562 47.429688 27.574219 47.382812 " fill-opacity="1" fill-rule="nonzero"/><path fill="#99999a" d="M 36.820312 45.039062 C 36.023438 45.488281 34.382812 46.582031 33.6875 47.082031 C 33.441406 47.28125 33.441406 47.332031 33.488281 47.382812 C 33.535156 47.429688 33.835938 47.480469 33.835938 47.480469 C 33.886719 47.777344 33.984375 47.980469 33.984375 48.226562 C 33.835938 49.976562 33.6875 51.71875 33.535156 53.464844 C 33.636719 53.464844 33.738281 53.464844 33.886719 53.464844 C 33.984375 52.367188 34.035156 51.269531 34.132812 50.175781 C 34.183594 49.425781 34.132812 48.578125 35.128906 48.628906 C 35.972656 48.675781 36.617188 47.632812 37.316406 47.082031 C 37.710938 46.78125 37.214844 46.832031 37.214844 46.832031 C 36.71875 46.832031 36.121094 46.832031 35.527344 46.832031 C 35.527344 46.832031 36.324219 45.785156 37.019531 44.984375 C 37.066406 44.886719 36.820312 45.039062 36.820312 45.039062 " fill-opacity="1" fill-rule="nonzero"/><path fill="#99999a" d="M 28.46875 42.84375 C 28.765625 44.089844 30.207031 44.839844 30.507812 46.183594 C 30.804688 44.886719 32.246094 44.089844 32.542969 42.84375 C 32.195312 43.144531 31.25 43.34375 30.507812 43.492188 C 29.761719 43.34375 28.816406 43.144531 28.46875 42.84375 " fill-opacity="1" fill-rule="nonzero"/></svg>