<svg xmlns="http://www.w3.org/2000/svg" xmlns:xlink="http://www.w3.org/1999/xlink" width="333" zoomAndPan="magnify" viewBox="0 0 249.75 96.749999" height="129" preserveAspectRatio="xMidYMid meet" version="1.0"><defs><clipPath id="8b03cabc7b"><path d="M 185 53 L 210.359375 53 L 210.359375 88 L 185 88 Z M 185 53 " clip-rule="nonzero"/></clipPath><clipPath id="a7d2e1bb1b"><path d="M 175 90 L 201 90 L 201 96.5 L 175 96.5 Z M 175 90 " clip-rule="nonzero"/></clipPath><clipPath id="33bf2b8aa3"><path d="M 178 96 L 181 96 L 181 96.5 L 178 96.5 Z M 178 96 " clip-rule="nonzero"/></clipPath><clipPath id="d41c193403"><path d="M 160 91 L 168 91 L 168 96.5 L 160 96.5 Z M 160 91 " clip-rule="nonzero"/></clipPath><clipPath id="26e8a73a7d"><path d="M 147 90 L 161 90 L 161 96.5 L 147 96.5 Z M 147 90 " clip-rule="nonzero"/></clipPath><clipPath id="03636ada84"><path d="M 87 92 L 95 92 L 95 96.5 L 87 96.5 Z M 87 92 " clip-rule="nonzero"/></clipPath><clipPath id="9373f45580"><path d="M 93 96 L 95 96 L 95 96.5 L 93 96.5 Z M 93 96 " clip-rule="nonzero"/></clipPath><clipPath id="30309773a2"><path d="M 80 93 L 87 93 L 87 96.5 L 80 96.5 Z M 80 93 " clip-rule="nonzero"/></clipPath><clipPath id="51854a981f"><path d="M 84 96 L 87 96 L 87 96.5 L 84 96.5 Z M 84 96 " clip-rule="nonzero"/></clipPath><clipPath id="a3da6ffe14"><path d="M 0.195312 0 L 125 0 L 125 91 L 0.195312 91 Z M 0.195312 0 " clip-rule="nonzero"/></clipPath></defs><path fill="#f47216" d="M 97.851562 61.28125 C 102.441406 61.28125 105.972656 64.460938 105.972656 69.410156 C 105.972656 75.0625 101.734375 79.65625 96.441406 79.65625 C 91.5 79.65625 88.324219 76.476562 88.324219 71.175781 C 88.324219 65.875 92.558594 61.28125 97.851562 61.28125 M 95.734375 87.785156 C 101.734375 87.785156 106.675781 85.664062 110.558594 81.421875 C 113.738281 77.890625 115.148438 73.648438 115.148438 68.703125 C 115.148438 59.515625 108.441406 53.152344 98.558594 53.152344 C 92.558594 53.152344 87.261719 55.628906 83.734375 59.515625 C 80.558594 63.046875 79.144531 67.289062 79.144531 72.234375 C 79.144531 76.828125 80.910156 81.070312 84.085938 83.898438 C 87.261719 86.722656 91.144531 87.785156 95.734375 87.785156 " fill-opacity="1" fill-rule="nonzero"/><path fill="#f47216" d="M 123.179688 53.910156 L 133.414062 53.910156 L 140.476562 70.167969 C 140.828125 71.582031 141.535156 73.347656 142.238281 75.820312 L 142.238281 75.113281 C 142.238281 73.699219 142.59375 71.933594 142.59375 70.519531 L 145.0625 53.910156 L 153.886719 53.910156 L 148.59375 87.128906 L 139.0625 87.128906 L 131.652344 70.167969 C 130.945312 68.753906 130.238281 66.988281 129.53125 64.867188 L 129.53125 65.925781 C 129.53125 67.691406 129.179688 69.105469 129.179688 70.519531 L 126.710938 87.128906 L 117.882812 87.128906 Z M 123.179688 53.910156 " fill-opacity="1" fill-rule="nonzero"/><path fill="#f47216" d="M 184.121094 64.625 C 181.652344 62.503906 178.472656 61.445312 175.296875 61.445312 C 169.648438 61.445312 165.765625 65.683594 165.765625 71.691406 C 165.765625 76.992188 168.945312 80.171875 174.238281 80.171875 C 176.710938 80.171875 179.179688 79.464844 181.652344 78.40625 L 180.59375 86.886719 C 178.472656 87.59375 175.652344 87.945312 172.472656 87.945312 C 162.945312 87.945312 156.941406 81.585938 156.941406 71.691406 C 156.941406 67.097656 158.355469 62.503906 161.179688 59.324219 C 164.355469 55.4375 169.648438 52.964844 175.652344 52.964844 C 179.535156 52.964844 182.710938 54.023438 185.535156 55.4375 Z M 184.121094 64.625 " fill-opacity="1" fill-rule="nonzero"/><g clip-path="url(#8b03cabc7b)"><path fill="#f47216" d="M 191.253906 53.910156 L 210.316406 53.910156 L 209.257812 61.332031 L 199.019531 61.332031 L 197.960938 66.988281 L 207.492188 66.988281 L 206.433594 74.054688 L 196.902344 74.054688 L 194.785156 87.128906 L 185.960938 87.128906 Z M 191.253906 53.910156 " fill-opacity="1" fill-rule="nonzero"/></g><path fill="#7b7979" d="M 202.988281 94.816406 C 202.988281 94.109375 201.574219 92.339844 201.574219 91.988281 L 201.222656 92.695312 C 201.574219 93.402344 202.988281 95.523438 202.988281 95.875 L 203.339844 95.875 L 203.339844 95.523438 C 202.988281 95.167969 202.988281 94.816406 202.988281 94.816406 Z M 202.988281 94.816406 " fill-opacity="1" fill-rule="nonzero"/><g clip-path="url(#a7d2e1bb1b)"><path fill="#7b7979" d="M 199.8125 93.753906 C 199.457031 93.402344 199.457031 93.046875 199.105469 92.695312 L 199.105469 92.339844 L 199.457031 91.988281 L 198.753906 91.28125 L 198.398438 91.636719 L 198.398438 91.988281 C 198.398438 92.339844 198.753906 92.695312 199.105469 93.046875 C 199.457031 93.753906 199.8125 94.109375 199.8125 94.109375 C 199.8125 94.460938 199.457031 94.460938 199.105469 94.460938 C 199.105469 94.460938 198.398438 94.460938 198.398438 94.460938 C 197.691406 94.460938 196.988281 94.460938 196.988281 94.460938 C 196.988281 94.460938 196.632812 94.460938 196.28125 94.109375 C 195.929688 93.753906 195.574219 93.753906 195.574219 93.753906 L 195.222656 94.109375 L 194.515625 94.816406 C 194.164062 95.167969 193.457031 95.167969 193.105469 95.167969 C 191.691406 95.167969 190.28125 94.460938 188.867188 93.753906 C 188.867188 93.753906 186.75 93.046875 187.105469 93.046875 C 187.105469 93.046875 187.457031 92.695312 187.808594 92.695312 C 188.164062 92.695312 189.929688 91.988281 190.28125 91.636719 C 190.632812 91.28125 190.632812 91.28125 190.632812 90.574219 C 188.164062 91.28125 186.75 91.988281 186.75 92.695312 L 186.75 93.046875 C 186.75 93.402344 187.105469 93.402344 187.457031 93.753906 C 187.457031 93.753906 189.222656 94.460938 189.222656 94.460938 C 189.574219 94.816406 187.457031 94.816406 186.75 94.816406 L 185.339844 94.816406 L 184.984375 94.460938 C 184.632812 94.816406 183.925781 94.816406 183.222656 94.816406 L 182.867188 94.816406 C 182.515625 94.816406 181.457031 94.816406 181.457031 94.460938 C 180.75 95.523438 175.808594 95.523438 175.457031 94.109375 L 175.457031 93.753906 L 175.101562 94.460938 L 175.101562 94.816406 C 176.160156 96.933594 179.691406 96.230469 181.457031 95.523438 C 181.808594 95.875 182.164062 95.875 182.515625 95.875 L 183.222656 95.875 C 183.574219 95.875 183.925781 95.875 183.925781 95.875 L 184.632812 95.875 L 184.984375 95.523438 L 185.339844 95.875 L 186.75 95.875 C 187.105469 95.875 187.808594 95.875 188.164062 95.875 C 189.574219 95.875 189.925781 95.523438 189.925781 95.167969 L 189.574219 94.460938 C 189.925781 94.816406 190.632812 95.167969 190.988281 95.167969 C 192.398438 95.875 192.398438 95.875 193.457031 95.875 L 194.164062 95.875 L 194.515625 95.523438 C 194.871094 95.875 195.222656 95.875 195.222656 95.875 C 195.929688 96.230469 196.632812 96.582031 196.632812 95.523438 L 196.988281 95.875 L 198.398438 95.875 C 199.105469 95.875 199.457031 95.875 199.8125 95.875 C 200.164062 95.875 200.164062 95.523438 200.164062 95.167969 L 200.164062 94.460938 C 200.164062 94.460938 199.8125 94.109375 199.8125 93.753906 Z M 195.929688 95.167969 C 195.929688 95.167969 195.574219 95.167969 194.871094 94.816406 C 194.871094 94.460938 194.871094 94.460938 195.222656 94.460938 L 195.574219 94.816406 Z M 195.929688 95.167969 " fill-opacity="1" fill-rule="nonzero"/></g><path fill="#7b7979" d="M 184.28125 93.753906 L 184.984375 94.109375 L 185.339844 93.753906 L 184.28125 93.402344 L 184.28125 93.753906 L 183.222656 93.402344 L 183.222656 93.753906 L 183.925781 94.109375 Z M 184.28125 93.753906 " fill-opacity="1" fill-rule="nonzero"/><g clip-path="url(#33bf2b8aa3)"><path fill="#7b7979" d="M 178.984375 96.933594 L 179.691406 97.289062 L 180.042969 96.933594 L 179.339844 96.582031 Z M 178.984375 96.933594 " fill-opacity="1" fill-rule="nonzero"/></g><path fill="#7b7979" d="M 170.867188 94.816406 C 170.867188 94.460938 170.515625 94.109375 170.160156 93.402344 C 169.808594 92.695312 169.453125 91.988281 169.453125 91.988281 L 169.101562 92.695312 C 169.453125 93.402344 170.515625 95.523438 170.867188 95.875 L 171.21875 95.875 L 171.21875 95.523438 C 170.867188 95.167969 170.867188 94.816406 170.867188 94.816406 Z M 170.867188 94.816406 " fill-opacity="1" fill-rule="nonzero"/><g clip-path="url(#d41c193403)"><path fill="#7b7979" d="M 167.691406 93.753906 C 167.335938 93.402344 167.335938 93.046875 166.984375 92.695312 L 166.984375 92.339844 L 167.335938 91.988281 L 166.277344 91.28125 L 165.925781 91.636719 L 165.925781 91.988281 C 165.925781 92.34375 167.335938 94.109375 167.335938 94.460938 C 167.335938 94.816406 166.984375 94.816406 166.632812 94.816406 C 166.277344 94.816406 165.925781 94.816406 165.925781 94.816406 L 164.160156 94.816406 C 163.808594 94.109375 163.453125 93.753906 163.101562 93.753906 C 162.394531 93.753906 162.394531 95.167969 162.75 95.523438 C 163.101562 95.523438 163.453125 95.875 163.808594 95.875 C 163.453125 96.230469 163.453125 96.582031 163.101562 96.9375 C 162.75 97.289062 162.394531 97.289062 161.691406 97.289062 C 161.691406 97.289062 161.335938 97.289062 160.984375 97.289062 C 162.394531 97.996094 163.808594 97.996094 163.808594 96.230469 L 163.808594 95.875 L 165.925781 95.875 C 166.984375 95.875 167.691406 95.875 167.691406 95.167969 L 167.691406 94.460938 C 168.042969 94.460938 168.042969 94.109375 167.691406 93.753906 Z M 163.808594 95.167969 C 163.453125 95.167969 163.101562 95.167969 163.101562 94.816406 L 163.453125 94.816406 Z M 163.808594 95.167969 " fill-opacity="1" fill-rule="nonzero"/></g><g clip-path="url(#26e8a73a7d)"><path fill="#7b7979" d="M 159.925781 93.753906 L 159.21875 93.402344 C 158.511719 93.402344 157.808594 93.753906 157.808594 94.460938 C 157.808594 94.109375 157.453125 93.753906 157.453125 93.402344 C 157.453125 93.402344 157.453125 93.046875 157.101562 92.695312 L 156.746094 91.988281 L 157.101562 91.636719 L 156.394531 90.929688 L 156.042969 91.636719 L 156.042969 91.988281 C 156.042969 92.339844 157.101562 93.753906 157.453125 94.109375 L 157.453125 94.460938 C 157.101562 94.460938 156.746094 94.460938 156.042969 94.460938 C 156.042969 94.460938 155.6875 94.460938 155.6875 94.460938 L 155.335938 94.460938 L 154.984375 94.109375 C 154.628906 94.460938 153.925781 94.460938 153.21875 94.460938 C 153.21875 94.460938 153.21875 94.460938 152.863281 94.460938 C 151.453125 94.460938 150.394531 94.816406 150.394531 95.523438 L 150.394531 95.875 C 150.394531 96.230469 150.746094 96.230469 151.101562 96.230469 C 151.453125 96.230469 151.804688 96.230469 152.160156 96.230469 C 152.160156 96.230469 151.804688 96.582031 151.101562 96.582031 C 150.042969 96.582031 149.335938 96.582031 148.628906 96.582031 C 148.277344 96.582031 147.921875 96.230469 147.570312 95.875 C 147.570312 95.523438 147.570312 95.523438 147.570312 95.167969 L 147.21875 95.167969 C 147.21875 95.523438 147.21875 95.875 147.21875 95.875 L 147.21875 96.582031 C 147.921875 97.996094 150.042969 97.996094 151.453125 97.640625 C 152.160156 97.289062 152.511719 97.289062 152.511719 96.9375 C 152.511719 96.582031 152.160156 96.582031 151.804688 96.582031 C 151.453125 96.582031 151.453125 96.582031 151.101562 96.230469 L 150.746094 96.230469 C 150.746094 96.230469 150.746094 95.875 151.453125 95.875 C 151.804688 95.875 153.21875 95.875 153.570312 95.875 L 154.277344 95.875 L 154.628906 95.523438 L 154.984375 95.875 L 156.746094 95.875 C 159.570312 95.875 160.984375 95.523438 160.984375 94.460938 L 160.984375 94.109375 Z M 159.21875 94.816406 C 158.867188 94.816406 158.511719 94.816406 157.808594 94.816406 C 158.160156 94.460938 158.511719 94.109375 159.21875 94.109375 L 159.925781 94.109375 L 160.277344 94.460938 C 160.277344 94.816406 159.925781 94.816406 159.21875 94.816406 Z M 159.21875 94.816406 " fill-opacity="1" fill-rule="nonzero"/></g><path fill="#7b7979" d="M 154.277344 93.753906 L 153.570312 93.402344 L 153.570312 93.753906 L 154.277344 94.109375 Z M 154.277344 93.753906 " fill-opacity="1" fill-rule="nonzero"/><path fill="#7b7979" d="M 142.980469 93.753906 C 142.628906 93.402344 142.628906 93.046875 142.277344 92.695312 L 142.277344 92.339844 L 142.628906 91.988281 L 141.570312 91.28125 L 141.214844 91.636719 L 141.214844 91.988281 C 141.214844 92.34375 142.628906 94.109375 142.628906 94.460938 C 142.628906 94.816406 142.277344 94.816406 141.921875 94.816406 C 141.921875 94.816406 141.570312 94.816406 141.214844 94.816406 L 140.15625 94.816406 L 139.453125 94.460938 L 139.097656 94.109375 C 138.394531 92.695312 138.039062 91.988281 137.6875 91.28125 L 137.335938 91.636719 L 136.980469 91.988281 C 136.980469 92.34375 137.6875 93.753906 138.039062 94.109375 L 138.039062 94.460938 L 137.6875 94.816406 C 137.6875 94.816406 137.332031 94.816406 136.980469 94.816406 C 136.628906 94.816406 135.921875 94.816406 135.570312 94.816406 L 134.863281 94.816406 L 134.15625 94.460938 L 134.15625 94.816406 L 133.804688 94.816406 L 133.097656 94.460938 L 132.746094 94.816406 C 132.746094 94.816406 132.390625 94.816406 132.039062 94.816406 L 131.6875 94.816406 L 131.332031 94.460938 C 130.980469 94.816406 130.273438 94.816406 129.921875 94.816406 C 128.507812 94.816406 127.097656 94.109375 125.6875 93.402344 C 125.6875 93.402344 123.566406 92.695312 123.566406 92.695312 C 123.921875 91.988281 126.039062 91.988281 126.746094 91.28125 C 127.097656 90.929688 127.097656 90.929688 127.097656 90.222656 C 124.625 90.929688 123.214844 91.636719 123.214844 92.34375 L 123.214844 92.695312 C 123.214844 93.046875 123.566406 93.046875 123.921875 93.402344 C 123.921875 93.402344 124.273438 93.753906 124.980469 93.753906 C 125.332031 93.753906 125.6875 94.109375 125.6875 94.109375 C 126.039062 94.460938 123.921875 94.460938 123.214844 94.460938 L 122.863281 94.460938 C 122.15625 94.460938 122.15625 94.460938 121.449219 93.753906 C 121.097656 93.046875 120.390625 91.636719 119.683594 90.929688 L 119.683594 91.28125 C 119.683594 91.636719 120.039062 91.988281 120.039062 92.34375 C 120.390625 92.695312 120.390625 93.046875 120.390625 93.402344 L 120.390625 93.753906 C 120.390625 94.109375 120.039062 94.460938 119.683594 94.460938 C 118.980469 94.460938 115.800781 94.816406 115.097656 93.753906 L 115.097656 93.402344 L 115.097656 94.109375 C 115.449219 94.460938 115.800781 94.816406 116.15625 95.167969 C 116.859375 95.523438 119.683594 95.523438 120.039062 95.167969 C 120.742188 95.167969 121.097656 94.816406 121.097656 94.109375 C 121.449219 94.460938 121.804688 94.816406 121.804688 94.816406 C 122.15625 94.816406 122.507812 94.816406 122.863281 94.816406 C 123.214844 94.816406 123.921875 94.816406 124.273438 94.816406 C 125.6875 94.816406 126.039062 94.460938 126.039062 94.109375 L 125.6875 93.402344 C 126.039062 93.753906 126.746094 94.109375 127.097656 94.109375 C 128.15625 94.816406 128.507812 94.816406 129.214844 94.816406 C 129.570312 94.816406 129.921875 94.816406 129.921875 94.816406 L 130.273438 94.816406 L 130.628906 94.460938 C 130.980469 94.816406 132.039062 95.167969 132.390625 94.816406 L 132.746094 94.460938 L 133.097656 94.816406 L 133.453125 94.816406 L 133.804688 94.460938 L 133.804688 94.109375 L 134.511719 94.460938 L 135.214844 94.816406 L 136.628906 94.816406 C 137.335938 94.816406 137.6875 94.816406 137.6875 94.816406 L 138.039062 94.109375 L 138.039062 93.753906 L 138.746094 94.460938 C 139.097656 94.816406 140.15625 94.816406 140.511719 94.816406 C 140.863281 94.816406 141.21875 94.816406 141.570312 94.816406 C 141.921875 94.816406 141.921875 94.460938 141.921875 94.109375 L 141.921875 93.402344 C 143.335938 94.460938 143.335938 94.109375 142.980469 93.753906 Z M 142.980469 93.753906 " fill-opacity="1" fill-rule="nonzero"/><path fill="#7b7979" d="M 117.921875 94.109375 L 117.214844 94.109375 C 117.566406 94.109375 117.921875 94.460938 117.921875 94.109375 L 118.625 94.109375 L 118.980469 93.753906 L 118.625 93.402344 C 118.625 93.402344 118.273438 93.402344 118.273438 93.402344 L 117.921875 93.402344 C 117.921875 93.402344 117.921875 93.402344 118.273438 93.046875 L 117.921875 92.695312 C 117.566406 93.046875 117.214844 93.046875 117.214844 93.402344 L 117.214844 93.753906 L 117.921875 94.109375 L 118.273438 93.753906 C 118.273438 93.753906 118.273438 94.109375 117.921875 94.109375 Z M 117.921875 94.109375 " fill-opacity="1" fill-rule="nonzero"/><path fill="#7b7979" d="M 110.859375 93.046875 C 110.507812 92.339844 110.15625 91.636719 110.15625 91.636719 L 109.800781 92.339844 C 110.15625 93.046875 111.566406 95.167969 111.566406 95.523438 L 111.917969 95.523438 L 111.917969 95.167969 C 111.917969 94.816406 111.917969 94.460938 111.566406 94.109375 C 111.566406 94.460938 111.214844 93.753906 110.859375 93.046875 Z M 110.859375 93.046875 " fill-opacity="1" fill-rule="nonzero"/><path fill="#7b7979" d="M 108.390625 93.753906 C 108.035156 93.402344 108.035156 93.046875 107.683594 92.695312 L 107.683594 92.339844 L 108.035156 91.988281 L 107.332031 91.28125 L 106.976562 91.636719 L 106.976562 91.988281 C 106.976562 92.339844 107.332031 92.695312 107.683594 93.046875 C 108.035156 93.753906 108.390625 94.109375 108.390625 94.109375 C 108.390625 94.460938 108.035156 94.460938 107.683594 94.460938 L 106.625 94.460938 C 106.625 94.460938 105.917969 94.460938 105.917969 94.460938 C 105.214844 94.460938 104.859375 94.460938 104.507812 94.109375 L 105.214844 94.109375 L 105.214844 93.402344 C 103.800781 93.402344 103.800781 93.402344 102.742188 93.046875 C 102.035156 93.046875 101.332031 92.695312 100.976562 93.046875 L 100.976562 93.753906 C 102.035156 93.402344 102.035156 93.753906 103.09375 93.753906 C 101.683594 94.109375 101.683594 94.109375 100.269531 94.109375 C 99.566406 94.109375 99.210938 94.109375 98.859375 93.402344 C 98.507812 93.046875 98.507812 92.695312 98.152344 92.339844 L 97.800781 91.636719 L 97.449219 92.339844 L 97.449219 92.695312 C 97.800781 93.046875 98.152344 93.753906 98.152344 93.753906 L 98.152344 94.109375 L 97.800781 94.460938 C 97.800781 94.460938 97.449219 94.460938 97.09375 94.460938 L 96.386719 94.460938 L 96.035156 94.109375 C 96.035156 94.460938 96.035156 94.816406 96.035156 94.816406 C 96.035156 95.167969 97.800781 95.167969 98.152344 95.167969 L 98.507812 94.460938 C 99.210938 95.523438 99.917969 95.167969 100.976562 95.167969 C 101.683594 95.167969 102.035156 95.167969 102.390625 94.816406 L 103.449219 94.109375 C 103.800781 93.753906 104.152344 93.753906 104.507812 93.753906 L 104.507812 94.460938 C 104.507812 95.167969 106.625 95.167969 107.332031 95.167969 C 107.683594 95.167969 108.035156 95.167969 108.390625 95.167969 C 108.742188 95.167969 108.742188 94.816406 108.742188 94.460938 L 108.742188 93.753906 C 109.097656 94.460938 108.742188 94.109375 108.390625 93.753906 Z M 108.390625 93.753906 " fill-opacity="1" fill-rule="nonzero"/><g clip-path="url(#03636ada84)"><path fill="#7b7979" d="M 93.917969 95.875 C 94.269531 95.875 94.625 95.523438 94.625 95.167969 L 94.625 94.460938 C 94.625 94.109375 94.269531 93.753906 93.917969 93.402344 C 93.917969 93.753906 93.566406 94.109375 93.566406 94.109375 L 93.917969 94.460938 L 94.269531 94.816406 C 94.269531 94.816406 93.917969 95.167969 92.859375 95.167969 L 92.152344 95.167969 C 91.445312 95.167969 91.09375 95.167969 90.742188 94.460938 C 90.386719 94.109375 90.386719 93.753906 90.035156 93.402344 L 89.683594 92.695312 L 89.328125 93.402344 L 89.328125 93.753906 C 89.683594 94.109375 90.035156 94.816406 90.035156 94.816406 L 90.035156 95.167969 L 89.683594 95.523438 C 89.683594 95.523438 89.328125 95.523438 88.976562 95.523438 L 88.269531 95.523438 L 87.917969 95.167969 C 87.917969 95.523438 87.917969 95.875 87.917969 95.875 C 87.917969 96.230469 89.683594 96.230469 89.683594 96.230469 L 90.035156 95.523438 C 90.386719 95.875 90.742188 96.230469 90.742188 96.230469 C 91.09375 96.582031 92.152344 96.230469 92.503906 96.230469 C 93.210938 95.875 93.917969 95.875 93.917969 95.875 Z M 93.917969 95.875 " fill-opacity="1" fill-rule="nonzero"/></g><g clip-path="url(#9373f45580)"><path fill="#7b7979" d="M 94.269531 96.582031 L 93.210938 96.230469 L 93.210938 96.582031 L 93.917969 96.933594 L 94.269531 96.582031 L 94.976562 96.933594 L 94.976562 96.582031 L 94.269531 96.230469 Z M 94.269531 96.582031 " fill-opacity="1" fill-rule="nonzero"/></g><g clip-path="url(#30309773a2)"><path fill="#7b7979" d="M 85.445312 95.875 C 85.800781 95.875 86.152344 95.523438 86.152344 95.167969 L 86.152344 94.460938 C 86.152344 94.109375 85.800781 93.753906 85.445312 93.402344 C 85.445312 93.753906 85.09375 94.109375 85.09375 94.109375 L 85.800781 94.816406 C 85.800781 94.816406 85.445312 95.167969 84.386719 95.167969 L 82.621094 95.167969 L 82.269531 94.816406 C 81.917969 94.109375 81.5625 93.753906 81.5625 93.402344 L 81.210938 93.402344 L 81.210938 93.753906 L 81.5625 94.460938 C 81.210938 94.460938 80.859375 94.816406 80.859375 94.816406 L 80.503906 95.523438 L 80.503906 95.875 C 80.503906 96.230469 80.859375 96.230469 81.5625 96.230469 L 82.269531 95.523438 C 82.621094 95.875 82.976562 96.230469 82.976562 96.230469 C 82.976562 96.230469 84.035156 96.230469 84.386719 96.230469 C 85.09375 95.875 85.445312 95.875 85.445312 95.875 Z M 81.5625 94.816406 L 80.859375 94.816406 L 81.210938 94.460938 L 81.5625 94.109375 Z M 81.5625 94.816406 " fill-opacity="1" fill-rule="nonzero"/></g><g clip-path="url(#51854a981f)"><path fill="#7b7979" d="M 85.800781 96.582031 L 85.09375 96.230469 L 84.742188 96.582031 L 85.445312 96.933594 L 85.800781 96.582031 L 86.503906 96.933594 L 86.859375 96.582031 L 85.800781 96.230469 Z M 85.800781 96.582031 " fill-opacity="1" fill-rule="nonzero"/></g><path fill="#7b7979" d="M 81.210938 92.695312 L 81.5625 92.339844 L 80.503906 91.988281 L 80.503906 92.339844 L 79.796875 91.988281 L 79.445312 92.339844 L 80.152344 92.695312 L 80.503906 92.339844 Z M 81.210938 92.695312 " fill-opacity="1" fill-rule="nonzero"/><path fill="#f47216" d="M 37.710938 62.171875 C 37.003906 62.523438 36.296875 62.878906 35.589844 63.230469 C 47.59375 57.578125 59.242188 49.449219 68.066406 40.617188 C 68.417969 39.910156 69.476562 38.847656 70.183594 38.496094 C 74.417969 34.253906 80.066406 28.601562 83.949219 23.652344 C 86.066406 21.179688 88.183594 20.121094 88.183594 20.121094 C 88.890625 19.765625 89.597656 19.058594 89.242188 19.765625 C 88.539062 21.179688 86.066406 24.007812 86.066406 24.359375 C 86.066406 24.359375 86.773438 23.652344 87.125 23.300781 C 87.480469 23.652344 89.242188 21.886719 89.949219 21.535156 C 90.65625 21.179688 93.832031 17.292969 94.1875 16.941406 C 95.597656 15.171875 92.773438 21.886719 90.65625 24.359375 C 89.949219 25.773438 91.007812 24.714844 91.007812 24.714844 C 89.949219 25.773438 89.597656 26.835938 88.539062 27.894531 C 88.539062 27.894531 85.363281 31.78125 83.949219 33.546875 C 83.949219 33.546875 83.242188 34.253906 81.832031 36.023438 C 81.125 36.730469 81.125 36.730469 81.125 36.375 C 80.417969 36.730469 79.359375 38.140625 79.007812 38.496094 C 77.597656 39.554688 76.890625 40.617188 75.476562 41.675781 C 74.773438 42.382812 74.417969 42.734375 74.417969 42.734375 C 74.066406 43.796875 72.652344 44.503906 72.652344 44.855469 C 70.183594 46.621094 68.417969 48.390625 66.652344 50.15625 C 61.710938 54.398438 55.003906 58.992188 48.652344 62.523438 C 47.945312 62.878906 47.238281 63.230469 47.945312 62.523438 C 47.238281 63.230469 46.535156 63.585938 45.828125 63.9375 C 44.414062 64.644531 44.769531 63.9375 43.355469 64.996094 C 31.707031 70.296875 19 74.539062 5.941406 75.246094 C 9.117188 74.890625 11.589844 74.539062 14.765625 74.183594 C 14.765625 74.183594 14.765625 73.832031 15.472656 73.832031 C 20.414062 72.773438 25.707031 71.710938 27.824219 70.296875 C 28.53125 69.945312 29.238281 69.589844 31.707031 68.53125 L 29.589844 69.238281 L 29.589844 68.886719 C 32.769531 67.824219 36.296875 66.058594 39.121094 64.644531 L 39.121094 64.292969 L 40.53125 63.585938 C 41.59375 62.523438 33.828125 66.410156 29.945312 67.472656 L 29.945312 67.117188 L 31.355469 66.410156 C 26.765625 68.179688 23.238281 69.238281 18.296875 70.296875 C 19 70.296875 20.765625 69.945312 21.472656 69.589844 C 21.472656 69.589844 21.472656 69.589844 22.179688 69.238281 C 19 69.945312 15.117188 71.003906 11.941406 71.003906 C 11.234375 71.003906 11.941406 70.652344 14.058594 70.296875 C 16.53125 69.945312 17.941406 69.589844 20.058594 69.238281 C 18.648438 69.589844 16.175781 69.945312 14.765625 70.296875 C 14.058594 70.296875 16.175781 69.945312 15.472656 69.945312 C 14.765625 69.945312 14.058594 70.296875 13 70.296875 C 15.472656 69.945312 18.296875 69.589844 20.765625 68.886719 C 21.472656 68.53125 22.179688 68.179688 22.179688 68.179688 C 26.0625 67.117188 28.886719 66.058594 31.003906 64.644531 C 32.0625 64.644531 35.589844 63.230469 37.710938 62.171875 " fill-opacity="1" fill-rule="evenodd"/><g clip-path="url(#a3da6ffe14)"><path fill="#f47216" d="M 41.0625 72.914062 C 40.003906 73.265625 38.945312 73.972656 37.886719 74.328125 C 56.242188 65.847656 74.246094 53.480469 88.363281 40.40625 C 89.070312 39.699219 90.835938 37.929688 91.539062 36.871094 C 98.601562 30.15625 106.71875 21.675781 112.71875 14.253906 C 115.542969 10.722656 118.367188 8.25 118.367188 8.25 C 119.074219 7.1875 120.132812 6.480469 119.425781 7.542969 C 118.367188 9.660156 114.835938 14.253906 114.835938 14.609375 C 114.835938 14.609375 115.542969 13.546875 116.25 12.84375 C 116.601562 13.195312 119.074219 10.367188 119.777344 9.308594 C 120.484375 8.601562 125.074219 2.59375 124.015625 0.472656 C 123.660156 -0.234375 123.660156 -0.234375 124.015625 0.121094 C 124.71875 0.472656 125.074219 2.59375 124.367188 4.007812 C 123.660156 7.1875 121.542969 10.722656 120.484375 12.84375 C 119.074219 14.960938 120.835938 13.195312 120.835938 13.195312 C 119.425781 15.316406 118.71875 16.375 117.308594 18.140625 C 117.308594 18.140625 112.71875 24.148438 110.246094 26.625 C 110.246094 26.625 109.542969 27.683594 106.71875 30.15625 C 106.011719 31.21875 105.660156 30.863281 105.660156 30.863281 C 104.601562 31.570312 103.1875 33.335938 102.128906 34.398438 C 100.363281 36.164062 98.601562 37.929688 96.835938 39.34375 C 95.777344 40.050781 95.070312 41.109375 95.070312 41.109375 C 94.363281 42.171875 92.246094 43.585938 92.246094 43.585938 C 88.714844 46.765625 85.890625 49.238281 83.070312 51.710938 C 76.363281 58.78125 66.125 65.847656 56.59375 71.148438 C 55.535156 71.5 54.125 72.207031 55.183594 71.5 L 52.007812 73.265625 C 49.890625 74.328125 50.949219 73.621094 48.476562 74.679688 C 39.652344 78.921875 30.476562 82.453125 20.945312 85.28125 C 11.765625 88.109375 2.238281 90.582031 -8 90.582031 C -3.058594 90.582031 0.824219 89.875 5.765625 88.816406 C 5.765625 88.816406 5.765625 88.460938 6.824219 88.460938 C 13.886719 87.046875 22.355469 84.574219 25.535156 83.160156 C 26.945312 82.808594 28.003906 82.101562 31.179688 81.042969 L 27.652344 82.101562 L 27.652344 81.75 C 32.238281 79.980469 37.886719 77.859375 42.476562 75.742188 L 42.476562 75.386719 L 44.59375 74.679688 C 46.710938 73.265625 34.359375 78.921875 28.710938 80.6875 L 28.710938 80.335938 L 30.828125 79.628906 C 23.769531 81.75 18.121094 83.515625 11.0625 85.28125 C 12.121094 84.929688 14.589844 84.574219 15.648438 84.222656 C 15.648438 84.222656 15.648438 84.222656 16.707031 83.867188 C 12.121094 85.28125 6.121094 86.695312 1.53125 87.046875 C 0.472656 87.046875 1.53125 86.695312 5.0625 85.988281 C 8.589844 85.28125 11.0625 84.929688 14.589844 83.867188 C 12.121094 84.574219 8.945312 85.28125 6.472656 85.636719 C 5.414062 85.636719 8.945312 84.929688 7.53125 84.929688 C 6.472656 85.28125 5.0625 85.28125 4 85.636719 C 7.53125 84.929688 12.121094 83.867188 15.648438 82.808594 C 16.707031 82.453125 17.769531 82.101562 17.769531 81.75 C 23.414062 79.980469 28.003906 78.214844 31.179688 76.800781 C 32.238281 76.449219 37.886719 74.328125 41.0625 72.914062 " fill-opacity="1" fill-rule="evenodd"/></g><path fill="#f47216" d="M 34.132812 48.089844 L 33.074219 48.796875 C 38.722656 45.261719 44.722656 41.726562 49.3125 37.488281 L 50.371094 36.429688 C 52.488281 33.953125 55.3125 31.480469 57.078125 29.359375 C 57.78125 28.652344 58.839844 27.945312 58.839844 27.945312 C 59.195312 27.59375 59.546875 27.59375 59.546875 27.945312 C 59.546875 28.652344 58.488281 30.066406 58.839844 30.421875 L 59.195312 29.714844 C 59.546875 30.066406 60.605469 29.359375 60.605469 29.007812 C 61.3125 28.652344 62.371094 26.535156 62.019531 25.828125 C 62.019531 25.121094 62.371094 25.472656 62.722656 26.886719 C 63.078125 28.300781 62.722656 29.714844 62.371094 30.773438 C 62.019531 31.480469 62.722656 31.128906 63.078125 31.128906 C 62.371094 31.835938 62.371094 32.539062 62.019531 32.894531 C 62.019531 32.894531 60.605469 35.015625 59.546875 36.074219 C 59.546875 36.074219 59.195312 36.429688 58.136719 37.132812 L 57.78125 37.488281 C 57.429688 37.839844 57.078125 38.546875 56.722656 38.546875 C 56.015625 39.253906 55.3125 39.960938 54.605469 40.316406 C 54.605469 40.667969 54.253906 41.023438 54.253906 41.023438 L 53.546875 42.082031 C 52.132812 42.789062 51.074219 43.847656 50.015625 44.554688 C 47.546875 46.675781 44.367188 48.796875 40.839844 50.5625 C 40.484375 50.914062 40.132812 50.914062 40.484375 50.5625 L 39.425781 50.914062 C 38.722656 51.269531 39.074219 50.914062 38.367188 51.269531 C 32.367188 54.097656 27.074219 57.628906 19.660156 58.335938 C 21.777344 57.984375 22.835938 57.628906 24.601562 57.277344 C 24.601562 57.277344 24.601562 56.921875 24.957031 56.921875 C 27.074219 56.214844 29.542969 55.15625 30.601562 54.449219 C 30.957031 54.097656 31.308594 53.742188 32.367188 53.390625 L 31.308594 53.742188 L 31.308594 53.390625 C 32.722656 52.683594 34.484375 51.621094 35.898438 50.914062 L 35.898438 50.5625 L 36.601562 50.210938 C 36.957031 49.503906 33.074219 51.621094 31.308594 52.328125 L 31.308594 51.976562 L 32.015625 51.621094 C 29.898438 52.683594 28.132812 53.390625 26.015625 54.449219 C 26.367188 54.449219 27.074219 54.097656 27.425781 53.742188 C 27.425781 53.742188 27.425781 53.742188 27.777344 53.390625 C 25.660156 54.097656 23.894531 54.804688 22.484375 55.15625 C 22.132812 55.15625 22.484375 54.804688 23.542969 54.449219 C 24.601562 54.097656 25.308594 53.742188 26.367188 53.390625 C 25.660156 53.390625 24.601562 54.097656 23.542969 54.097656 C 23.191406 54.097656 24.25 53.742188 23.894531 53.742188 C 23.542969 53.742188 23.191406 54.097656 22.835938 54.097656 C 23.894531 53.742188 25.308594 53.390625 26.367188 52.683594 C 26.71875 52.683594 27.074219 52.328125 27.074219 52.328125 C 28.839844 51.621094 30.25 50.5625 30.957031 49.855469 C 31.308594 49.503906 33.074219 48.796875 34.132812 48.089844 " fill-opacity="1" fill-rule="evenodd"/></svg>