<svg xmlns="http://www.w3.org/2000/svg" xmlns:xlink="http://www.w3.org/1999/xlink" width="333" zoomAndPan="magnify" viewBox="0 0 249.75 96.749999" height="129" preserveAspectRatio="xMidYMid meet" version="1.0"><defs><clipPath id="bb85fb334c"><path d="M 0.195312 47 L 18 47 L 18 63 L 0.195312 63 Z M 0.195312 47 " clip-rule="nonzero"/></clipPath><clipPath id="f68bbf0de2"><path d="M 247 39 L 249.304688 39 L 249.304688 44 L 247 44 Z M 247 39 " clip-rule="nonzero"/></clipPath></defs><path fill="#201d22" d="M 233.292969 45.410156 C 233.578125 49.367188 233.484375 53.230469 234.277344 57.125 C 236.050781 55.351562 237.699219 53.609375 239.824219 52.28125 C 241.851562 51.046875 243.3125 51.488281 244.292969 53.675781 C 245.339844 55.828125 245.054688 58.234375 244.898438 60.546875 C 215.730469 61.019531 186.441406 61.019531 157.214844 61.335938 C 155.660156 61.371094 153.503906 60.988281 153.25 59.121094 C 152.519531 55.195312 152.933594 51.234375 152.996094 47.277344 C 152.996094 46.835938 153.1875 46.515625 153.410156 46.199219 C 153.726562 45.726562 154.042969 45.25 154.453125 44.648438 C 154.390625 48.765625 154.675781 52.820312 154.613281 56.9375 C 154.613281 57.632812 154.898438 57.949219 155.566406 58.109375 C 156.324219 58.265625 157.117188 58.328125 157.910156 58.328125 C 161.714844 58.296875 165.488281 58.328125 169.257812 58.234375 C 169.132812 54.910156 168.6875 51.585938 168.433594 48.257812 C 168.433594 48.132812 168.402344 47.972656 168.5 47.847656 C 168.941406 47.246094 169.355469 46.644531 169.828125 45.980469 C 170.148438 49.90625 170.050781 53.769531 170.8125 57.695312 C 172.839844 55.574219 174.742188 53.292969 177.566406 52.25 C 180.796875 51.300781 181.273438 55.859375 181.558594 58.074219 C 187.167969 58.234375 192.84375 57.980469 198.488281 58.011719 C 199.246094 58.011719 199.375 57.855469 199.183594 57.09375 C 198.960938 56.144531 198.457031 55.320312 197.949219 54.496094 C 197.726562 54.148438 197.695312 53.894531 197.917969 53.515625 C 198.265625 52.945312 198.550781 52.34375 198.898438 51.648438 C 199.722656 53.675781 200.199219 55.734375 200.421875 57.855469 C 205.808594 57.855469 211.136719 57.855469 216.523438 57.855469 C 216.300781 54.8125 216.015625 51.933594 215.765625 48.925781 C 215.699219 48.070312 215.636719 47.214844 215.542969 46.359375 C 215.542969 46.234375 215.476562 46.074219 215.574219 45.949219 C 216.050781 45.25 216.492188 44.523438 217.03125 43.730469 C 217.414062 48.480469 217.761719 53.136719 218.140625 57.726562 C 223.023438 57.726562 227.90625 57.726562 232.820312 57.726562 C 232.535156 54.371094 232.246094 51.171875 231.929688 47.847656 C 231.898438 47.53125 231.960938 47.277344 232.152344 46.992188 C 232.535156 46.550781 232.882812 46.042969 233.292969 45.410156 Z M 243.691406 57.539062 C 243.628906 56.113281 243.121094 54.972656 242.105469 54.085938 C 241.820312 53.832031 241.472656 53.800781 241.09375 53.832031 C 239.917969 53.925781 238.9375 54.433594 238.082031 55.226562 C 237.382812 55.859375 236.65625 56.523438 235.957031 57.1875 C 235.863281 57.285156 235.703125 57.316406 235.734375 57.539062 C 238.398438 57.757812 240.996094 57.789062 243.691406 57.539062 Z M 180.257812 58.042969 C 180.195312 56.652344 179.65625 55.542969 178.707031 54.65625 C 177.691406 53.800781 175.503906 54.910156 174.679688 55.699219 C 173.949219 56.367188 173.222656 57.0625 172.492188 57.757812 C 172.398438 57.824219 172.269531 57.886719 172.335938 58.074219 C 174.933594 58.265625 177.566406 58.296875 180.257812 58.042969 Z M 180.257812 58.042969 " fill-opacity="1" fill-rule="nonzero"/><path fill="#0093bd" d="M 135.941406 63.523438 C 132.105469 63.523438 128.429688 63.523438 124.75 63.523438 C 124.308594 63.523438 124.148438 63.269531 123.992188 62.984375 C 119.996094 56.335938 116.003906 49.652344 112.007812 43.003906 C 111.847656 42.75 111.691406 42.527344 111.882812 42.210938 C 113.785156 38.886719 115.683594 35.527344 117.652344 32.046875 C 123.769531 42.558594 129.824219 52.976562 135.941406 63.523438 Z M 135.941406 63.523438 " fill-opacity="1" fill-rule="nonzero"/><path fill="#0093bd" d="M 133.628906 34.074219 C 139.460938 43.824219 145.292969 53.546875 151.09375 63.300781 C 150.871094 63.585938 150.621094 63.460938 150.398438 63.460938 C 147.101562 63.460938 143.835938 63.460938 140.539062 63.492188 C 140.03125 63.492188 139.746094 63.332031 139.492188 62.890625 C 135.71875 56.554688 131.914062 50.253906 128.113281 43.953125 C 127.761719 43.382812 127.761719 43.003906 128.144531 42.433594 C 129.855469 39.804688 131.535156 37.175781 133.214844 34.546875 C 133.3125 34.390625 133.375 34.199219 133.628906 34.074219 Z M 133.628906 34.074219 " fill-opacity="1" fill-rule="nonzero"/><path fill="#201d22" d="M 69.339844 62.792969 C 68.070312 62.414062 67.089844 61.6875 66.296875 60.640625 C 63.824219 57.472656 61.351562 54.308594 58.878906 51.140625 C 58.75 50.984375 58.6875 50.730469 58.402344 50.761719 C 58.277344 50.917969 58.339844 51.109375 58.339844 51.265625 C 58.371094 54.023438 58.402344 56.777344 58.402344 59.53125 C 58.402344 60.449219 58.59375 61.273438 59.449219 61.78125 C 59.542969 61.875 59.542969 61.90625 59.574219 62.066406 C 58.179688 62.066406 56.785156 62.066406 55.359375 62.066406 C 55.265625 61.84375 55.484375 61.78125 55.613281 61.6875 C 56.214844 61.242188 56.5 60.640625 56.5 59.945312 C 56.46875 56.269531 56.4375 52.597656 56.40625 48.890625 C 56.40625 48.195312 56.121094 47.59375 55.550781 47.183594 C 55.421875 47.085938 55.234375 47.054688 55.328125 46.738281 C 56.40625 46.738281 57.515625 46.738281 58.59375 46.738281 C 58.6875 46.738281 58.75 46.800781 58.816406 46.867188 C 60.082031 48.796875 61.636719 50.539062 63.03125 52.375 C 64.488281 54.210938 65.882812 56.082031 67.375 57.855469 C 67.5625 57.726562 67.5 57.570312 67.5 57.410156 C 67.46875 54.59375 67.46875 51.773438 67.40625 48.957031 C 67.40625 48.164062 67.152344 47.4375 66.390625 47.023438 C 66.296875 46.960938 66.167969 46.867188 66.265625 46.675781 C 67.628906 46.675781 68.992188 46.675781 70.386719 46.675781 C 70.480469 46.867188 70.320312 46.929688 70.195312 46.992188 C 69.53125 47.4375 69.277344 48.070312 69.277344 48.828125 C 69.277344 53.292969 69.308594 57.757812 69.339844 62.222656 C 69.402344 62.445312 69.464844 62.636719 69.339844 62.792969 Z M 69.339844 62.792969 " fill-opacity="1" fill-rule="nonzero"/><path fill="#201d22" d="M 86.078125 46.550781 C 87.375 46.550781 88.582031 46.550781 89.816406 46.550781 C 90.070312 46.550781 90.101562 46.738281 90.167969 46.898438 C 91.972656 51.203125 93.71875 55.511719 95.554688 59.785156 C 95.871094 60.515625 96.347656 61.085938 97.046875 61.496094 C 97.171875 61.558594 97.265625 61.621094 97.171875 61.84375 C 95.554688 61.84375 93.90625 61.84375 92.257812 61.84375 C 92.257812 61.527344 92.480469 61.527344 92.640625 61.433594 C 92.988281 61.242188 93.144531 60.988281 92.988281 60.609375 C 92.449219 59.214844 91.910156 57.855469 91.402344 56.460938 C 91.308594 56.238281 91.179688 56.238281 90.992188 56.238281 C 89.34375 56.269531 87.664062 56.269531 86.015625 56.269531 C 85.792969 56.269531 85.695312 56.335938 85.632812 56.554688 C 85.222656 57.757812 84.746094 58.960938 84.367188 60.199219 C 84.078125 61.050781 84.175781 61.179688 84.96875 61.652344 C 85.09375 61.71875 85.125 61.78125 85.0625 61.972656 C 83.605469 61.972656 82.113281 61.972656 80.625 61.972656 C 80.5625 61.8125 80.65625 61.75 80.78125 61.6875 C 81.542969 61.273438 82.019531 60.609375 82.335938 59.816406 C 83.828125 56.015625 85.347656 52.21875 86.773438 48.417969 C 87.089844 47.5 87.058594 47.4375 86.265625 46.898438 C 86.171875 46.800781 86.171875 46.738281 86.078125 46.550781 Z M 88.421875 48.988281 C 87.726562 50.792969 87.089844 52.503906 86.425781 54.210938 C 87.820312 54.210938 89.121094 54.210938 90.515625 54.210938 C 89.816406 52.472656 89.121094 50.792969 88.421875 48.988281 Z M 88.421875 48.988281 " fill-opacity="1" fill-rule="nonzero"/><g clip-path="url(#bb85fb334c)"><path fill="#201d22" d="M 4.859375 62.605469 C 3.464844 62.605469 2.070312 62.605469 0.707031 62.605469 C 0.613281 62.605469 0.484375 62.605469 0.453125 62.476562 C 0.421875 62.382812 0.453125 62.289062 0.582031 62.222656 C 1.5 61.75 1.914062 60.925781 2.261719 60.039062 C 3.625 56.554688 4.988281 53.074219 6.351562 49.558594 C 6.636719 48.765625 7.269531 47.910156 6.035156 47.402344 C 6.066406 47.246094 6.128906 47.214844 6.191406 47.214844 C 7.332031 47.214844 8.472656 47.214844 9.617188 47.183594 C 9.964844 47.183594 9.964844 47.4375 10.058594 47.625 C 11.707031 51.617188 13.386719 55.636719 15.035156 59.628906 C 15.449219 60.609375 15.890625 61.589844 16.9375 62.128906 C 17.066406 62.191406 17.066406 62.289062 17 62.445312 C 15.386719 62.445312 13.769531 62.445312 12.121094 62.445312 C 12.023438 62.160156 12.308594 62.128906 12.46875 62.066406 C 12.878906 61.84375 13.007812 61.527344 12.816406 61.085938 C 12.308594 59.753906 11.769531 58.425781 11.265625 57.09375 C 11.167969 56.839844 11.011719 56.839844 10.820312 56.839844 C 9.171875 56.871094 7.523438 56.871094 5.875 56.871094 C 5.621094 56.871094 5.496094 56.96875 5.429688 57.222656 C 5.019531 58.394531 4.574219 59.5625 4.195312 60.769531 C 3.910156 61.621094 4.003906 61.78125 4.796875 62.257812 C 4.828125 62.320312 4.859375 62.382812 4.859375 62.605469 Z M 10.34375 54.910156 C 9.648438 53.136719 8.980469 51.457031 8.253906 49.652344 C 7.554688 51.488281 6.890625 53.167969 6.253906 54.910156 C 7.617188 54.910156 8.917969 54.910156 10.34375 54.910156 Z M 10.34375 54.910156 " fill-opacity="1" fill-rule="nonzero"/></g><path fill="#201d22" d="M 54.757812 62.160156 C 53.140625 62.160156 51.523438 62.160156 49.875 62.160156 C 49.78125 61.875 50.035156 61.84375 50.191406 61.78125 C 50.605469 61.558594 50.761719 61.273438 50.574219 60.800781 C 50.066406 59.46875 49.527344 58.140625 49.019531 56.808594 C 48.925781 56.585938 48.796875 56.523438 48.574219 56.523438 C 46.925781 56.523438 45.277344 56.554688 43.628906 56.554688 C 43.410156 56.554688 43.25 56.621094 43.1875 56.839844 C 42.773438 58.042969 42.296875 59.246094 41.917969 60.484375 C 41.632812 61.335938 41.726562 61.464844 42.519531 61.9375 C 42.617188 62.003906 42.648438 62.035156 42.648438 62.222656 C 41.15625 62.222656 39.667969 62.222656 38.175781 62.222656 C 38.113281 62.066406 38.210938 62.003906 38.335938 61.9375 C 39.128906 61.496094 39.605469 60.800781 39.921875 59.976562 C 41.253906 56.621094 42.550781 53.230469 43.882812 49.875 C 44.074219 49.429688 44.234375 48.988281 44.390625 48.511719 C 44.644531 47.785156 44.550781 47.59375 43.851562 47.183594 C 43.789062 47.152344 43.757812 47.085938 43.757812 46.992188 C 43.820312 46.835938 44.011719 46.898438 44.136719 46.898438 C 45.152344 46.898438 46.167969 46.898438 47.179688 46.867188 C 47.53125 46.867188 47.6875 46.992188 47.816406 47.308594 C 49.464844 51.265625 51.113281 55.257812 52.726562 59.214844 C 53.140625 60.261719 53.617188 61.242188 54.660156 61.84375 C 54.757812 61.875 54.820312 61.972656 54.757812 62.160156 Z M 48.132812 54.59375 C 47.433594 52.820312 46.769531 51.140625 46.039062 49.367188 C 45.34375 51.203125 44.675781 52.882812 44.042969 54.59375 C 45.40625 54.59375 46.707031 54.59375 48.132812 54.59375 Z M 48.132812 54.59375 " fill-opacity="1" fill-rule="nonzero"/><path fill="#0093bd" d="M 110.234375 45.503906 C 112.261719 48.828125 114.195312 52.027344 116.160156 55.226562 C 116.320312 55.480469 116.257812 55.667969 116.128906 55.890625 C 114.703125 58.265625 113.308594 60.640625 111.914062 63.015625 C 111.753906 63.300781 111.5625 63.523438 111.183594 63.523438 C 107.539062 63.523438 103.859375 63.523438 100.214844 63.523438 C 100.183594 63.523438 100.121094 63.492188 99.992188 63.425781 C 103.355469 57.472656 106.746094 51.550781 110.234375 45.503906 Z M 110.234375 45.503906 " fill-opacity="1" fill-rule="nonzero"/><path fill="#201d22" d="M 79.261719 61.972656 C 77.613281 61.972656 76.027344 61.972656 74.441406 61.972656 C 74.441406 61.875 74.441406 61.84375 74.441406 61.8125 C 75.394531 61.273438 75.425781 60.355469 75.425781 59.4375 C 75.394531 55.796875 75.394531 52.1875 75.300781 48.542969 C 73.652344 48.574219 71.96875 48.289062 70.605469 49.589844 C 70.574219 49.558594 70.542969 49.496094 70.480469 49.460938 C 70.765625 48.480469 71.019531 47.53125 71.273438 46.613281 C 75.140625 46.707031 78.945312 46.644531 82.75 46.515625 C 82.496094 47.46875 82.242188 48.417969 81.988281 49.398438 C 81.859375 49.367188 81.796875 49.398438 81.765625 49.367188 C 81.355469 48.640625 80.6875 48.511719 79.925781 48.511719 C 79.261719 48.511719 78.628906 48.511719 77.992188 48.511719 C 77.835938 48.734375 77.898438 48.925781 77.898438 49.113281 C 77.929688 52.40625 77.960938 55.667969 77.960938 58.960938 C 77.960938 60.039062 78.058594 61.085938 79.132812 61.6875 C 79.230469 61.75 79.230469 61.8125 79.261719 61.972656 Z M 79.261719 61.972656 " fill-opacity="1" fill-rule="nonzero"/><path fill="#201d22" d="M 21.757812 48.988281 C 21.628906 49.144531 21.695312 49.304688 21.695312 49.429688 C 21.726562 52.789062 21.757812 56.144531 21.757812 59.5 C 21.757812 60.546875 21.851562 61.558594 22.898438 62.128906 C 22.929688 62.160156 22.960938 62.257812 23.023438 62.382812 C 21.40625 62.382812 19.824219 62.382812 18.207031 62.382812 C 18.144531 62.289062 18.175781 62.191406 18.300781 62.128906 C 19.441406 61.527344 19.125 59.914062 19.15625 58.835938 C 19.125 55.765625 19.09375 52.691406 19.0625 49.621094 C 19.0625 49.429688 19.09375 49.242188 18.96875 49.019531 C 17.351562 48.988281 15.671875 48.796875 14.277344 50.0625 C 14.242188 50.03125 14.210938 49.96875 14.210938 49.9375 C 14.496094 48.988281 14.78125 48.003906 15.035156 47.121094 C 18.902344 47.152344 22.707031 47.121094 26.511719 46.960938 C 25.242188 51.902344 26.132812 49.050781 24.292969 48.988281 C 23.4375 48.957031 22.582031 48.988281 21.757812 48.988281 Z M 21.757812 48.988281 " fill-opacity="1" fill-rule="nonzero"/><path fill="#201d22" d="M 37.988281 59.027344 C 37.574219 60.101562 37.226562 61.085938 36.847656 62.097656 C 36.78125 62.257812 36.6875 62.351562 36.496094 62.351562 C 33.453125 62.320312 30.316406 62.476562 27.304688 62.351562 C 27.242188 62.257812 27.273438 62.160156 27.335938 62.097656 C 28.160156 61.71875 28.222656 60.925781 28.222656 60.199219 C 28.191406 56.398438 28.222656 52.597656 28.097656 48.796875 C 28.066406 48.195312 27.84375 47.625 27.242188 47.371094 C 27.175781 47.339844 27.175781 47.277344 27.082031 47.121094 C 28.667969 47.121094 30.15625 47.121094 31.679688 47.121094 C 31.679688 47.152344 31.710938 47.214844 31.679688 47.214844 C 30.824219 47.6875 30.695312 48.511719 30.726562 49.367188 C 30.757812 52.851562 30.757812 56.367188 30.792969 59.847656 C 30.792969 60.039062 30.757812 60.261719 31.046875 60.261719 C 33.359375 60.386719 35.515625 60.832031 37.449219 59.214844 C 37.605469 59.089844 37.640625 59.089844 37.988281 59.027344 Z M 37.988281 59.027344 " fill-opacity="1" fill-rule="nonzero"/><path fill="#0093bd" d="M 125.828125 40.277344 C 121.390625 35.71875 120.914062 27.707031 124.59375 20.898438 C 125.480469 22.070312 126.367188 23.242188 127.257812 24.382812 C 127.445312 24.636719 127.289062 24.890625 127.222656 25.140625 C 126.652344 26.980469 125.480469 30.875 127.699219 32.015625 C 128.398438 30.84375 129.0625 29.703125 129.824219 28.4375 C 130.363281 29.386719 130.839844 30.242188 131.3125 31.0625 C 131.410156 31.222656 131.3125 31.347656 131.25 31.476562 C 129.441406 34.355469 127.667969 37.269531 125.828125 40.277344 Z M 125.828125 40.277344 " fill-opacity="1" fill-rule="nonzero"/><path fill="#201d22" d="M 248.445312 44.015625 C 248.414062 49.496094 248.511719 54.972656 248.511719 60.546875 C 247.210938 59.40625 247.210938 57.789062 247.179688 56.269531 C 247.082031 53.230469 247.050781 50.191406 246.957031 47.183594 C 246.863281 45.882812 247.84375 45.027344 248.445312 44.015625 Z M 248.445312 44.015625 " fill-opacity="1" fill-rule="nonzero"/><path fill="#201d22" d="M 195.984375 48.449219 C 196.617188 47.878906 197.15625 47.308594 197.757812 46.800781 C 198.265625 47.308594 198.804688 47.816406 199.3125 48.355469 C 198.742188 48.859375 198.203125 49.367188 197.597656 49.9375 C 197.1875 49.527344 196.617188 49.050781 195.984375 48.449219 Z M 195.984375 48.449219 " fill-opacity="1" fill-rule="nonzero"/><g clip-path="url(#f68bbf0de2)"><path fill="#201d22" d="M 248.828125 39.328125 C 248.730469 39.773438 248.667969 40.183594 248.128906 40.121094 C 248.097656 40.121094 248.035156 40.152344 247.972656 40.183594 C 247.71875 40.34375 247.367188 40.5 247.464844 40.847656 C 247.558594 41.132812 247.90625 41.164062 248.191406 41.164062 C 248.511719 41.164062 248.828125 41.070312 249.113281 40.976562 C 249.082031 41.671875 248.414062 42.433594 247.273438 43.160156 C 247.210938 42.75 247.496094 42.464844 247.71875 42.179688 C 246.957031 41.449219 246.925781 40.976562 247.6875 39.898438 C 247.941406 39.519531 248.191406 39.109375 248.828125 39.328125 Z M 248.828125 39.328125 " fill-opacity="1" fill-rule="nonzero"/></g></svg>