<svg xmlns="http://www.w3.org/2000/svg" xmlns:xlink="http://www.w3.org/1999/xlink" width="333" zoomAndPan="magnify" viewBox="0 0 249.75 96.749999" height="129" preserveAspectRatio="xMidYMid meet" version="1.0"><path fill="#020303" d="M 151.117188 78.972656 L 151.117188 74.96875 L 149.542969 74.96875 L 149.542969 79.050781 C 149.542969 79.679688 149.9375 80.070312 150.644531 80.070312 L 157.109375 80.070312 C 157.816406 80.070312 158.210938 79.679688 158.210938 79.050781 L 158.210938 76.066406 L 156.636719 76.066406 L 156.636719 78.972656 L 151.117188 78.972656 " fill-opacity="1" fill-rule="nonzero"/><path fill="#020303" d="M 156.636719 75.203125 L 158.210938 75.203125 L 158.210938 73.871094 L 156.636719 73.871094 Z M 156.636719 75.203125 " fill-opacity="1" fill-rule="nonzero"/><path fill="#020303" d="M 154.035156 75.203125 L 155.609375 75.203125 L 155.609375 73.871094 L 154.035156 73.871094 Z M 154.035156 75.203125 " fill-opacity="1" fill-rule="nonzero"/><path fill="#020303" d="M 128.578125 76.773438 L 130.152344 76.773438 L 130.152344 75.441406 L 128.578125 75.441406 Z M 128.578125 76.773438 " fill-opacity="1" fill-rule="nonzero"/><path fill="#020303" d="M 138.746094 82.425781 L 140.320312 82.425781 L 140.320312 81.09375 L 138.746094 81.09375 Z M 138.746094 82.425781 " fill-opacity="1" fill-rule="nonzero"/><path fill="#020303" d="M 136.144531 82.425781 L 137.71875 82.425781 L 137.71875 81.09375 L 136.144531 81.09375 Z M 136.144531 82.425781 " fill-opacity="1" fill-rule="nonzero"/><path fill="#020303" d="M 147.097656 79.050781 L 144.890625 79.050781 L 144.890625 77.636719 C 146.785156 77.324219 147.175781 78.1875 147.097656 79.050781 M 148.203125 80.152344 C 148.203125 80.152344 149.148438 76.539062 145.679688 76.382812 C 145.050781 76.382812 144.183594 76.304688 143.472656 76.382812 L 143.472656 78.972656 L 139.058594 78.972656 L 139.058594 76.695312 L 137.484375 76.695312 L 137.484375 78.972656 L 133.386719 78.972656 L 133.386719 76.695312 L 131.886719 76.695312 L 131.886719 79.679688 C 131.886719 80.699219 131.574219 81.09375 130.152344 81.09375 L 128.8125 81.09375 C 127.949219 81.09375 127.082031 80.699219 127.082031 79.914062 L 127.082031 76.695312 L 125.582031 76.695312 L 125.582031 79.835938 C 125.582031 81.722656 127.316406 82.113281 128.8125 82.113281 L 130.152344 82.113281 C 132.28125 82.113281 133.386719 81.640625 133.386719 79.992188 L 148.203125 80.152344 " fill-opacity="1" fill-rule="nonzero"/><path fill="#020303" d="M 121.957031 80.152344 L 123.457031 80.152344 L 123.457031 72.691406 L 121.957031 72.691406 Z M 121.957031 80.152344 " fill-opacity="1" fill-rule="nonzero"/><path fill="#020303" d="M 113.132812 79.050781 L 110.925781 79.050781 C 110.84375 78.1875 111.238281 77.402344 113.132812 77.636719 Z M 119.199219 72.691406 L 119.199219 79.050781 L 114.472656 79.050781 L 114.472656 76.460938 C 113.761719 76.382812 112.894531 76.460938 112.265625 76.460938 C 108.796875 76.539062 109.742188 80.152344 109.742188 80.152344 L 113.132812 80.152344 C 113.132812 82.113281 109.113281 81.5625 108.558594 81.5625 L 108.558594 82.507812 C 111.003906 82.976562 114.550781 82.664062 114.550781 80.308594 L 114.550781 80.152344 L 119.75 80.152344 C 120.460938 80.152344 120.855469 79.757812 120.855469 79.128906 L 120.855469 72.769531 L 119.199219 72.769531 " fill-opacity="1" fill-rule="nonzero"/><path fill="#020303" d="M 106.273438 74.027344 L 107.851562 74.027344 L 107.851562 72.691406 L 106.273438 72.691406 Z M 106.273438 74.027344 " fill-opacity="1" fill-rule="nonzero"/><path fill="#020303" d="M 107.140625 77.246094 L 104.933594 77.246094 C 104.855469 76.304688 105.25 75.675781 107.140625 75.910156 Z M 106.351562 74.734375 C 102.808594 74.734375 103.832031 78.34375 103.832031 78.34375 L 107.140625 78.34375 L 107.140625 79.050781 L 99.023438 79.050781 L 99.023438 72.691406 L 97.527344 72.691406 L 97.527344 79.050781 C 97.527344 79.679688 97.921875 80.070312 98.628906 80.070312 L 107.535156 80.070312 C 108.246094 80.070312 108.640625 79.679688 108.640625 79.050781 L 108.640625 74.734375 L 106.351562 74.734375 " fill-opacity="1" fill-rule="nonzero"/><path fill="#020303" d="M 96.265625 79.050781 L 93.820312 79.050781 C 93.820312 78.1875 93.664062 77.796875 95.160156 77.796875 L 96.34375 77.796875 L 96.34375 76.617188 L 95.003906 76.617188 C 92.875 76.617188 92.5625 77.636719 92.5625 78.816406 L 92.5625 79.050781 L 91.617188 79.050781 L 91.617188 80.152344 L 96.34375 80.152344 L 96.34375 79.050781 " fill-opacity="1" fill-rule="nonzero"/><path fill="#020303" d="M 151.117188 73.949219 L 150.171875 73.949219 C 150.171875 73.554688 150.09375 73.320312 150.804688 73.320312 L 151.039062 73.320312 L 151.039062 72.769531 L 150.722656 72.769531 C 149.621094 72.769531 149.464844 73.242188 149.464844 73.871094 L 149.464844 73.949219 L 149.148438 73.949219 L 149.148438 74.496094 L 151.039062 74.496094 L 151.039062 73.949219 " fill-opacity="1" fill-rule="nonzero"/><path fill="#020303" d="M 105.09375 90.199219 C 104.933594 90.4375 104.621094 90.59375 104.304688 90.59375 C 103.910156 90.59375 103.59375 90.4375 103.59375 90.042969 C 103.59375 89.335938 104.382812 89.257812 104.933594 89.257812 L 105.40625 89.257812 C 105.328125 89.652344 105.328125 89.964844 105.09375 90.199219 M 106.433594 89.257812 L 106.433594 88.628906 C 106.433594 87.296875 105.878906 86.746094 104.460938 86.746094 C 103.988281 86.746094 103.359375 86.902344 102.886719 87.058594 L 102.886719 88.082031 C 103.28125 87.765625 103.753906 87.609375 104.304688 87.609375 C 105.011719 87.609375 105.328125 87.84375 105.328125 88.550781 L 104.699219 88.550781 C 104.226562 88.550781 103.59375 88.628906 103.199219 88.785156 C 102.726562 89.023438 102.414062 89.414062 102.414062 90.042969 C 102.414062 90.90625 103.199219 91.378906 103.988281 91.378906 C 104.539062 91.378906 105.09375 91.0625 105.40625 90.59375 C 105.40625 90.75 105.40625 91.0625 105.484375 91.300781 L 106.511719 91.300781 C 106.511719 90.984375 106.433594 90.671875 106.433594 90.277344 C 106.433594 90.042969 106.433594 89.652344 106.433594 89.257812 " fill-opacity="1" fill-rule="nonzero"/><path fill="#020303" d="M 107.535156 86.273438 L 107.535156 91.378906 L 108.71875 91.378906 L 108.71875 87.765625 L 109.742188 87.765625 L 109.742188 86.902344 L 108.71875 86.902344 L 108.71875 86.351562 C 108.71875 86.039062 108.875 85.648438 109.269531 85.648438 C 109.503906 85.648438 109.664062 85.726562 109.742188 85.804688 L 109.820312 84.863281 C 109.585938 84.78125 109.269531 84.78125 108.953125 84.78125 C 108.085938 84.703125 107.535156 85.332031 107.535156 86.273438 " fill-opacity="1" fill-rule="nonzero"/><path fill="#020303" d="M 112.972656 90.199219 C 112.816406 90.4375 112.5 90.59375 112.183594 90.59375 C 111.792969 90.59375 111.476562 90.4375 111.476562 90.042969 C 111.476562 89.335938 112.265625 89.257812 112.816406 89.257812 L 113.289062 89.257812 C 113.210938 89.652344 113.210938 89.964844 112.972656 90.199219 M 114.3125 89.257812 L 114.3125 88.628906 C 114.3125 87.296875 113.761719 86.746094 112.34375 86.746094 C 111.871094 86.746094 111.238281 86.902344 110.765625 87.058594 L 110.765625 88.082031 C 111.160156 87.765625 111.632812 87.609375 112.183594 87.609375 C 112.894531 87.609375 113.210938 87.84375 113.210938 88.550781 L 112.578125 88.550781 C 112.105469 88.550781 111.476562 88.628906 111.082031 88.785156 C 110.609375 89.023438 110.292969 89.414062 110.292969 90.042969 C 110.292969 90.90625 111.082031 91.378906 111.871094 91.378906 C 112.421875 91.378906 112.972656 91.0625 113.289062 90.59375 C 113.289062 90.75 113.289062 91.0625 113.367188 91.300781 L 114.390625 91.300781 C 114.390625 90.984375 114.3125 90.671875 114.3125 90.277344 C 114.3125 90.042969 114.3125 89.652344 114.3125 89.257812 " fill-opacity="1" fill-rule="nonzero"/><path fill="#020303" d="M 142.449219 90.199219 C 142.292969 90.4375 141.976562 90.59375 141.660156 90.59375 C 141.265625 90.59375 140.953125 90.4375 140.953125 90.042969 C 140.953125 89.335938 141.738281 89.257812 142.292969 89.257812 L 142.765625 89.257812 C 142.683594 89.652344 142.683594 89.964844 142.449219 90.199219 M 143.789062 89.257812 L 143.789062 88.628906 C 143.789062 87.296875 143.238281 86.746094 141.816406 86.746094 C 141.34375 86.746094 140.714844 86.902344 140.242188 87.058594 L 140.242188 88.082031 C 140.636719 87.765625 141.109375 87.609375 141.660156 87.609375 C 142.371094 87.609375 142.683594 87.84375 142.683594 88.550781 L 142.054688 88.550781 C 141.582031 88.550781 140.953125 88.628906 140.558594 88.785156 C 140.085938 89.023438 139.769531 89.414062 139.769531 90.042969 C 139.769531 90.90625 140.558594 91.378906 141.34375 91.378906 C 141.898438 91.378906 142.449219 91.0625 142.765625 90.59375 C 142.765625 90.75 142.765625 91.0625 142.84375 91.300781 L 143.867188 91.300781 C 143.867188 90.984375 143.789062 90.671875 143.789062 90.277344 C 143.789062 90.042969 143.789062 89.652344 143.789062 89.257812 " fill-opacity="1" fill-rule="nonzero"/><path fill="#020303" d="M 137.878906 87.921875 L 137.878906 86.902344 L 136.851562 86.902344 L 136.851562 91.378906 L 138.035156 91.378906 L 138.035156 89.730469 C 138.035156 89.101562 138.035156 87.921875 138.980469 87.921875 C 139.21875 87.921875 139.375 87.921875 139.53125 88 L 139.53125 86.824219 C 139.375 86.824219 139.296875 86.824219 139.140625 86.824219 C 138.429688 86.746094 137.957031 87.453125 137.878906 87.921875 " fill-opacity="1" fill-rule="nonzero"/><path fill="#020303" d="M 153.167969 87.84375 C 152.929688 87.765625 152.695312 87.6875 152.378906 87.6875 C 151.667969 87.6875 151.195312 88.238281 151.195312 89.101562 C 151.195312 89.964844 151.589844 90.59375 152.378906 90.59375 C 152.695312 90.59375 153.089844 90.4375 153.246094 90.355469 L 153.324219 91.300781 C 153.007812 91.378906 152.617188 91.457031 152.144531 91.457031 C 150.644531 91.457031 149.9375 90.4375 149.9375 89.101562 C 149.9375 87.84375 150.722656 86.746094 152.144531 86.746094 C 152.617188 86.746094 152.929688 86.824219 153.246094 86.902344 L 153.167969 87.84375 " fill-opacity="1" fill-rule="nonzero"/><path fill="#020303" d="M 157.109375 88.707031 C 157.109375 88.160156 156.792969 87.6875 156.160156 87.6875 C 155.53125 87.6875 155.136719 88.160156 155.136719 88.707031 Z M 157.894531 91.140625 C 157.5 91.378906 156.949219 91.535156 156.320312 91.535156 C 154.820312 91.535156 153.957031 90.671875 153.957031 89.179688 C 153.957031 87.84375 154.664062 86.824219 156.003906 86.824219 C 157.660156 86.824219 158.132812 88 158.132812 89.492188 L 155.058594 89.492188 C 155.136719 90.199219 155.609375 90.59375 156.320312 90.59375 C 156.871094 90.59375 157.34375 90.355469 157.816406 90.121094 L 157.816406 91.140625 " fill-opacity="1" fill-rule="nonzero"/><path fill="#020303" d="M 144.972656 86.902344 L 146.074219 86.902344 L 146.074219 87.53125 C 146.46875 86.980469 146.941406 86.824219 147.570312 86.824219 C 148.675781 86.824219 149.070312 87.609375 149.070312 88.550781 L 149.070312 91.378906 L 147.886719 91.378906 L 147.886719 89.023438 C 147.886719 88.472656 147.886719 87.765625 147.097656 87.765625 C 146.230469 87.765625 146.074219 88.707031 146.074219 89.257812 L 146.074219 91.457031 L 144.890625 91.457031 L 144.890625 86.902344 " fill-opacity="1" fill-rule="nonzero"/><path fill="#020303" d="M 126.214844 87.84375 C 125.820312 87.6875 125.582031 87.6875 125.1875 87.6875 C 124.875 87.6875 124.480469 87.765625 124.480469 88.160156 C 124.480469 88.867188 126.527344 88.394531 126.527344 90.042969 C 126.527344 91.0625 125.582031 91.535156 124.636719 91.535156 C 124.164062 91.535156 123.769531 91.457031 123.296875 91.378906 L 123.375 90.4375 C 123.769531 90.59375 124.164062 90.75 124.558594 90.75 C 124.875 90.75 125.347656 90.671875 125.347656 90.199219 C 125.347656 89.335938 123.296875 89.886719 123.296875 88.316406 C 123.296875 87.375 124.164062 86.902344 125.03125 86.902344 C 125.582031 86.902344 125.976562 86.980469 126.292969 87.058594 L 126.214844 87.84375 " fill-opacity="1" fill-rule="nonzero"/><path fill="#020303" d="M 130.152344 87.84375 C 129.761719 87.6875 129.523438 87.6875 129.128906 87.6875 C 128.8125 87.6875 128.421875 87.765625 128.421875 88.160156 C 128.421875 88.867188 130.46875 88.394531 130.46875 90.042969 C 130.46875 91.0625 129.523438 91.535156 128.578125 91.535156 C 128.105469 91.535156 127.710938 91.457031 127.238281 91.378906 L 127.316406 90.4375 C 127.710938 90.59375 128.105469 90.75 128.5 90.75 C 128.8125 90.75 129.289062 90.671875 129.289062 90.199219 C 129.289062 89.335938 127.238281 89.886719 127.238281 88.316406 C 127.238281 87.375 128.105469 86.902344 128.972656 86.902344 C 129.523438 86.902344 129.839844 86.980469 130.234375 87.058594 L 130.152344 87.84375 " fill-opacity="1" fill-rule="nonzero"/><path fill="#020303" d="M 135.671875 91.378906 L 134.566406 91.378906 L 134.566406 90.75 C 134.171875 91.222656 133.699219 91.457031 133.070312 91.457031 C 131.96875 91.457031 131.574219 90.75 131.574219 89.730469 L 131.574219 86.902344 L 132.753906 86.902344 L 132.753906 89.257812 C 132.753906 89.808594 132.753906 90.515625 133.542969 90.515625 C 134.410156 90.515625 134.566406 89.570312 134.566406 89.023438 L 134.566406 86.824219 L 135.75 86.824219 L 135.75 91.378906 " fill-opacity="1" fill-rule="nonzero"/><path fill="#020303" d="M 119.355469 86.117188 L 118.410156 88.785156 L 120.304688 88.785156 Z M 118.648438 84.863281 L 120.144531 84.863281 L 122.746094 91.378906 L 121.328125 91.378906 L 120.777344 89.886719 L 118.097656 89.886719 L 117.542969 91.378906 L 116.203125 91.378906 " fill-opacity="1" fill-rule="nonzero"/><path fill="#020303" d="M 101.386719 84.863281 C 101.386719 84.863281 100.046875 87.921875 99.574219 88.945312 C 99.101562 87.921875 97.839844 84.863281 97.839844 84.863281 L 96.421875 84.863281 C 96.421875 84.863281 95.082031 87.921875 94.609375 88.945312 C 94.136719 87.921875 92.875 84.863281 92.875 84.863281 L 91.457031 84.863281 L 94.136719 91.0625 C 94.296875 91.378906 94.453125 91.535156 94.609375 91.535156 C 94.769531 91.535156 95.003906 91.378906 95.082031 91.0625 L 97.054688 86.511719 L 99.023438 91.0625 C 99.179688 91.378906 99.339844 91.535156 99.496094 91.535156 C 99.652344 91.535156 99.890625 91.378906 99.96875 91.0625 L 102.648438 84.863281 L 101.386719 84.863281 " fill-opacity="1" fill-rule="nonzero"/><path fill="#f8b31f" d="M 157.894531 29.117188 L 157.894531 10.902344 C 157.894531 7.683594 155.375 5.015625 152.222656 5.015625 L 97.527344 5.015625 C 94.375 5.015625 91.851562 7.605469 91.851562 10.902344 L 91.851562 29.117188 L 125.03125 48.429688 " fill-opacity="1" fill-rule="nonzero"/><path fill="#5cad46" d="M 157.894531 29.117188 L 125.03125 48.351562 L 91.851562 29.039062 L 91.851562 64.371094 C 91.851562 67.589844 94.375 70.257812 97.527344 70.257812 L 152.222656 70.257812 C 155.375 70.257812 157.894531 67.667969 157.894531 64.371094 L 157.894531 29.117188 " fill-opacity="1" fill-rule="nonzero"/><path fill="#020303" d="M 125.03125 54.871094 C 125.820312 54.871094 126.765625 54.632812 127.632812 53.847656 L 157.894531 29.195312 L 148.359375 29.117188 C 148.359375 29.117188 146.230469 29.039062 143.316406 31.472656 L 125.03125 46.390625 " fill-opacity="1" fill-rule="nonzero"/><path fill="#020303" d="M 125.109375 54.871094 C 124.320312 54.871094 123.375 54.632812 122.507812 53.769531 L 91.851562 29.039062 L 101.78125 29.039062 C 101.78125 29.039062 103.910156 28.960938 106.824219 31.394531 L 125.109375 46.3125 " fill-opacity="1" fill-rule="nonzero"/><path fill="#020303" d="M 121.089844 29.511719 L 128.5 29.511719 L 128.5 21.972656 L 121.089844 21.972656 Z M 121.089844 29.511719 " fill-opacity="1" fill-rule="nonzero"/></svg>