<svg xmlns="http://www.w3.org/2000/svg" xmlns:xlink="http://www.w3.org/1999/xlink" width="333" zoomAndPan="magnify" viewBox="0 0 249.75 96.749999" height="129" preserveAspectRatio="xMidYMid meet" version="1.0"><defs><clipPath id="a8452ed1c2"><path d="M 71 87 L 78 87 L 78 94.652344 L 71 94.652344 Z M 71 87 " clip-rule="nonzero"/></clipPath><clipPath id="2d03afa717"><path d="M 77 87 L 87 87 L 87 94.652344 L 77 94.652344 Z M 77 87 " clip-rule="nonzero"/></clipPath><clipPath id="7dcb24689b"><path d="M 87 87 L 89 87 L 89 94.652344 L 87 94.652344 Z M 87 87 " clip-rule="nonzero"/></clipPath><clipPath id="758cbd16c0"><path d="M 89 87 L 96 87 L 96 94.652344 L 89 94.652344 Z M 89 87 " clip-rule="nonzero"/></clipPath><clipPath id="4c24af286b"><path d="M 96 87 L 103 87 L 103 94.652344 L 96 94.652344 Z M 96 87 " clip-rule="nonzero"/></clipPath><clipPath id="322d9de465"><path d="M 106 87 L 114 87 L 114 94.652344 L 106 94.652344 Z M 106 87 " clip-rule="nonzero"/></clipPath><clipPath id="2e3dad2de7"><path d="M 114 87 L 123 87 L 123 94.652344 L 114 94.652344 Z M 114 87 " clip-rule="nonzero"/></clipPath><clipPath id="44d9a490b1"><path d="M 124 87 L 132 87 L 132 94.652344 L 124 94.652344 Z M 124 87 " clip-rule="nonzero"/></clipPath><clipPath id="9ec54b4382"><path d="M 132 87 L 141 87 L 141 94.652344 L 132 94.652344 Z M 132 87 " clip-rule="nonzero"/></clipPath><clipPath id="ff9d922ed7"><path d="M 143.8125 87.796875 L 152.773438 87.796875 L 152.773438 94.652344 L 143.8125 94.652344 Z M 143.8125 87.796875 " clip-rule="nonzero"/></clipPath><clipPath id="f3108d2cb2"><path d="M 153 87 L 162 87 L 162 94.652344 L 153 94.652344 Z M 153 87 " clip-rule="nonzero"/></clipPath><clipPath id="c7cdf3b9fe"><path d="M 162 87 L 170 87 L 170 94.652344 L 162 94.652344 Z M 162 87 " clip-rule="nonzero"/></clipPath><clipPath id="07521626b5"><path d="M 170 87 L 179 87 L 179 94.652344 L 170 94.652344 Z M 170 87 " clip-rule="nonzero"/></clipPath><clipPath id="6c26854db6"><path d="M 28.742188 69 L 41 69 L 41 81 L 28.742188 81 Z M 28.742188 69 " clip-rule="nonzero"/></clipPath><clipPath id="d0a1c2a537"><path d="M 211.863281 69.777344 L 220.933594 69.777344 L 220.933594 80.65625 L 211.863281 80.65625 Z M 211.863281 69.777344 " clip-rule="nonzero"/></clipPath><clipPath id="b62e48beeb"><path d="M 90 1.890625 L 160 1.890625 L 160 63 L 90 63 Z M 90 1.890625 " clip-rule="nonzero"/></clipPath></defs><g clip-path="url(#a8452ed1c2)"><path fill="#7a7f7f" d="M 76.824219 91.734375 L 72.539062 91.734375 L 72.539062 90.574219 L 76.824219 90.574219 Z M 77.117188 89.015625 L 72.59375 89.015625 L 72.59375 94.546875 L 71.453125 94.546875 L 71.453125 87.84375 L 77.117188 87.84375 " fill-opacity="1" fill-rule="nonzero"/></g><g clip-path="url(#2d03afa717)"><path fill="#7a7f7f" d="M 86.5625 94.546875 L 85.089844 94.535156 L 83.996094 92.675781 L 80.335938 92.675781 L 81.023438 91.507812 L 83.304688 91.507812 L 82.160156 89.574219 L 79.207031 94.53125 L 77.734375 94.535156 L 81.300781 88.484375 C 81.390625 88.332031 81.515625 88.1875 81.667969 88.058594 C 81.867188 87.902344 82.039062 87.828125 82.191406 87.828125 C 82.355469 87.828125 82.53125 87.902344 82.710938 88.046875 C 82.863281 88.171875 82.988281 88.316406 83.089844 88.484375 " fill-opacity="1" fill-rule="nonzero"/></g><g clip-path="url(#7dcb24689b)"><path fill="#7a7f7f" d="M 87.292969 94.546875 L 88.433594 94.546875 L 88.433594 87.84375 L 87.292969 87.84375 Z M 87.292969 94.546875 " fill-opacity="1" fill-rule="nonzero"/></g><g clip-path="url(#758cbd16c0)"><path fill="#7a7f7f" d="M 95.890625 89.015625 L 93.304688 89.015625 L 93.304688 94.546875 L 92.167969 94.546875 L 92.167969 89.015625 L 89.574219 89.015625 L 89.574219 87.84375 L 95.890625 87.84375 " fill-opacity="1" fill-rule="nonzero"/></g><g clip-path="url(#4c24af286b)"><path fill="#7a7f7f" d="M 102.035156 91.734375 L 97.816406 91.734375 L 97.816406 90.574219 L 102.035156 90.574219 Z M 102.328125 94.546875 L 96.671875 94.546875 L 96.671875 87.84375 L 102.328125 87.84375 L 102.328125 89.015625 L 97.808594 89.015625 L 97.808594 93.382812 L 102.328125 93.382812 " fill-opacity="1" fill-rule="nonzero"/></g><g clip-path="url(#322d9de465)"><path fill="#7a7f7f" d="M 113.851562 90.265625 C 113.851562 90.996094 113.589844 91.59375 113.058594 92.046875 C 112.578125 92.460938 111.960938 92.675781 111.230469 92.675781 L 107.660156 92.675781 L 107.660156 91.507812 L 111.40625 91.507812 C 111.789062 91.507812 112.109375 91.394531 112.359375 91.164062 C 112.617188 90.941406 112.742188 90.628906 112.742188 90.253906 C 112.742188 89.867188 112.617188 89.566406 112.359375 89.34375 C 112.109375 89.121094 111.789062 89.015625 111.40625 89.015625 L 107.667969 89.015625 L 107.667969 94.546875 L 106.523438 94.546875 L 106.523438 87.84375 L 111.230469 87.84375 C 111.960938 87.84375 112.578125 88.0625 113.0625 88.484375 C 113.589844 88.933594 113.851562 89.523438 113.851562 90.265625 " fill-opacity="1" fill-rule="nonzero"/></g><g clip-path="url(#2e3dad2de7)"><path fill="#7a7f7f" d="M 121.820312 91.222656 C 121.820312 90.574219 121.617188 90.042969 121.214844 89.628906 C 120.8125 89.214844 120.285156 89.015625 119.65625 89.015625 L 117.824219 89.015625 C 117.191406 89.015625 116.671875 89.214844 116.265625 89.628906 C 115.863281 90.042969 115.65625 90.574219 115.65625 91.222656 C 115.65625 91.867188 115.863281 92.386719 116.265625 92.785156 C 116.671875 93.183594 117.191406 93.382812 117.824219 93.382812 L 119.65625 93.382812 C 120.285156 93.382812 120.8125 93.183594 121.214844 92.785156 C 121.617188 92.386719 121.820312 91.867188 121.820312 91.222656 M 122.964844 91.125 C 122.964844 92.113281 122.652344 92.925781 122.03125 93.574219 C 121.417969 94.222656 120.621094 94.546875 119.660156 94.546875 L 117.824219 94.546875 C 116.871094 94.546875 116.082031 94.222656 115.449219 93.574219 C 114.828125 92.925781 114.519531 92.113281 114.519531 91.125 C 114.519531 90.148438 114.828125 89.351562 115.445312 88.75 C 116.0625 88.152344 116.855469 87.84375 117.824219 87.84375 L 119.660156 87.84375 C 120.632812 87.84375 121.425781 88.152344 122.046875 88.75 C 122.652344 89.351562 122.964844 90.148438 122.964844 91.125 " fill-opacity="1" fill-rule="nonzero"/></g><g clip-path="url(#44d9a490b1)"><path fill="#7a7f7f" d="M 131.273438 91.53125 C 131.273438 92.617188 130.960938 93.40625 130.320312 93.898438 C 129.765625 94.332031 128.941406 94.546875 127.839844 94.546875 L 127.445312 94.546875 C 126.351562 94.546875 125.523438 94.332031 124.96875 93.898438 C 124.332031 93.40625 124.019531 92.617188 124.019531 91.53125 L 124.019531 87.84375 L 125.160156 87.84375 L 125.160156 91.539062 C 125.160156 92.34375 125.425781 92.875 125.976562 93.140625 C 126.332031 93.304688 126.953125 93.382812 127.839844 93.382812 C 128.589844 93.382812 129.136719 93.269531 129.480469 93.046875 C 129.914062 92.753906 130.140625 92.253906 130.140625 91.539062 L 130.140625 87.84375 L 131.273438 87.84375 " fill-opacity="1" fill-rule="nonzero"/></g><g clip-path="url(#9ec54b4382)"><path fill="#7a7f7f" d="M 140.332031 94.546875 L 138.640625 94.546875 L 136.8125 92.675781 L 133.6875 92.675781 L 133.6875 91.507812 L 137.425781 91.507812 C 137.84375 91.507812 138.195312 91.414062 138.480469 91.226562 C 138.804688 91 138.96875 90.683594 138.96875 90.269531 C 138.96875 89.429688 138.449219 89.015625 137.414062 89.015625 L 133.664062 89.015625 L 133.664062 94.546875 L 132.523438 94.546875 L 132.523438 87.84375 L 137.234375 87.84375 C 138.078125 87.84375 138.765625 88.035156 139.277344 88.40625 C 139.875 88.832031 140.175781 89.457031 140.175781 90.285156 C 140.175781 90.847656 140 91.335938 139.65625 91.738281 C 139.335938 92.121094 138.894531 92.378906 138.347656 92.53125 " fill-opacity="1" fill-rule="nonzero"/></g><g clip-path="url(#ff9d922ed7)"><path fill="#7a7f7f" d="M 152.734375 87.84375 L 148.988281 93.996094 C 148.726562 94.433594 148.492188 94.652344 148.28125 94.652344 C 148.074219 94.652344 147.839844 94.433594 147.582031 93.996094 L 143.90625 87.84375 L 145.382812 87.84375 L 148.308594 92.816406 L 151.269531 87.84375 " fill-opacity="1" fill-rule="nonzero"/></g><g clip-path="url(#f3108d2cb2)"><path fill="#7a7f7f" d="M 160.4375 91.222656 C 160.4375 90.574219 160.242188 90.042969 159.832031 89.628906 C 159.425781 89.214844 158.902344 89.015625 158.273438 89.015625 L 156.4375 89.015625 C 155.808594 89.015625 155.289062 89.214844 154.882812 89.628906 C 154.476562 90.042969 154.269531 90.574219 154.269531 91.222656 C 154.269531 91.867188 154.476562 92.386719 154.882812 92.785156 C 155.289062 93.183594 155.808594 93.382812 156.4375 93.382812 L 158.273438 93.382812 C 158.902344 93.382812 159.425781 93.183594 159.832031 92.785156 C 160.242188 92.386719 160.4375 91.867188 160.4375 91.222656 M 161.582031 91.125 C 161.582031 92.113281 161.269531 92.925781 160.652344 93.574219 C 160.03125 94.222656 159.238281 94.546875 158.277344 94.546875 L 156.4375 94.546875 C 155.480469 94.546875 154.695312 94.222656 154.074219 93.574219 C 153.449219 92.925781 153.132812 92.113281 153.132812 91.125 C 153.132812 90.148438 153.441406 89.351562 154.0625 88.75 C 154.683594 88.152344 155.46875 87.84375 156.4375 87.84375 L 158.277344 87.84375 C 159.253906 87.84375 160.046875 88.152344 160.660156 88.75 C 161.273438 89.351562 161.582031 90.148438 161.582031 91.125 " fill-opacity="1" fill-rule="nonzero"/></g><g clip-path="url(#c7cdf3b9fe)"><path fill="#7a7f7f" d="M 169.890625 91.53125 C 169.890625 92.617188 169.574219 93.40625 168.941406 93.898438 C 168.386719 94.332031 167.550781 94.546875 166.460938 94.546875 L 166.0625 94.546875 C 164.972656 94.546875 164.140625 94.332031 163.582031 93.898438 C 162.953125 93.40625 162.628906 92.617188 162.628906 91.53125 L 162.628906 87.84375 L 163.773438 87.84375 L 163.773438 91.539062 C 163.773438 92.34375 164.046875 92.875 164.589844 93.140625 C 164.945312 93.304688 165.566406 93.382812 166.460938 93.382812 C 167.203125 93.382812 167.75 93.269531 168.101562 93.046875 C 168.53125 92.753906 168.75 92.253906 168.75 91.539062 L 168.75 87.84375 L 169.890625 87.84375 " fill-opacity="1" fill-rule="nonzero"/></g><g clip-path="url(#07521626b5)"><path fill="#7a7f7f" d="M 178.285156 92.480469 C 178.285156 93.113281 178.058594 93.625 177.617188 94.011719 C 177.195312 94.371094 176.664062 94.546875 176.03125 94.546875 L 171.03125 94.546875 L 171.03125 93.382812 L 176.03125 93.382812 C 176.347656 93.382812 176.621094 93.3125 176.847656 93.167969 C 177.117188 92.992188 177.246094 92.746094 177.246094 92.449219 C 177.246094 92.144531 177.105469 91.917969 176.839844 91.75 C 176.617188 91.613281 176.347656 91.542969 176.035156 91.542969 L 172.945312 91.542969 C 172.378906 91.542969 171.902344 91.386719 171.519531 91.066406 C 171.105469 90.714844 170.902344 90.257812 170.902344 89.691406 C 170.902344 89.128906 171.105469 88.679688 171.519531 88.332031 C 171.902344 88.007812 172.378906 87.84375 172.953125 87.84375 L 177.898438 87.84375 L 177.898438 89.015625 L 172.953125 89.015625 C 172.730469 89.015625 172.550781 89.074219 172.386719 89.199219 C 172.242188 89.324219 172.15625 89.492188 172.15625 89.699219 C 172.15625 89.917969 172.234375 90.082031 172.386719 90.203125 C 172.550781 90.328125 172.730469 90.382812 172.953125 90.382812 L 176.035156 90.382812 C 176.671875 90.382812 177.195312 90.566406 177.617188 90.941406 C 178.058594 91.335938 178.285156 91.84375 178.285156 92.480469 " fill-opacity="1" fill-rule="nonzero"/></g><g clip-path="url(#6c26854db6)"><path fill="#7a7f7f" d="M 38.753906 73.023438 C 38.753906 72.574219 38.496094 72.226562 37.984375 71.984375 C 37.582031 71.804688 37.121094 71.714844 36.613281 71.714844 L 30.625 71.714844 L 30.625 78.710938 L 36.613281 78.710938 C 37.113281 78.710938 37.5625 78.632812 37.953125 78.46875 C 38.484375 78.242188 38.753906 77.914062 38.753906 77.480469 C 38.753906 77.039062 38.484375 76.707031 37.953125 76.476562 C 37.558594 76.304688 37.109375 76.21875 36.617188 76.21875 L 30.539062 76.21875 L 30.539062 74.359375 L 36.617188 74.359375 C 37.125 74.359375 37.582031 74.269531 37.988281 74.074219 C 38.5 73.835938 38.753906 73.480469 38.753906 73.023438 M 40.523438 77.464844 C 40.523438 77.925781 40.410156 78.355469 40.1875 78.765625 C 39.503906 79.96875 38.226562 80.570312 36.339844 80.570312 L 28.804688 80.570312 L 28.804688 69.855469 L 36.339844 69.855469 C 38.132812 69.855469 39.390625 70.425781 40.109375 71.566406 C 40.382812 72.023438 40.523438 72.515625 40.523438 73.039062 C 40.523438 73.929688 40.152344 74.675781 39.417969 75.28125 C 40.152344 75.871094 40.523438 76.59375 40.523438 77.464844 " fill-opacity="1" fill-rule="nonzero"/></g><path fill="#7a7f7f" d="M 47.027344 75.722656 L 48.875 72.632812 L 50.703125 75.722656 Z M 50.351562 70.910156 C 50.195312 70.636719 49.996094 70.402344 49.75 70.199219 C 49.460938 69.972656 49.1875 69.855469 48.917969 69.855469 C 48.675781 69.855469 48.394531 69.972656 48.085938 70.21875 C 47.835938 70.425781 47.636719 70.65625 47.492188 70.910156 L 41.792969 80.582031 L 44.140625 80.582031 L 45.921875 77.585938 L 51.789062 77.585938 L 53.554688 80.582031 L 55.90625 80.582031 " fill-opacity="1" fill-rule="nonzero"/><path fill="#7a7f7f" d="M 67.265625 79.667969 C 67.265625 80.359375 67.035156 80.699219 66.574219 80.699219 C 66.238281 80.699219 65.859375 80.488281 65.449219 80.058594 L 58.722656 73.160156 L 58.722656 80.597656 L 56.90625 80.597656 L 56.90625 70.808594 C 56.90625 70.554688 56.972656 70.339844 57.101562 70.15625 C 57.242188 69.972656 57.429688 69.886719 57.675781 69.886719 C 58.015625 69.886719 58.367188 70.066406 58.722656 70.429688 L 65.449219 77.3125 L 65.449219 69.886719 L 67.265625 69.886719 " fill-opacity="1" fill-rule="nonzero"/><path fill="#7a7f7f" d="M 81.164062 75.273438 C 81.164062 74.238281 80.835938 73.386719 80.191406 72.734375 C 79.539062 72.070312 78.710938 71.742188 77.699219 71.742188 L 74.769531 71.742188 C 73.769531 71.742188 72.941406 72.070312 72.292969 72.734375 C 71.636719 73.386719 71.316406 74.238281 71.316406 75.273438 C 71.316406 76.304688 71.644531 77.132812 72.292969 77.773438 C 72.941406 78.414062 73.769531 78.730469 74.769531 78.730469 L 76.277344 78.730469 C 77.472656 78.730469 78.183594 78.71875 78.410156 78.683594 L 77.136719 77.359375 L 79.816406 77.359375 L 80.199219 77.773438 C 80.839844 77.109375 81.164062 76.277344 81.164062 75.273438 M 82.984375 80.597656 L 80.300781 80.597656 L 79.882812 80.171875 C 79.21875 80.453125 78.496094 80.597656 77.703125 80.597656 L 74.777344 80.597656 C 73.246094 80.597656 71.984375 80.078125 70.992188 79.042969 C 69.992188 78.003906 69.492188 76.699219 69.492188 75.121094 C 69.492188 73.550781 69.988281 72.285156 70.980469 71.328125 C 71.964844 70.363281 73.230469 69.886719 74.777344 69.886719 L 77.703125 69.886719 C 79.261719 69.886719 80.527344 70.363281 81.507812 71.328125 C 82.492188 72.285156 82.984375 73.550781 82.984375 75.121094 C 82.984375 76.691406 82.484375 78 81.476562 79.054688 " fill-opacity="1" fill-rule="nonzero"/><path fill="#7a7f7f" d="M 96.375 75.78125 C 96.375 77.5 95.871094 78.765625 94.859375 79.558594 C 93.964844 80.25 92.644531 80.597656 90.898438 80.597656 L 90.269531 80.597656 C 88.519531 80.597656 87.195312 80.25 86.304688 79.558594 C 85.292969 78.765625 84.789062 77.5 84.789062 75.78125 L 84.789062 69.886719 L 86.609375 69.886719 L 86.609375 75.785156 C 86.609375 77.066406 87.046875 77.925781 87.917969 78.34375 C 88.476562 78.605469 89.476562 78.734375 90.898438 78.734375 C 92.089844 78.734375 92.960938 78.550781 93.511719 78.1875 C 94.207031 77.722656 94.558594 76.929688 94.558594 75.785156 L 94.558594 69.886719 L 96.375 69.886719 " fill-opacity="1" fill-rule="nonzero"/><path fill="#7a7f7f" d="M 107.628906 71.742188 L 107.628906 69.886719 L 98.578125 69.886719 L 98.578125 80.597656 L 107.628906 80.597656 L 107.628906 78.730469 L 100.394531 78.730469 L 100.394531 76.09375 L 107.167969 76.09375 L 107.167969 74.230469 L 100.394531 74.230469 L 100.394531 71.742188 " fill-opacity="1" fill-rule="nonzero"/><path fill="#e87f23" d="M 126.074219 73.742188 C 126.074219 74.910156 125.652344 75.855469 124.8125 76.578125 C 124.035156 77.246094 123.058594 77.585938 121.878906 77.585938 L 116.179688 77.585938 L 116.179688 75.722656 L 122.171875 75.722656 C 122.777344 75.722656 123.28125 75.535156 123.6875 75.171875 C 124.101562 74.808594 124.304688 74.320312 124.304688 73.714844 C 124.304688 73.109375 124.101562 72.632812 123.6875 72.273438 C 123.28125 71.921875 122.777344 71.742188 122.167969 71.742188 L 116.179688 71.742188 L 116.179688 80.597656 L 114.355469 80.597656 L 114.355469 69.886719 L 121.882812 69.886719 C 123.058594 69.886719 124.035156 70.222656 124.820312 70.902344 C 125.652344 71.613281 126.074219 72.554688 126.074219 73.742188 " fill-opacity="1" fill-rule="nonzero"/><path fill="#e87f23" d="M 138.835938 75.273438 C 138.835938 74.238281 138.515625 73.386719 137.863281 72.734375 C 137.210938 72.070312 136.378906 71.742188 135.363281 71.742188 L 132.425781 71.742188 C 131.425781 71.742188 130.59375 72.070312 129.945312 72.734375 C 129.292969 73.386719 128.964844 74.238281 128.964844 75.273438 C 128.964844 76.304688 129.292969 77.132812 129.945312 77.773438 C 130.59375 78.414062 131.425781 78.730469 132.425781 78.730469 L 135.363281 78.730469 C 136.378906 78.730469 137.210938 78.414062 137.863281 77.773438 C 138.515625 77.132812 138.835938 76.304688 138.835938 75.273438 M 140.660156 75.121094 C 140.660156 76.699219 140.164062 78.003906 139.167969 79.042969 C 138.171875 80.078125 136.910156 80.597656 135.367188 80.597656 L 132.4375 80.597656 C 130.90625 80.597656 129.648438 80.078125 128.644531 79.042969 C 127.648438 78.003906 127.144531 76.699219 127.144531 75.121094 C 127.144531 73.550781 127.644531 72.285156 128.625 71.328125 C 129.621094 70.363281 130.886719 69.886719 132.4375 69.886719 L 135.367188 69.886719 C 136.929688 69.886719 138.199219 70.363281 139.1875 71.328125 C 140.167969 72.285156 140.660156 73.550781 140.660156 75.121094 " fill-opacity="1" fill-rule="nonzero"/><path fill="#e87f23" d="M 151.296875 75.171875 C 150.886719 75.535156 150.382812 75.722656 149.773438 75.722656 L 143.78125 75.722656 L 143.78125 71.742188 L 149.773438 71.742188 C 150.375 71.742188 150.886719 71.921875 151.296875 72.273438 C 151.703125 72.632812 151.910156 73.109375 151.910156 73.714844 C 151.910156 74.320312 151.703125 74.808594 151.296875 75.171875 M 152.421875 70.902344 C 151.644531 70.222656 150.671875 69.882812 149.484375 69.882812 L 141.960938 69.882812 L 141.960938 80.597656 L 143.78125 80.597656 L 143.78125 77.585938 L 149.484375 77.585938 C 150.660156 77.585938 151.640625 77.246094 152.417969 76.578125 C 153.253906 75.855469 153.679688 74.910156 153.679688 73.742188 C 153.679688 72.554688 153.265625 71.613281 152.421875 70.902344 " fill-opacity="1" fill-rule="nonzero"/><path fill="#e87f23" d="M 166.777344 75.78125 C 166.777344 77.5 166.273438 78.765625 165.261719 79.558594 C 164.363281 80.25 163.042969 80.597656 161.296875 80.597656 L 160.667969 80.597656 C 158.917969 80.597656 157.597656 80.25 156.703125 79.558594 C 155.6875 78.765625 155.1875 77.5 155.1875 75.78125 L 155.1875 69.886719 L 157.007812 69.886719 L 157.007812 75.785156 C 157.007812 77.066406 157.441406 77.925781 158.316406 78.34375 C 158.882812 78.605469 159.875 78.734375 161.300781 78.734375 C 162.484375 78.734375 163.355469 78.550781 163.910156 78.1875 C 164.609375 77.722656 164.960938 76.929688 164.960938 75.785156 L 164.960938 69.886719 L 166.777344 69.886719 " fill-opacity="1" fill-rule="nonzero"/><path fill="#e87f23" d="M 177.554688 80.597656 L 168.511719 80.597656 L 168.511719 69.886719 L 170.332031 69.886719 L 170.332031 78.730469 L 177.554688 78.730469 " fill-opacity="1" fill-rule="nonzero"/><path fill="#e87f23" d="M 183.550781 75.722656 L 185.390625 72.632812 L 187.21875 75.722656 Z M 186.863281 70.910156 C 186.714844 70.636719 186.511719 70.402344 186.265625 70.199219 C 185.980469 69.972656 185.703125 69.855469 185.433594 69.855469 C 185.195312 69.855469 184.914062 69.972656 184.609375 70.21875 C 184.351562 70.425781 184.152344 70.65625 184.007812 70.910156 L 178.3125 80.585938 L 180.65625 80.585938 L 182.445312 77.585938 L 188.308594 77.585938 L 190.074219 80.585938 L 192.425781 80.585938 " fill-opacity="1" fill-rule="nonzero"/><path fill="#e87f23" d="M 193.601562 80.597656 L 195.421875 80.597656 L 195.421875 69.886719 L 193.601562 69.886719 Z M 193.601562 80.597656 " fill-opacity="1" fill-rule="nonzero"/><path fill="#e87f23" d="M 199.523438 75.722656 L 199.523438 71.742188 L 205.527344 71.742188 C 207.179688 71.742188 208.015625 72.414062 208.015625 73.746094 C 208.015625 74.40625 207.75 74.914062 207.234375 75.269531 C 206.773438 75.570312 206.207031 75.722656 205.527344 75.722656 Z M 207.019531 77.359375 C 207.898438 77.121094 208.597656 76.699219 209.109375 76.09375 C 209.660156 75.445312 209.9375 74.671875 209.9375 73.773438 C 209.9375 72.449219 209.460938 71.457031 208.511719 70.777344 C 207.675781 70.179688 206.589844 69.886719 205.234375 69.886719 L 197.703125 69.886719 L 197.703125 80.597656 L 199.523438 80.597656 L 199.523438 77.585938 L 204.5625 77.585938 L 207.496094 80.597656 L 210.195312 80.597656 " fill-opacity="1" fill-rule="nonzero"/><g clip-path="url(#d0a1c2a537)"><path fill="#e87f23" d="M 220.933594 71.742188 L 220.933594 69.886719 L 211.878906 69.886719 L 211.878906 80.597656 L 220.933594 80.597656 L 220.933594 78.730469 L 213.699219 78.730469 L 213.699219 76.09375 L 220.472656 76.09375 L 220.472656 74.230469 L 213.699219 74.230469 L 213.699219 71.742188 " fill-opacity="1" fill-rule="nonzero"/></g><g clip-path="url(#b62e48beeb)"><path fill="#59270b" d="M 144.644531 8.5 C 144.425781 8.425781 144.167969 8.035156 144.167969 8.035156 C 144.167969 8.035156 144.460938 7.757812 144.871094 7.738281 C 145.199219 7.726562 145.828125 8.167969 145.707031 7.90625 C 145.558594 7.617188 145.828125 7.269531 145.078125 7.070312 C 144.703125 6.980469 143.480469 7.871094 143.480469 7.871094 L 144.167969 8.5 L 144.644531 8.5 C 144.644531 8.5 144.863281 8.574219 144.644531 8.5 M 120 42.035156 C 120.148438 42.449219 120.113281 42.925781 120.113281 42.925781 C 120.808594 46.074219 118.246094 47.445312 118.085938 47.589844 C 117.929688 47.757812 117.929688 48.707031 118.085938 48.753906 C 120.78125 49.4375 120.421875 49.972656 120.421875 49.972656 C 120.058594 51.429688 120.78125 51.917969 122.328125 52.554688 C 123.894531 53.1875 127.382812 59.238281 127.382812 59.238281 C 130.476562 59.238281 129.289062 60.625 129.289062 60.625 L 129.222656 62.335938 L 133.113281 62.53125 C 133.035156 62.214844 131.949219 60.027344 131.355469 59.882812 C 130.773438 59.726562 130.347656 59.285156 130.347656 59.285156 C 130.511719 58.503906 129.566406 57.542969 129.566406 57.542969 C 128.726562 57.328125 125.46875 52.992188 124.824219 52.355469 C 124.175781 51.714844 124.433594 51.203125 124.582031 51.160156 C 126.527344 50.667969 128.167969 52.992188 128.246094 53.1875 C 128.601562 54.09375 128.820312 54.050781 130.003906 54.179688 C 131.15625 54.292969 130.824219 55.589844 130.824219 55.589844 L 131.355469 57.148438 L 132.886719 57.304688 L 131.378906 57.074219 L 130.839844 55.53125 L 131.355469 57.148438 L 134.570312 57.457031 C 133.738281 55.242188 132.726562 54.765625 132.566406 54.691406 C 132.40625 54.601562 132.097656 54.648438 132.011719 54.179688 C 131.949219 53.695312 131.671875 52.878906 131.046875 52.582031 C 130.425781 52.320312 130.425781 52.210938 130.425781 52.210938 C 130.097656 50.894531 129.289062 51.039062 128.867188 50.730469 C 128.433594 50.414062 125.632812 49.542969 125.941406 49.273438 C 128.601562 46.90625 129.015625 45.964844 129.101562 45.726562 C 130.726562 40.746094 132.070312 40.882812 132.070312 40.882812 L 132.53125 40.632812 C 131.417969 40.378906 130.863281 39.246094 131.128906 39.363281 C 139.367188 42.953125 146.417969 41.261719 146.417969 41.261719 C 146.957031 41.261719 146.054688 45.460938 145.914062 45.621094 C 144.652344 46.882812 144.582031 47.835938 144.582031 47.835938 C 144.824219 48.847656 141.738281 56.71875 141.738281 56.71875 C 141.144531 59.203125 142.054688 58.84375 142.71875 59.042969 C 143.375 59.238281 143.46875 59.96875 143.339844 60.523438 C 143.230469 61.066406 143.6875 62.421875 143.6875 62.421875 L 146.800781 62.421875 C 145.601562 59.480469 145.011719 59.96875 145.011719 59.96875 C 143.890625 59.105469 143.65625 58.042969 143.65625 58.042969 C 142.8125 57.625 146.144531 50.570312 146.894531 50.253906 C 147.632812 49.925781 147.476562 49.222656 147.550781 49.0625 C 147.632812 48.898438 148.398438 48.753906 148.054688 47.867188 C 147.714844 47.011719 151.082031 42.332031 151.082031 42.332031 C 146.667969 41.203125 146.492188 39.089844 146.332031 39.089844 C 146.179688 39.089844 144.15625 38.730469 144.007812 38.652344 C 143.847656 38.570312 143.496094 38.191406 143.65625 38.132812 C 143.804688 38.113281 146.6875 38.535156 146.6875 38.535156 C 147.390625 40.230469 149.660156 41.398438 151.804688 41.957031 C 154.15625 42.558594 156.371094 42.78125 156.203125 43.324219 C 155.957031 44.351562 156.265625 45.421875 156.265625 45.421875 C 155.792969 47.339844 152.445312 49.5 152.445312 49.5 C 150.738281 49.851562 150.882812 51.527344 150.847656 52.128906 C 150.8125 52.71875 150.355469 52.667969 150.355469 52.667969 C 149.921875 52.582031 148.515625 52.667969 148.515625 52.667969 L 148.515625 56.484375 C 149.195312 56.660156 150.847656 55.328125 150.96875 54.972656 C 151.082031 54.601562 151.167969 53.019531 151.949219 53.347656 C 152.710938 53.652344 153.664062 52.246094 153.742188 51.964844 C 154.3125 49.863281 158.609375 45.964844 159.261719 44.703125 C 159.894531 43.496094 159.355469 43.4375 159.316406 43.160156 C 158.921875 41.140625 158.238281 41.34375 157.699219 41.066406 C 156.574219 40.496094 153.097656 38.058594 153.097656 38.058594 C 156.082031 31.996094 152.984375 28.421875 152.984375 28.421875 C 152.984375 28.421875 153.214844 28.457031 153.691406 28.746094 C 153.742188 28.773438 153.597656 28.359375 153.578125 28.3125 C 153.378906 27.109375 152.445312 24.429688 152.445312 24.429688 C 151.890625 22.128906 143.613281 13.105469 144.007812 13.1875 C 148.277344 14.058594 148.746094 12.347656 148.746094 12.347656 L 149.847656 12.46875 L 150.003906 12.789062 C 151.0625 13.300781 151.472656 12.710938 151.472656 12.710938 C 151.679688 12.753906 152.710938 12.671875 152.824219 12.671875 C 152.945312 12.671875 153.300781 11.761719 153.066406 11.796875 C 152.824219 11.824219 151.867188 11.796875 151.679688 11.6875 C 150.761719 11.128906 151.832031 11.039062 151.949219 11.160156 C 152.039062 11.273438 153.449219 11.078125 153.449219 11.078125 L 153.378906 8.988281 L 153.214844 8.828125 C 152.375 8.546875 150.6875 8.082031 150.6875 8.082031 L 150.386719 8.296875 L 146.460938 6.816406 C 148.265625 5.539062 147.511719 3.753906 147.246094 4.191406 C 147.046875 4.492188 146.957031 4.949219 146.839844 4.265625 C 146.570312 2.46875 145.601562 2.566406 145.601562 2.566406 C 145.746094 3.332031 145.449219 3.371094 145.449219 3.371094 C 145.539062 2.910156 143.140625 1.863281 143.339844 2.132812 C 144.871094 4.183594 144.042969 4.722656 143.265625 4.792969 C 142.480469 4.875 142.640625 1.890625 142.335938 1.890625 C 142.027344 1.890625 140.542969 4.503906 140.542969 4.503906 C 136.414062 3.957031 135.59375 5.933594 135.59375 5.933594 L 135.125 6.214844 C 135.886719 6.402344 135.753906 6.511719 135.59375 6.613281 C 132.875 7.992188 132.449219 8.546875 132.609375 8.546875 C 134.136719 8.546875 133.683594 8.722656 133.683594 8.722656 C 133.683594 8.722656 131.820312 10.175781 132.609375 10.097656 C 133.375 10.015625 134.511719 10.175781 134.054688 10.359375 C 133.589844 10.574219 131.15625 11.976562 131.320312 12.035156 C 132.414062 12.3125 132.449219 12.753906 132.449219 12.753906 C 131.5 13.535156 129.886719 14.25 130.230469 14.296875 C 130.585938 14.328125 131.863281 14.8125 131.15625 14.898438 C 130.476562 14.957031 130.28125 15.472656 130.28125 15.472656 C 132.207031 15.472656 132.058594 15.640625 131.917969 15.710938 C 131.757812 15.800781 131.320312 16.066406 131.472656 16.105469 C 132.960938 16.496094 132.726562 16.78125 132.726562 16.78125 C 131.660156 17.074219 131.109375 17.359375 131.320312 17.386719 C 132.40625 17.542969 132.636719 18.085938 132.636719 18.085938 C 130.925781 18.476562 131.15625 18.765625 131.15625 18.765625 C 133.140625 19.265625 132.636719 19.003906 132.472656 19.207031 C 132.335938 19.402344 132.132812 19.515625 132.371094 19.597656 C 133.550781 19.988281 133.648438 20.261719 133.464844 20.261719 C 133.261719 20.261719 132.449219 20.382812 132.449219 20.382812 C 132.851562 21.203125 134.386719 21.183594 133.929688 21.492188 C 133.464844 21.832031 132.132812 21.941406 132.726562 22.066406 C 133.292969 22.175781 135.355469 23.550781 134.742188 23.46875 C 134.125 23.398438 133.875 23.617188 134.085938 23.710938 C 137.113281 25.257812 136.492188 25.296875 136.492188 25.296875 C 135.347656 25.597656 134.976562 25.296875 135.355469 25.617188 C 135.746094 25.933594 137.550781 26.410156 137.34375 26.542969 C 134.703125 28.136719 128.585938 27.550781 128.089844 27.433594 C 121.679688 25.941406 119.476562 27.304688 118.921875 27.304688 C 118.316406 27.304688 117.511719 26.996094 115.90625 25.296875 C 114.3125 23.59375 110.226562 21.714844 109.875 21.574219 C 107.949219 20.777344 103.308594 20.128906 101.960938 19.988281 C 101.492188 19.949219 102.671875 21.183594 102.671875 21.183594 C 98.289062 20.058594 93.515625 20.058594 94.558594 20.585938 C 95.402344 20.984375 95.445312 21.265625 95.445312 21.265625 C 90.136719 21.265625 89.964844 21.492188 90.261719 21.574219 C 93.648438 22.445312 94.542969 23.398438 93.847656 23.289062 C 93.160156 23.15625 91.988281 23.148438 92.167969 23.355469 C 94.425781 26.09375 98.898438 24.972656 98.132812 25.464844 C 97.519531 25.824219 96.261719 26.496094 96.796875 26.542969 C 97.339844 26.570312 99.234375 26.851562 101.816406 26.292969 C 104.390625 25.738281 106.632812 26.171875 106.316406 26.445312 C 106.019531 26.730469 105.914062 27.285156 105.914062 27.285156 C 108.121094 26.136719 114.570312 26.59375 114.753906 26.679688 C 117.652344 28.5 116.609375 28.953125 116.390625 29.304688 C 111.898438 36.136719 117.601562 40.519531 119.980469 41.949219 Z M 123.210938 43.949219 C 124.972656 44.203125 123.71875 46.707031 123.71875 46.855469 C 123.71875 47.636719 122.882812 47.71875 122.882812 47.71875 C 122.144531 47.53125 122.765625 46.574219 122.765625 46.574219 C 123.1875 46.117188 123.308594 45.617188 123.308594 45.171875 C 123.308594 45.171875 123.308594 44.5625 123.257812 44.117188 C 123.257812 44.117188 123.175781 43.910156 123.210938 43.949219 " fill-opacity="1" fill-rule="evenodd"/></g><path fill="#e87f23" d="M 120.523438 4.867188 L 120.523438 4.914062 M 120.175781 4.964844 C 120.175781 5 120.066406 4.898438 120.046875 4.875 C 120.109375 4.871094 120.171875 4.835938 120.21875 4.8125 C 120.265625 4.785156 120.316406 4.777344 120.359375 4.757812 C 120.410156 4.742188 120.464844 4.722656 120.515625 4.703125 C 120.5625 4.6875 120.644531 4.679688 120.675781 4.632812 C 120.6875 4.617188 120.746094 4.597656 120.769531 4.589844 C 120.804688 4.578125 120.878906 4.5625 120.914062 4.527344 C 120.984375 4.445312 121.121094 4.527344 121.203125 4.542969 C 121.292969 4.5625 121.394531 4.613281 121.476562 4.527344 C 121.546875 4.445312 121.640625 4.382812 121.734375 4.351562 C 121.734375 4.40625 121.78125 4.480469 121.816406 4.453125 C 121.847656 4.429688 121.886719 4.410156 121.925781 4.410156 C 121.996094 4.363281 122.191406 4.3125 122.203125 4.324219 C 122.222656 4.371094 122.273438 4.363281 122.296875 4.410156 C 122.316406 4.433594 122.386719 4.398438 122.410156 4.386719 C 122.488281 4.351562 122.628906 4.296875 122.652344 4.164062 C 122.65625 4.152344 122.714844 4.117188 122.78125 4.125 C 122.914062 4.136719 123.054688 4.152344 123.191406 4.140625 C 123.445312 4.117188 123.679688 3.957031 123.921875 3.898438 C 124.171875 3.835938 124.433594 3.839844 124.691406 3.832031 C 125.769531 3.761719 126.84375 3.566406 127.921875 3.648438 C 128.164062 3.664062 128.394531 3.621094 128.640625 3.652344 C 128.898438 3.691406 129.140625 3.65625 129.394531 3.617188 C 129.5625 3.597656 129.726562 3.5625 129.890625 3.554688 C 129.957031 3.550781 130.003906 3.535156 130.066406 3.535156 C 130.207031 3.53125 130.347656 3.523438 130.492188 3.542969 C 130.621094 3.5625 130.734375 3.597656 130.851562 3.65625 C 130.925781 3.671875 130.96875 3.738281 131.039062 3.777344 C 131.101562 3.808594 131.15625 3.875 131.230469 3.898438 C 131.300781 3.925781 131.363281 3.957031 131.441406 3.976562 C 131.550781 4 131.664062 4.011719 131.777344 4.023438 C 131.800781 4.023438 131.925781 4.007812 131.941406 4.007812 C 131.964844 4.003906 131.996094 3.976562 132.023438 3.957031 C 132.070312 3.917969 132.039062 3.886719 132.011719 3.851562 L 132.007812 3.835938 L 132.011719 3.839844 C 132.144531 3.875 132.273438 3.90625 132.398438 3.929688 C 132.464844 3.9375 132.523438 3.949219 132.589844 3.957031 C 132.640625 3.957031 132.738281 3.941406 132.78125 3.96875 C 132.820312 3.976562 132.847656 3.988281 132.871094 3.992188 C 132.894531 3.996094 132.910156 4.011719 132.933594 4.023438 C 132.964844 4.039062 133 4.050781 133.03125 4.066406 C 133.042969 4.078125 133.0625 4.101562 133.078125 4.109375 C 133.09375 4.125 133.113281 4.160156 133.132812 4.164062 C 133.167969 4.183594 133.203125 4.265625 133.238281 4.308594 C 133.269531 4.355469 133.292969 4.410156 133.316406 4.46875 C 133.359375 4.617188 133.378906 4.777344 133.347656 4.9375 C 133.292969 5.207031 133.097656 5.351562 132.914062 5.367188 C 132.378906 5.414062 131.828125 5.523438 131.300781 5.386719 C 131.054688 5.320312 130.8125 5.273438 130.5625 5.246094 C 130.289062 5.214844 130.015625 5.210938 129.742188 5.203125 C 129.484375 5.191406 129.222656 5.21875 128.957031 5.222656 C 128.691406 5.226562 128.425781 5.222656 128.164062 5.203125 C 127.765625 5.171875 127.363281 5.117188 126.957031 5.09375 C 126.621094 5.074219 126.28125 5.050781 125.9375 5.0625 C 125.367188 5.078125 124.789062 5.050781 124.214844 5.082031 C 123.761719 5.097656 123.308594 5.078125 122.851562 5.050781 C 122.746094 5.050781 122.632812 5.042969 122.527344 5.042969 C 122.445312 5.039062 122.363281 5.0625 122.289062 5.050781 C 122.257812 5.039062 122.238281 5.003906 122.214844 5 C 122.164062 4.984375 122.144531 4.992188 122.101562 4.996094 C 121.996094 5.011719 121.898438 5.042969 121.789062 5.03125 C 121.699219 5.023438 121.613281 5.027344 121.519531 5.027344 C 121.488281 5.027344 121.457031 5.023438 121.425781 5 C 121.394531 4.96875 121.386719 4.941406 121.335938 4.984375 C 121.296875 5.035156 121.261719 5.027344 121.207031 5.027344 C 121.101562 5.023438 120.992188 5.027344 120.894531 5.027344 C 120.78125 5.027344 120.667969 5.03125 120.554688 5.035156 C 120.554688 5.058594 120.476562 5.050781 120.460938 5.050781 C 120.394531 5.054688 120.222656 5.066406 120.175781 4.972656 " fill-opacity="1" fill-rule="evenodd"/><path fill="#7a7f7f" d="M 110.074219 9.703125 C 110.074219 9.722656 110.074219 9.746094 110.078125 9.765625 M 109.539062 9.84375 C 109.539062 9.910156 109.351562 9.753906 109.339844 9.722656 C 109.425781 9.714844 109.523438 9.664062 109.601562 9.621094 C 109.675781 9.585938 109.757812 9.566406 109.828125 9.539062 C 109.910156 9.511719 109.992188 9.480469 110.070312 9.457031 C 110.140625 9.429688 110.261719 9.414062 110.316406 9.347656 C 110.335938 9.328125 110.433594 9.292969 110.46875 9.28125 C 110.519531 9.261719 110.640625 9.234375 110.691406 9.183594 C 110.8125 9.066406 111.019531 9.179688 111.152344 9.203125 C 111.292969 9.230469 111.457031 9.300781 111.578125 9.167969 C 111.691406 9.054688 111.851562 8.953125 111.996094 8.902344 C 111.996094 8.988281 112.066406 9.097656 112.113281 9.054688 C 112.160156 9.015625 112.238281 8.988281 112.292969 8.988281 C 112.398438 8.910156 112.710938 8.839844 112.722656 8.855469 C 112.761719 8.921875 112.84375 8.910156 112.882812 8.976562 C 112.902344 9.011719 113.023438 8.953125 113.054688 8.941406 C 113.179688 8.890625 113.410156 8.804688 113.4375 8.605469 C 113.449219 8.589844 113.535156 8.539062 113.632812 8.546875 C 113.851562 8.558594 114.074219 8.582031 114.292969 8.558594 C 114.6875 8.519531 115.054688 8.28125 115.4375 8.179688 C 115.84375 8.082031 116.246094 8.085938 116.648438 8.0625 C 118.363281 7.933594 120.046875 7.628906 121.769531 7.714844 C 122.140625 7.738281 122.511719 7.671875 122.894531 7.707031 C 123.304688 7.753906 123.6875 7.703125 124.09375 7.640625 C 124.355469 7.597656 124.613281 7.546875 124.878906 7.535156 C 124.972656 7.527344 125.054688 7.5 125.148438 7.5 C 125.378906 7.488281 125.605469 7.480469 125.828125 7.503906 C 126.019531 7.523438 126.214844 7.574219 126.398438 7.664062 C 126.515625 7.6875 126.585938 7.773438 126.699219 7.828125 C 126.796875 7.882812 126.890625 7.976562 127 8.011719 C 127.109375 8.042969 127.21875 8.09375 127.335938 8.113281 C 127.503906 8.152344 127.691406 8.167969 127.867188 8.175781 C 127.910156 8.1875 128.101562 8.152344 128.128906 8.148438 C 128.171875 8.144531 128.214844 8.101562 128.257812 8.074219 C 128.332031 8.015625 128.28125 7.96875 128.25 7.925781 C 128.246094 7.917969 128.234375 7.910156 128.230469 7.90625 C 128.234375 7.90625 128.246094 7.90625 128.246094 7.90625 C 128.449219 7.953125 128.644531 7.992188 128.851562 8.027344 C 128.953125 8.042969 129.054688 8.054688 129.148438 8.0625 C 129.230469 8.070312 129.386719 8.035156 129.460938 8.082031 C 129.519531 8.085938 129.5625 8.105469 129.597656 8.109375 C 129.644531 8.113281 129.664062 8.136719 129.703125 8.15625 C 129.75 8.175781 129.804688 8.1875 129.847656 8.21875 C 129.878906 8.238281 129.902344 8.265625 129.929688 8.28125 C 129.960938 8.304688 129.980469 8.351562 130.007812 8.359375 C 130.074219 8.382812 130.132812 8.503906 130.183594 8.570312 C 130.238281 8.632812 130.277344 8.71875 130.308594 8.804688 C 130.386719 9.023438 130.417969 9.261719 130.378906 9.496094 C 130.304688 9.898438 129.984375 10.113281 129.699219 10.140625 C 128.855469 10.222656 127.980469 10.402344 127.144531 10.203125 C 126.746094 10.113281 126.367188 10.050781 125.96875 10.015625 C 125.546875 9.980469 125.109375 9.976562 124.671875 9.96875 C 124.261719 9.957031 123.847656 10.011719 123.433594 10.023438 C 123.015625 10.039062 122.59375 10.039062 122.175781 10.007812 C 121.542969 9.964844 120.914062 9.910156 120.265625 9.882812 C 119.738281 9.851562 119.191406 9.835938 118.660156 9.855469 C 117.746094 9.890625 116.84375 9.871094 115.933594 9.921875 C 115.210938 9.957031 114.496094 9.9375 113.78125 9.914062 C 113.605469 9.914062 113.425781 9.902344 113.246094 9.902344 C 113.136719 9.902344 113 9.941406 112.882812 9.917969 C 112.832031 9.910156 112.800781 9.859375 112.757812 9.847656 C 112.691406 9.835938 112.652344 9.835938 112.585938 9.847656 C 112.414062 9.871094 112.261719 9.917969 112.09375 9.910156 C 111.949219 9.898438 111.8125 9.902344 111.671875 9.902344 C 111.621094 9.910156 111.5625 9.902344 111.523438 9.871094 C 111.457031 9.820312 111.445312 9.789062 111.382812 9.859375 C 111.316406 9.925781 111.253906 9.914062 111.171875 9.914062 C 111.003906 9.910156 110.835938 9.921875 110.667969 9.925781 C 110.492188 9.933594 110.3125 9.9375 110.132812 9.9375 C 110.132812 9.980469 110.007812 9.976562 109.996094 9.976562 C 109.886719 9.980469 109.613281 10 109.539062 9.867188 " fill-opacity="1" fill-rule="evenodd"/><path fill="#e87f23" d="M 102.191406 14.363281 L 102.191406 14.429688 M 101.507812 14.496094 C 101.507812 14.558594 101.28125 14.398438 101.261719 14.363281 C 101.371094 14.363281 101.492188 14.316406 101.601562 14.273438 C 101.683594 14.238281 101.785156 14.21875 101.878906 14.195312 C 101.976562 14.167969 102.082031 14.144531 102.1875 14.121094 C 102.273438 14.097656 102.425781 14.082031 102.496094 14.015625 C 102.519531 14 102.640625 13.964844 102.679688 13.953125 C 102.757812 13.933594 102.902344 13.90625 102.964844 13.863281 C 103.117188 13.746094 103.378906 13.863281 103.542969 13.890625 C 103.722656 13.917969 103.925781 14 104.085938 13.867188 C 104.230469 13.75 104.429688 13.65625 104.609375 13.609375 C 104.609375 13.691406 104.691406 13.800781 104.757812 13.765625 C 104.816406 13.726562 104.914062 13.699219 104.976562 13.699219 C 105.117188 13.625 105.507812 13.558594 105.527344 13.582031 C 105.570312 13.644531 105.675781 13.636719 105.726562 13.703125 C 105.746094 13.742188 105.898438 13.679688 105.949219 13.667969 C 106.101562 13.621094 106.378906 13.535156 106.433594 13.339844 C 106.441406 13.328125 106.546875 13.28125 106.675781 13.289062 C 106.949219 13.304688 107.230469 13.332031 107.5 13.316406 C 107.996094 13.28125 108.464844 13.054688 108.949219 12.960938 C 109.449219 12.871094 109.964844 12.886719 110.46875 12.863281 C 112.621094 12.777344 114.746094 12.511719 116.898438 12.636719 C 117.367188 12.660156 117.84375 12.601562 118.316406 12.652344 C 118.828125 12.710938 119.316406 12.667969 119.824219 12.609375 C 120.15625 12.574219 120.476562 12.53125 120.808594 12.523438 C 120.925781 12.519531 121.035156 12.492188 121.15625 12.492188 C 121.433594 12.488281 121.722656 12.480469 122.007812 12.511719 C 122.246094 12.535156 122.488281 12.59375 122.714844 12.6875 C 122.863281 12.710938 122.957031 12.800781 123.089844 12.855469 C 123.210938 12.914062 123.324219 13.007812 123.46875 13.046875 C 123.601562 13.082031 123.730469 13.128906 123.882812 13.15625 C 124.101562 13.199219 124.328125 13.21875 124.558594 13.226562 C 124.609375 13.246094 124.847656 13.207031 124.878906 13.203125 C 124.929688 13.203125 124.996094 13.160156 125.046875 13.128906 C 125.140625 13.082031 125.074219 13.03125 125.03125 12.988281 C 125.027344 12.980469 125.019531 12.972656 125.015625 12.960938 C 125.015625 12.960938 125.027344 12.96875 125.039062 12.972656 C 125.285156 13.019531 125.535156 13.070312 125.785156 13.097656 C 125.914062 13.117188 126.039062 13.128906 126.171875 13.144531 C 126.265625 13.152344 126.460938 13.125 126.550781 13.167969 C 126.625 13.175781 126.675781 13.199219 126.726562 13.203125 C 126.777344 13.203125 126.808594 13.226562 126.859375 13.25 C 126.917969 13.273438 126.980469 13.285156 127.039062 13.316406 C 127.078125 13.332031 127.105469 13.363281 127.140625 13.382812 C 127.175781 13.402344 127.203125 13.449219 127.234375 13.460938 C 127.324219 13.484375 127.390625 13.609375 127.457031 13.675781 C 127.519531 13.742188 127.574219 13.824219 127.613281 13.90625 C 127.703125 14.136719 127.738281 14.371094 127.679688 14.605469 C 127.582031 15 127.183594 15.214844 126.8125 15.234375 C 125.761719 15.296875 124.660156 15.457031 123.609375 15.242188 C 123.117188 15.148438 122.636719 15.070312 122.140625 15.027344 C 121.597656 14.984375 121.058594 14.964844 120.515625 14.953125 C 119.996094 14.9375 119.472656 14.976562 118.953125 14.984375 C 118.429688 14.984375 117.902344 14.96875 117.378906 14.9375 C 116.578125 14.886719 115.789062 14.808594 114.988281 14.765625 C 114.3125 14.726562 113.632812 14.695312 112.960938 14.707031 C 111.8125 14.71875 110.675781 14.6875 109.535156 14.710938 C 108.632812 14.742188 107.734375 14.699219 106.835938 14.660156 C 106.613281 14.652344 106.390625 14.636719 106.167969 14.636719 C 106.015625 14.636719 105.851562 14.667969 105.707031 14.644531 C 105.640625 14.636719 105.605469 14.582031 105.542969 14.570312 C 105.46875 14.554688 105.417969 14.5625 105.332031 14.566406 C 105.121094 14.585938 104.933594 14.632812 104.714844 14.617188 C 104.535156 14.601562 104.363281 14.605469 104.179688 14.605469 C 104.117188 14.605469 104.046875 14.601562 103.996094 14.566406 C 103.925781 14.519531 103.910156 14.480469 103.820312 14.546875 C 103.738281 14.621094 103.660156 14.605469 103.550781 14.601562 C 103.347656 14.59375 103.136719 14.601562 102.929688 14.601562 C 102.703125 14.601562 102.480469 14.605469 102.25 14.605469 C 102.25 14.644531 102.097656 14.636719 102.082031 14.636719 C 101.941406 14.636719 101.605469 14.65625 101.507812 14.519531 " fill-opacity="1" fill-rule="evenodd"/></svg>