<svg xmlns="http://www.w3.org/2000/svg" xmlns:xlink="http://www.w3.org/1999/xlink" width="333" zoomAndPan="magnify" viewBox="0 0 249.75 96.749999" height="129" preserveAspectRatio="xMidYMid meet" version="1.0"><path fill="#00008f" d="M 80.34375 3.921875 L 168.945312 3.921875 L 168.945312 92.824219 L 80.34375 92.824219 Z M 80.34375 3.921875 " fill-opacity="1" fill-rule="nonzero"/><path fill="#ff1721" d="M 135.242188 47.824219 L 168.945312 3.921875 L 163.960938 3.921875 L 130.164062 47.824219 Z M 135.242188 47.824219 " fill-opacity="1" fill-rule="nonzero"/><path fill="#ffffff" d="M 148.042969 67.414062 C 149.582031 71.746094 152.773438 83.035156 154.03125 83.933594 L 145.679688 83.933594 C 145.652344 82.941406 145.519531 81.949219 145.289062 80.972656 C 144.929688 79.683594 141.910156 69.921875 141.910156 69.921875 L 128.640625 69.921875 L 126.554688 72.886719 C 126.554688 72.886719 129.066406 80.757812 129.214844 81.144531 C 129.480469 81.84375 130.683594 83.921875 130.683594 83.921875 L 122.679688 83.921875 C 122.679688 83.921875 122.464844 82.714844 122.398438 82.21875 C 122.332031 81.816406 121.636719 79.601562 121.636719 79.601562 C 121.636719 79.601562 119.820312 81.601562 119.324219 82.527344 C 118.832031 83.453125 118.605469 83.933594 118.605469 83.933594 L 112.335938 83.933594 C 112.335938 83.933594 112.121094 82.726562 112.054688 82.230469 C 111.988281 81.828125 111.226562 79.441406 111.226562 79.441406 C 111.226562 79.441406 109.476562 81.574219 108.96875 82.5 C 108.476562 83.425781 108.261719 83.933594 108.261719 83.933594 L 102.058594 83.933594 C 102.058594 83.933594 103.8125 82.257812 104.425781 81.546875 C 105.453125 80.328125 109.304688 75.285156 109.304688 75.285156 L 107.753906 69.921875 L 94.589844 69.921875 C 94.589844 69.921875 87.082031 79.816406 86.785156 80.125 C 86.492188 80.433594 84.300781 83.585938 84.246094 83.921875 L 80.34375 83.921875 L 80.34375 81.425781 C 80.398438 81.375 80.4375 81.320312 80.503906 81.28125 C 80.625 81.183594 86.199219 74.253906 91.316406 67.402344 C 95.914062 61.433594 100.230469 55.628906 100.617188 55.078125 C 101.539062 53.738281 102.863281 50.851562 102.863281 50.851562 L 109.675781 50.851562 C 109.675781 50.851562 109.890625 53.507812 110.09375 54.152344 C 110.265625 54.714844 114.421875 68.378906 114.515625 68.527344 L 116.8125 65.578125 L 112.898438 53.46875 C 112.898438 53.46875 111.976562 51.1875 111.683594 50.851562 L 119.632812 50.851562 C 119.605469 51.589844 119.6875 52.316406 119.886719 53.027344 C 120.207031 54.03125 121.917969 60.199219 121.917969 60.199219 C 121.917969 60.199219 127.34375 53.375 127.664062 52.890625 C 128.050781 52.273438 128.277344 51.578125 128.332031 50.867188 L 134.960938 50.867188 C 134.960938 50.867188 133.746094 51.75 131.621094 54.460938 L 123.871094 64.289062 C 123.871094 64.289062 124.484375 66.382812 124.777344 67.414062 C 124.859375 67.710938 124.910156 67.910156 124.910156 67.9375 C 124.910156 67.964844 125.070312 67.75 125.324219 67.414062 C 127.128906 65.121094 135.347656 54.3125 135.84375 53.386719 C 136.242188 52.636719 136.832031 51.792969 137.179688 50.867188 L 143.648438 50.867188 C 143.648438 50.867188 143.792969 52.796875 143.996094 53.335938 Z M 138.207031 57.183594 C 137.257812 59.234375 131.671875 66.058594 131.671875 66.058594 L 140.519531 66.058594 C 140.519531 66.058594 138.808594 60.761719 138.503906 59.570312 C 138.355469 58.804688 138.289062 58.027344 138.328125 57.25 C 138.328125 57.140625 138.300781 56.953125 138.207031 57.183594 Z M 104.210938 57.183594 C 103.261719 59.234375 97.675781 66.058594 97.675781 66.058594 L 106.523438 66.058594 C 106.523438 66.058594 104.8125 60.761719 104.507812 59.570312 C 104.359375 58.804688 104.292969 58.027344 104.332031 57.25 C 104.332031 57.140625 104.304688 56.953125 104.210938 57.183594 Z M 117.523438 77.875 L 119.953125 74.519531 C 119.726562 74.28125 118.351562 70.109375 118.351562 70.109375 L 116 73.179688 Z M 117.523438 77.875 " fill-opacity="1" fill-rule="nonzero"/></svg>