<?xml version="1.0" encoding="UTF-8"?>
<svg id="Layer_2" data-name="Layer 2" xmlns="http://www.w3.org/2000/svg" xmlns:xlink="http://www.w3.org/1999/xlink" viewBox="0 0 32 33.02">
  <defs>
    <style>
      .cls-1 {
        stroke-width: 0px;
      }

      .cls-1, .cls-2 {
        fill: #009ca5;
      }

      .cls-3 {
        clip-path: url(#clippath);
      }
    </style>
    <clipPath id="clippath">
      <path class="cls-1" d="M12.16,1.65c-3.57,3.59-7.09,7.24-10.72,10.77-1.69,1.64-2,5.37-.34,7.16.58.63,1.2,1.22,1.81,1.82,2.3,2.29,7.38,6.97,7.38,6.97l3.01-3.01s-4.84-5-6.96-7.11c-1.22-1.22-1.31-2.75-.14-3.96,2.51-2.59,5.05-5.14,7.62-7.66,1.15-1.13,3.02-1.14,4.18-.02,2.67,2.58,5.34,5.16,7.9,7.83,1.24,1.29,1.21,2.67-.06,3.93-.04.04-.08.08-.11.11-4.11,4.11-14.42,14.45-14.42,14.45,1.53,0,4.85.05,6.38.08,0,0,8.69-8.62,12.81-12.77.23-.23.45-.46.63-.72.77-1.04.96-2.19.83-3.48-.13-1.35-.55-2.48-1.51-3.43-3.68-3.66-7.35-7.34-11.03-11-1.09-1.08-2.35-1.62-3.62-1.62s-2.56.55-3.65,1.65"/>
    </clipPath>
  </defs>
  <g id="Layer_1-2" data-name="Layer 1">
    <g>
      <path class="cls-1" d="M12.16,1.65c-3.57,3.59-7.09,7.24-10.72,10.77-1.69,1.64-2,5.37-.34,7.16.58.63,1.2,1.22,1.81,1.82,2.3,2.29,7.38,6.97,7.38,6.97l3.01-3.01s-4.84-5-6.96-7.11c-1.22-1.22-1.31-2.75-.14-3.96,2.51-2.59,5.05-5.14,7.62-7.66,1.15-1.13,3.02-1.14,4.18-.02,2.67,2.58,5.34,5.16,7.9,7.83,1.24,1.29,1.21,2.67-.06,3.93-.04.04-.08.08-.11.11-4.11,4.11-14.42,14.45-14.42,14.45,1.53,0,4.85.05,6.38.08,0,0,8.69-8.62,12.81-12.77.23-.23.45-.46.64-.72.77-1.04.96-2.19.83-3.48-.13-1.35-.55-2.48-1.51-3.43-3.68-3.66-7.35-7.33-11.03-11-1.09-1.08-2.35-1.62-3.62-1.62s-2.56.55-3.65,1.65"/>
      <g>
        <path class="cls-2" d="M12.16,1.65c-3.57,3.59-7.09,7.24-10.72,10.77-1.69,1.64-2,5.37-.34,7.16.58.63,1.2,1.22,1.81,1.82,2.3,2.29,7.38,6.97,7.38,6.97l3.01-3.01s-4.84-5-6.96-7.11c-1.22-1.22-1.31-2.75-.14-3.96,2.51-2.59,5.05-5.14,7.62-7.66,1.15-1.13,3.02-1.14,4.18-.02,2.67,2.58,5.34,5.16,7.9,7.83,1.24,1.29,1.21,2.67-.06,3.93-.04.04-.08.08-.11.11-4.11,4.11-14.42,14.45-14.42,14.45,1.53,0,4.85.05,6.38.08,0,0,8.69-8.62,12.81-12.77.23-.23.45-.46.63-.72.77-1.04.96-2.19.83-3.48-.13-1.35-.55-2.48-1.51-3.43-3.68-3.66-7.35-7.34-11.03-11-1.09-1.08-2.35-1.62-3.62-1.62s-2.56.55-3.65,1.65"/>
        <g class="cls-3">
          <rect class="cls-1" x="-.56" y="0" width="32.65" height="33.02"/>
        </g>
      </g>
      <path class="cls-1" d="M14.82,21.43c-.46-.82-.6-1.85-.46-2.73.23-1.4.92-2.58,1.93-3.55,1.28-1.23,2.19-2.66,2.65-4.43.03.43.13.87.08,1.28-.14,1.12-.62,2.1-1.33,2.98-.83,1.03-1.68,2.08-1.87,3.43-.04.31-.02.89-.03,1.2,0,.18,0,.4-.08.58-.18.44-.47.77-.9,1.22"/>
      <path class="cls-1" d="M13.05,22.3c.35-.12.69-.23,1.01-.37,1.42-.61,2.12-2.01,2.04-3.55-.04-.73.27-1.29.64-1.87,1.13,1.31,1.3,4.22.23,5.49-.15.17-.44.3-.67.31-1.05,0-2.15,0-3.25,0"/>
      <path class="cls-1" d="M15.72,15.54c-.14.18-.33.43-.52.68-1.44-1.31-2.66-3.91-2.1-5.41.29.75.52,1.61.95,2.36.44.75,1.07,1.63,1.66,2.37"/>
      <path class="cls-1" d="M16,11.16c.64,0,1.06.44,1.06,1.07,0,.62-.45,1.07-1.08,1.07-.61,0-1.1-.47-1.11-1.06-.01-.61.49-1.08,1.14-1.07"/>
      <path class="cls-1" d="M16.47,22.31c.46-.05.68-.43.78-.62.56.37.82.45,1.79.62h-2.57Z"/>
    </g>
  </g>
</svg>